<?xml version="1.0" encoding="UTF-8" standalone="no"?>
<!-- Created with Inkscape (http://www.inkscape.org/) -->

<svg
   xmlns:dc="http://purl.org/dc/elements/1.1/"
   xmlns:cc="http://creativecommons.org/ns#"
   xmlns:rdf="http://www.w3.org/1999/02/22-rdf-syntax-ns#"
   xmlns:svg="http://www.w3.org/2000/svg"
   xmlns="http://www.w3.org/2000/svg"
   xmlns:sodipodi="http://sodipodi.sourceforge.net/DTD/sodipodi-0.dtd"
   xmlns:inkscape="http://www.inkscape.org/namespaces/inkscape"
   width="246.19383mm"
   height="49.919655mm"
   viewBox="0 0 872.34035 176.88067"
   id="svg2"
   version="1.1"
   inkscape:version="0.91 r13725"
   sodipodi:docname="bfb.svg">
  <defs
     id="defs4" />
  <sodipodi:namedview
     id="base"
     pagecolor="#ffffff"
     bordercolor="#666666"
     borderopacity="1.0"
     inkscape:pageopacity="0.0"
     inkscape:pageshadow="2"
     inkscape:zoom="1"
     inkscape:cx="418.76015"
     inkscape:cy="221.69435"
     inkscape:document-units="px"
     inkscape:current-layer="layer1"
     showgrid="false"
     fit-margin-top="10"
     fit-margin-left="10"
     fit-margin-right="10"
     fit-margin-bottom="10"
     inkscape:window-width="1242"
     inkscape:window-height="755"
     inkscape:window-x="38"
     inkscape:window-y="1"
     inkscape:window-maximized="1" />
  <metadata
     id="metadata7">
    <rdf:RDF>
      <cc:Work
         rdf:about="">
        <dc:format>image/svg+xml</dc:format>
        <dc:type
           rdf:resource="http://purl.org/dc/dcmitype/StillImage" />
        <dc:title></dc:title>
      </cc:Work>
    </rdf:RDF>
  </metadata>
  <g
     inkscape:label="Ebene 1"
     inkscape:groupmode="layer"
     id="layer1"
     transform="translate(-58.086872,-479.62467)">
    <g
       id="g4305">
      <path
         id="path4242"
         d="m 325.04492,550.81836 0,15.02539 c 0,0.48025 0.0584,1.41751 0.17578,2.8125 0.11737,1.37213 0.21084,2.28677 0.28125,2.74414 l -0.45703,0 c -2.79318,-3.70473 -6.78337,-5.55664 -11.9707,-5.55664 -5.04649,0 -8.96658,1.72651 -11.75977,5.17969 -2.7697,3.45317 -4.15429,8.25456 -4.15429,14.40625 0,6.19741 1.38459,10.98848 4.15429,14.37304 2.76971,3.38457 6.66643,5.07813 11.68946,5.07813 5.32816,0 9.34173,-1.90944 12.04101,-5.72852 l 0.28125,0 0.95117,5.04102 5.10547,0 0,-53.375 -6.33789,0 z m 66.50781,1.61328 c -1.05624,0 -1.94814,0.30833 -2.67578,0.92578 -0.70416,0.61746 -1.05664,1.61226 -1.05664,2.98438 0,1.34925 0.35248,2.34405 1.05664,2.98437 0.72764,0.64033 1.61954,0.96094 2.67578,0.96094 0.98583,0 1.84268,-0.32061 2.57032,-0.96094 0.75111,-0.64032 1.12695,-1.63512 1.12695,-2.98437 0,-1.37212 -0.37584,-2.36692 -1.12695,-2.98438 -0.72764,-0.61745 -1.58449,-0.92578 -2.57032,-0.92578 z m -172.23828,0.48047 c -0.93888,0 -1.73536,0.27342 -2.39257,0.82227 -0.65723,0.52598 -0.98633,1.39537 -0.98633,2.60742 0,1.21204 0.32911,2.10406 0.98633,2.67578 0.65721,0.57171 1.45369,0.85742 2.39257,0.85742 0.91542,0 1.71384,-0.28571 2.39453,-0.85742 0.68069,-0.57172 1.02149,-1.46374 1.02149,-2.67578 0,-1.21205 -0.3408,-2.08144 -1.02149,-2.60742 -0.68069,-0.54885 -1.47911,-0.82227 -2.39453,-0.82227 z m 13.48438,0 c -0.89194,0 -1.66505,0.27342 -2.32227,0.82227 -0.65721,0.52598 -0.98633,1.39537 -0.98633,2.60742 0,1.21204 0.32912,2.10406 0.98633,2.67578 0.65722,0.57171 1.43033,0.85742 2.32227,0.85742 0.91541,0 1.71385,-0.28571 2.39453,-0.85742 0.68069,-0.57172 1.02148,-1.46374 1.02148,-2.67578 0,-1.21205 -0.34079,-2.08144 -1.02148,-2.60742 -0.68068,-0.54885 -1.47912,-0.82227 -2.39453,-0.82227 z m -68.6543,1.13086 0,50.15039 18.0957,0 c 5.63331,0 10.02272,-1.25593 13.16797,-3.77148 3.14526,-2.51557 4.71875,-6.01579 4.71875,-10.49805 0,-3.31596 -0.93864,-5.97974 -2.8164,-7.99219 -1.8543,-2.01244 -4.76564,-3.35048 -8.73243,-4.01367 l 0,-0.34375 c 3.19221,-0.57171 5.62255,-1.81732 7.28907,-3.73828 1.66651,-1.94385 2.5,-4.40208 2.5,-7.375 0,-4.27645 -1.53844,-7.40886 -4.61328,-9.39844 -3.05138,-2.01244 -8.02695,-3.01953 -14.92774,-3.01953 l -14.68164,0 z m 6.47852,5.38672 8.51953,0 c 4.34234,0 7.51074,0.60436 9.50586,1.8164 2.0186,1.21205 3.02734,3.1913 3.02734,5.93555 0,2.95006 -0.91527,5.05277 -2.74609,6.31055 -1.83082,1.25778 -4.76359,1.88672 -8.80078,1.88672 l -9.50586,0 0,-15.94922 z m 102.63086,6.41406 c -2.6054,0 -4.98705,0.51388 -7.14649,1.54297 -2.15942,1.00623 -3.83808,2.4367 -5.03515,4.28906 l -0.35157,0 -0.95117,-5.14648 -5.10547,0 0,37.66406 6.33789,0 0,-19.51758 c 0,-4.8253 0.8919,-8.30095 2.67578,-10.42773 1.80736,-2.14966 4.69339,-3.22461 8.66016,-3.22461 2.98095,0 5.16398,0.75434 6.54883,2.26367 1.40833,1.48647 2.11328,3.76177 2.11328,6.82617 l 0,24.08008 6.26758,0 0,-24.52539 c 0,-4.73382 -1.15091,-8.22176 -3.45117,-10.46289 -2.30027,-2.24114 -5.82115,-3.36133 -10.5625,-3.36133 z m 89.00586,0 c -2.6054,0 -4.98705,0.51388 -7.14649,1.54297 -2.15943,1.00623 -3.83808,2.4367 -5.03516,4.28906 l -0.35156,0 -0.95117,-5.14648 -5.10547,0 0,37.66406 6.33789,0 0,-19.51758 c 0,-4.8253 0.8919,-8.30095 2.67578,-10.42773 1.80736,-2.14966 4.69339,-3.22461 8.66016,-3.22461 2.98095,0 5.16397,0.75434 6.54883,2.26367 1.40832,1.48647 2.11328,3.76177 2.11328,6.82617 l 0,24.08008 6.26758,0 0,-24.52539 c 0,-4.73382 -1.15091,-8.22176 -3.45117,-10.46289 -2.30027,-2.24114 -5.82115,-3.36133 -10.5625,-3.36133 z m 56.68554,0 c -4.50664,0 -8.05088,0.89202 -10.63281,2.67578 -2.58193,1.78375 -3.87305,4.21936 -3.87305,7.30664 0,1.73802 0.34079,3.21179 1.02149,4.42383 0.70416,1.21205 1.79469,2.30962 3.27344,3.29297 1.47873,0.96049 4.0376,2.12787 7.67578,3.5 3.56775,1.32638 6.04483,2.50411 7.42968,3.5332 1.40833,1.0291 2.11133,2.28698 2.11133,3.77344 0,1.69229 -0.72637,3.04065 -2.18164,4.04687 -1.45527,1.00623 -3.78045,1.50977 -6.97265,1.50977 -3.94331,0 -8.03867,-1.00513 -12.28711,-3.01758 l 0,5.625 c 3.00442,1.57794 7.05304,2.36719 12.14648,2.36719 4.88219,0 8.67376,-0.96185 11.37305,-2.88281 2.69929,-1.94385 4.04882,-4.6755 4.04882,-8.19727 0,-1.76089 -0.36416,-3.27151 -1.09179,-4.5293 -0.72764,-1.25777 -1.86686,-2.3883 -3.41602,-3.39453 -1.52568,-1.00622 -3.89565,-2.09346 -7.11133,-3.25976 -4.29538,-1.60081 -7.02951,-2.8464 -8.20312,-3.73828 -1.17361,-0.91475 -1.75977,-2.05757 -1.75977,-3.42969 0,-1.41786 0.67963,-2.52772 2.04102,-3.32813 1.36138,-0.82327 3.35746,-1.23437 5.98633,-1.23437 3.14526,0 6.67781,0.79958 10.59765,2.40039 l 2.14649,-4.9043 c -3.82595,-1.69228 -7.93299,-2.53906 -12.32227,-2.53906 z m -209.20703,0.68555 0,24.66406 c 0,4.77955 1.17428,8.25521 3.52149,10.42773 2.37068,2.17253 5.87987,3.25977 10.52734,3.25977 2.79317,0 5.24493,-0.49126 7.35742,-1.47461 2.11249,-0.98335 3.7444,-2.37892 4.89453,-4.18555 l 0.31641,0 0.91601,4.97266 5.21094,0 0,-37.66406 -6.37304,0 0,19.62109 c -10e-6,4.77956 -0.9036,8.24487 -2.71094,10.39453 -1.80736,2.14966 -4.69533,3.22461 -8.66211,3.22461 -2.93402,0 -5.10535,-0.73171 -6.51367,-2.19531 -1.38486,-1.48646 -2.07618,-3.75143 -2.07618,-6.79297 l 0,-24.25195 -6.4082,0 z m 178.57617,0 0,37.66406 6.33789,0 0,-37.66406 -6.33789,0 z m -74.35937,4.42578 c 3.84942,0 6.66534,1.1202 8.44922,3.36133 1.80735,2.21826 2.71093,5.94666 2.71093,11.18359 l 0,1.13086 c 0,4.66522 -0.8919,8.02776 -2.67578,10.08594 -1.7604,2.03532 -4.56463,3.05273 -8.41406,3.05273 -3.33303,0 -5.89191,-1.20035 -7.67578,-3.60156 -1.76041,-2.40122 -2.64063,-5.9344 -2.64063,-10.59961 0,-4.68809 0.89191,-8.29109 2.67579,-10.80664 1.78388,-2.53843 4.30769,-3.80664 7.57031,-3.80664 z m -143.33203,9.70703 9.89257,0 c 4.22498,0 7.39337,0.72138 9.50586,2.16211 2.11248,1.41786 3.16993,3.62335 3.16993,6.61914 0,3.15589 -0.99902,5.51133 -2.99414,7.06641 -1.99513,1.55507 -5.05837,2.33398 -9.18946,2.33398 l -10.38476,0 0,-18.18164 z"
         style="font-style:normal;font-variant:normal;font-weight:normal;font-stretch:normal;font-size:medium;line-height:125%;font-family:'Noto Sans';-inkscape-font-specification:'Noto Sans';letter-spacing:0px;word-spacing:0px;fill:#009def;fill-opacity:0.94117647;stroke:none;stroke-width:1px;stroke-linecap:butt;stroke-linejoin:miter;stroke-opacity:1"
         inkscape:connector-curvature="0" />
      <path
         id="path4256"
         d="m 570.55078,552.43164 c -1.05624,0 -1.94814,0.30833 -2.67578,0.92578 -0.70415,0.61746 -1.05664,1.61226 -1.05664,2.98438 0,1.34925 0.35249,2.34405 1.05664,2.98437 0.72764,0.64033 1.61954,0.96094 2.67578,0.96094 0.98583,0 1.84267,-0.32061 2.57031,-0.96094 0.7511,-0.64032 1.12696,-1.63512 1.12696,-2.98437 0,-1.37212 -0.37586,-2.36692 -1.12696,-2.98438 -0.72764,-0.61745 -1.58448,-0.92578 -2.57031,-0.92578 z m -109.53125,1.61133 0,50.15039 6.47656,0 0,-21.30078 20.91407,0 0,-5.52344 -20.91407,0 0,-17.76953 22.28711,0 0,-5.55664 -28.76367,0 z m 54.60742,11.80078 c -2.37068,0 -4.56539,0.63928 -6.58398,1.91992 -2.01861,1.28066 -3.76736,3.16748 -5.24609,5.66016 l -0.28126,0 -0.70507,-6.89453 -5.21094,0 0,37.66406 6.33789,0 0,-20.10156 c 0,-2.35548 0.49268,-4.49309 1.47852,-6.41407 0.98582,-1.94383 2.34705,-3.4648 4.08398,-4.5625 1.76041,-1.0977 3.66106,-1.64648 5.70312,-1.64648 1.36138,0 2.75961,0.16031 4.19141,0.48047 l 0.77344,-5.69336 c -1.31444,-0.27442 -2.82756,-0.41211 -4.54102,-0.41211 z m 25.91211,0 c -5.23427,0 -9.38804,1.79438 -12.46289,5.38477 -3.07483,3.56752 -4.61328,8.37087 -4.61328,14.4082 0,5.9916 1.6436,10.7025 4.92969,14.13281 3.30956,3.40743 7.86255,5.11133 13.66015,5.11133 2.55846,0 4.77849,-0.18293 6.65625,-0.54883 1.87777,-0.36589 3.88358,-0.99483 6.01954,-1.88672 l 0,-5.41992 c -2.48804,1.02909 -4.65938,1.7259 -6.51368,2.0918 -1.8543,0.34303 -3.81336,0.51562 -5.8789,0.51562 -3.87289,0 -6.86602,-1.10986 -8.97852,-3.32812 -2.11248,-2.21826 -3.22834,-5.46574 -3.3457,-9.74219 l 26.47656,0 0,-3.73828 c 0,-5.21406 -1.44302,-9.34323 -4.33008,-12.38477 -2.88706,-3.06441 -6.76042,-4.5957 -11.61914,-4.5957 z m 59.29102,0 c -5.23427,0 -9.38805,1.79438 -12.46289,5.38477 -3.07484,3.56752 -4.61328,8.37087 -4.61328,14.4082 0,5.9916 1.64359,10.7025 4.92968,14.13281 3.30956,3.40743 7.86256,5.11133 13.66016,5.11133 2.55845,0 4.77652,-0.18293 6.6543,-0.54883 1.87776,-0.36589 3.88552,-0.99483 6.02148,-1.88672 l 0,-5.41992 c -2.48804,1.02909 -4.65937,1.7259 -6.51367,2.0918 -1.85429,0.34303 -3.81532,0.51562 -5.88086,0.51562 -3.8729,0 -6.86408,-1.10986 -8.97656,-3.32812 -2.11249,-2.21826 -3.22835,-5.46574 -3.34571,-9.74219 l 26.47657,0 0,-3.73828 c 0,-5.21406 -1.44301,-9.34323 -4.33008,-12.38477 -2.88707,-3.06441 -6.76042,-4.5957 -11.61914,-4.5957 z m -33.51758,0.68555 0,37.66406 6.33789,0 0,-37.66406 -6.33789,0 z m -25.84375,4.35742 c 2.95748,0 5.24565,0.91465 6.86523,2.74414 1.61958,1.8295 2.45307,4.50361 2.5,8.02539 l -19.67968,0 c 0.3286,-3.38457 1.37241,-6.02572 3.13281,-7.92383 1.76041,-1.8981 4.15374,-2.8457 7.18164,-2.8457 z m 59.29102,0 c 2.95748,0 5.24566,0.91465 6.86523,2.74414 1.61958,1.8295 2.45307,4.50361 2.5,8.02539 l -19.68164,0 c 0.32861,-3.38457 1.37436,-6.02572 3.13476,-7.92383 1.76041,-1.8981 4.15375,-2.8457 7.18165,-2.8457 z"
         style="font-style:normal;font-variant:normal;font-weight:normal;font-stretch:normal;font-size:medium;line-height:125%;font-family:'Noto Sans';-inkscape-font-specification:'Noto Sans';letter-spacing:0px;word-spacing:0px;fill:#e2017b;fill-opacity:1;stroke:none;stroke-width:1px;stroke-linecap:butt;stroke-linejoin:miter;stroke-opacity:1"
         inkscape:connector-curvature="0" />
      <path
         id="path4266"
         d="m 710.82031,550.81836 0,53.375 6.33789,0 0,-53.375 -6.33789,0 z m 44.32617,0 0,15.02539 c 0,0.48025 0.0604,1.41751 0.17774,2.8125 0.11735,1.37213 0.21083,2.28677 0.28125,2.74414 l -0.45899,0 c -2.79318,-3.70473 -6.78337,-5.55664 -11.9707,-5.55664 -5.0465,0 -8.96464,1.72651 -11.75781,5.17969 -2.76971,3.45317 -4.15625,8.25456 -4.15625,14.40625 0,6.19741 1.38654,10.98848 4.15625,14.37304 2.7697,3.38457 6.66447,5.07813 11.6875,5.07813 5.32815,0 9.34172,-1.90944 12.04101,-5.72852 l 0.28321,0 0.94922,5.04102 5.10547,0 0,-53.375 -6.3379,0 z m -59.67773,1.61328 c -1.05624,0 -1.94815,0.30833 -2.67578,0.92578 -0.70417,0.61746 -1.05469,1.61226 -1.05469,2.98438 0,1.34925 0.35052,2.34405 1.05469,2.98437 0.72763,0.64033 1.61954,0.96094 2.67578,0.96094 0.98583,0 1.84268,-0.32061 2.57031,-0.96094 0.75112,-0.64032 1.12696,-1.63512 1.12696,-2.98437 0,-1.37212 -0.37584,-2.36692 -1.12696,-2.98438 -0.72763,-0.61745 -1.58448,-0.92578 -2.57031,-0.92578 z m -49.25586,1.61133 0,50.15039 18.09766,0 c 5.63329,0 10.02271,-1.25593 13.16797,-3.77148 3.14526,-2.51556 4.71679,-6.01579 4.71679,-10.49805 0,-3.31596 -0.93864,-5.97974 -2.8164,-7.99219 -1.8543,-2.01244 -4.76369,-3.35048 -8.73047,-4.01367 l 0,-0.34375 c 3.1922,-0.57171 5.62059,-1.81732 7.28711,-3.73828 1.66652,-1.94385 2.5,-4.40208 2.5,-7.375 0,-4.27645 -1.53648,-7.40886 -4.61133,-9.39844 -3.05137,-2.01244 -8.0289,-3.01953 -14.92969,-3.01953 l -14.68164,0 z m 6.47852,5.38672 8.52148,0 c 4.34234,0 7.51074,0.60436 9.50586,1.8164 2.0186,1.21205 3.02734,3.1913 3.02734,5.93555 0,2.95006 -0.91527,5.05277 -2.74609,6.31055 -1.83082,1.25778 -4.76553,1.88672 -8.80273,1.88672 l -9.50586,0 0,-15.94922 z m 184.17382,6.41406 c -2.6054,0 -4.98704,0.51388 -7.14648,1.54297 -2.15943,1.00623 -3.83808,2.4367 -5.03516,4.28906 l -0.35156,0 -0.95117,-5.14648 -5.10547,0 0,37.66406 6.33789,0 0,-19.51758 c 0,-4.8253 0.8919,-8.30095 2.67578,-10.42773 1.80735,-2.14966 4.69338,-3.22461 8.66016,-3.22461 2.98095,0 5.16397,0.75434 6.54883,2.26367 1.40832,1.48647 2.11328,3.76177 2.11328,6.82617 l 0,24.08008 6.26758,0 0,-24.52539 c 0,-4.73382 -1.15091,-8.22176 -3.45118,-10.46289 -2.30026,-2.24114 -5.82114,-3.36133 -10.5625,-3.36133 z m 39.75,0 c -4.90566,0 -8.77901,1.74913 -11.61914,5.24805 -2.81664,3.49891 -4.22461,8.27768 -4.22461,14.33789 0,6.17454 1.39628,10.96561 4.18946,14.37304 2.81664,3.38457 6.72505,5.07813 11.72461,5.07813 5.37511,0 9.36531,-1.88682 11.9707,-5.66016 l 0.28125,0 -0.21094,4.63086 0,1.47461 c 0,3.31597 -0.96202,5.91188 -2.88672,7.78711 -1.90124,1.87523 -4.49517,2.8125 -7.78125,2.8125 -5.75066,0 -10.50424,-0.98251 -14.25976,-2.94922 l 0,5.69336 c 3.63817,1.60081 8.27491,2.40235 13.9082,2.40235 5.91496,0 10.26932,-1.36066 13.0625,-4.08204 2.81665,-2.72137 4.22461,-6.78071 4.22461,-12.17773 l 0,-38.2832 -5.03516,0 -0.8457,5.00781 -0.38672,0 c -2.84012,-3.79621 -6.87706,-5.69336 -12.11133,-5.69336 z m -184.38476,0.68555 0,37.66406 6.33789,0 0,-37.66406 -6.33789,0 z m 81.11914,0 0,24.66406 c 0,4.77955 1.17428,8.25521 3.52148,10.42773 2.37068,2.17253 5.87987,3.25977 10.52735,3.25977 2.79317,0 5.24493,-0.49126 7.35742,-1.47461 2.11249,-0.98335 3.7444,-2.37892 4.89453,-4.18555 l 0.31641,0 0.91601,4.97266 5.21094,0 0,-37.66406 -6.37305,0 0,19.62109 c 0,4.77956 -0.90358,8.24487 -2.71093,10.39453 -1.80735,2.14966 -4.69533,3.22461 -8.66211,3.22461 -2.93402,0 -5.1034,-0.73171 -6.51172,-2.19531 -1.38485,-1.48646 -2.07813,-3.75143 -2.07813,-6.79297 l 0,-24.25195 -6.4082,0 z m -29.29297,4.42578 c 3.84942,0 6.66534,1.1202 8.44922,3.36133 1.80735,2.21826 2.71094,5.94666 2.71094,11.18359 l 0,1.13086 c 0,4.66522 -0.8919,8.02776 -2.67578,10.08594 -1.76041,2.03532 -4.56465,3.05273 -8.41407,3.05273 -3.33303,0 -5.8919,-1.20035 -7.67578,-3.60156 -1.7604,-2.40122 -2.64062,-5.9344 -2.64062,-10.59961 0,-4.68809 0.8919,-8.29109 2.67578,-10.80664 1.78387,-2.53843 4.30769,-3.80664 7.57031,-3.80664 z m 133.43945,0.0684 c 3.96678,0 6.84112,1.14282 8.625,3.42968 1.78388,2.28688 2.67579,5.94545 2.67579,10.97657 l 0,1.47656 c -10e-6,4.52801 -0.89191,7.82073 -2.67579,9.87891 -1.7604,2.03531 -4.588,3.05273 -8.48437,3.05273 -3.42692,0 -6.00915,-1.22297 -7.7461,-3.66992 -1.71346,-2.44695 -2.57031,-6.00276 -2.57031,-10.66797 0,-4.64235 0.88021,-8.21044 2.64063,-10.70312 1.78387,-2.51556 4.29601,-3.77344 7.53515,-3.77344 z m -224.80468,9.63867 9.89453,0 c 4.22497,0 7.39337,0.72138 9.50586,2.16211 2.11248,1.41786 3.16797,3.62335 3.16797,6.61914 0,3.15589 -0.99707,5.51133 -2.99219,7.06641 -1.99513,1.55507 -5.05837,2.33398 -9.18946,2.33398 l -10.38671,0 0,-18.18164 z"
         style="font-style:normal;font-variant:normal;font-weight:normal;font-stretch:normal;font-size:medium;line-height:125%;font-family:'Noto Sans';-inkscape-font-specification:'Noto Sans';letter-spacing:0px;word-spacing:0px;fill:#95b313;fill-opacity:0.94117647;stroke:none;stroke-width:1px;stroke-linecap:butt;stroke-linejoin:miter;stroke-opacity:1"
         inkscape:connector-curvature="0" />
      <g
         id="text4237"
         style="font-style:normal;font-weight:normal;font-size:123.47476196px;line-height:125%;font-family:sans-serif;letter-spacing:0px;word-spacing:0px;fill:#000000;fill-opacity:1;stroke:none;stroke-width:1px;stroke-linecap:butt;stroke-linejoin:miter;stroke-opacity:1"
         inkscape:transform-center-y="0.28301901"
         inkscape:transform-center-x="1.9811167"
         transform="scale(1.0131063,0.98706326)">
        <path
           id="path4281"
           style="font-style:normal;font-variant:normal;font-weight:normal;font-stretch:normal;font-family:'Noto Sans';-inkscape-font-specification:'Noto Sans';fill:#000000"
           d="m 126.97709,521.80824 -2.47191,23.69413 23.75442,-6.69224 1.68813,11.39489 -22.66919,1.80871 14.65057,19.5341 -10.61111,5.78788 -10.49054,-21.58397 -9.52588,21.58397 -10.97286,-5.78788 14.4697,-19.5341 -22.488321,-1.80871 1.748422,-11.39489 23.452969,6.69224 -2.59249,-23.69413 12.05809,0 z"
           inkscape:connector-curvature="0" />
      </g>
    </g>
  </g>
</svg>
