<?xml version="1.0" encoding="UTF-8" standalone="no"?>
<!-- Created with Inkscape (http://www.inkscape.org/) -->

<svg
   xmlns:dc="http://purl.org/dc/elements/1.1/"
   xmlns:cc="http://creativecommons.org/ns#"
   xmlns:rdf="http://www.w3.org/1999/02/22-rdf-syntax-ns#"
   xmlns:svg="http://www.w3.org/2000/svg"
   xmlns="http://www.w3.org/2000/svg"
   xmlns:sodipodi="http://sodipodi.sourceforge.net/DTD/sodipodi-0.dtd"
   xmlns:inkscape="http://www.inkscape.org/namespaces/inkscape"
   id="svg2"
   sodipodi:version="0.32"
   inkscape:version="0.91 r13725"
   width="1100"
   height="846.28668"
   version="1.0"
   sodipodi:docname="ccc.svg"
   inkscape:output_extension="org.inkscape.output.svg.inkscape">
  <metadata
     id="metadata7">
    <rdf:RDF>
      <cc:Work
         rdf:about="">
        <dc:format>image/svg+xml</dc:format>
        <dc:type
           rdf:resource="http://purl.org/dc/dcmitype/StillImage" />
        <dc:title></dc:title>
      </cc:Work>
    </rdf:RDF>
  </metadata>
  <defs
     id="defs5" />
  <sodipodi:namedview
     inkscape:window-height="753"
     inkscape:window-width="1280"
     inkscape:pageshadow="2"
     inkscape:pageopacity="0.0"
     guidetolerance="10.0"
     gridtolerance="10.0"
     objecttolerance="10.0"
     borderopacity="1.0"
     bordercolor="#666666"
     pagecolor="#ffffff"
     id="base"
     width="930px"
     height="676.29px"
     inkscape:zoom="0.73353293"
     inkscape:cx="471.07551"
     inkscape:cy="637.1208"
     inkscape:window-x="58"
     inkscape:window-y="67"
     inkscape:current-layer="svg2"
     showgrid="false"
     fit-margin-top="100"
     fit-margin-left="100"
     fit-margin-right="100"
     fit-margin-bottom="100"
     inkscape:window-maximized="0" />
  <path
     style="fill:#000000"
     d="m 852.63859,741.7128 c -19.70624,-13.29211 -30.0638,-34.78251 -31.98744,-66.3692 -1.43349,-23.53847 0.9196,-41.27676 11.04384,-83.2515 9.04187,-37.48722 10.25058,-44.98953 10.82668,-67.19933 l 0.50084,-19.30831 -2.79827,-5.14132 c -1.53903,-2.82773 -3.06642,-5.11188 -3.39419,-5.07588 -1.01564,0.11154 -13.34335,14.73672 -20.83326,24.71589 -16.33234,21.76038 -25.60163,43.22441 -27.28949,63.19178 l -0.65308,7.72594 -5.27016,1.09408 c -10.61678,2.20404 -10.8706,2.13156 -12.36758,-3.53166 -2.00056,-7.56826 -1.05576,-26.47211 1.73846,-34.78401 3.78961,-11.27287 12.29519,-27.06267 24.45286,-45.39442 13.49651,-20.3505 22.29544,-36.42189 25.53532,-46.64062 2.65176,-8.3638 2.97063,-8.55756 15.55219,-9.45063 l 8.732,-0.61982 3.12189,7.95082 c 7.43509,18.93566 10.17178,32.25172 11.06213,53.82538 1.01717,24.6467 -1.58267,46.64916 -11.85379,100.3191 -8.90226,46.5171 -8.79316,45.45365 -6.14705,59.92072 4.56989,24.98504 10.85366,39.45816 22.64364,52.15409 2.84124,3.05955 2.92917,3.43892 2.22,9.5782 -0.40614,3.51586 -1.12477,7.41331 -1.59696,8.661 -1.35091,3.56954 -5.54603,2.81843 -13.23858,-2.3703 z m -90.38164,-99.95339 -4.40915,-0.39201 0.542,-4.04098 c 0.83163,-6.20021 4.81551,-11.35435 11.18508,-14.47069 4.9407,-2.41726 7.23692,-2.80107 21.47635,-3.58977 8.76928,-0.4857 17.64554,-0.90037 19.72502,-0.92146 l 3.78087,-0.0384 0,9.559 c 0,11.29871 2.89266,9.73239 -23.25417,12.59173 -18.38624,2.01065 -20.17778,2.091 -29.046,1.30254 z m 91.01615,-12.91016 c -0.83386,-3.32234 0.23533,-9.92823 2.23178,-13.78895 2.39007,-4.62188 9.14586,-11.53281 17.52971,-17.93225 8.64051,-6.59535 16.13845,-14.28995 18.64164,-19.13059 5.38981,-10.42275 9.04084,-44.89604 6.65258,-62.8141 -3.25318,-24.40712 -15.88415,-51.5788 -32.35366,-69.59908 -2.77164,-3.03262 -5.03935,-5.9614 -5.03935,-6.50842 0,-0.547 4.83882,-5.47414 10.75293,-10.94919 7.58087,-7.01805 10.89476,-9.50848 11.23374,-8.44227 1.33436,4.19712 18.16012,35.58555 21.9397,40.92846 8.17767,11.56015 19.03163,19.79958 29.69147,22.5393 2.48609,0.63896 6.23073,1.81921 8.32143,2.62277 5.50332,2.11521 13.05961,1.80424 25.74605,-1.05955 18.97928,-4.28432 25.02118,-3.06679 29.37097,5.91865 3.60701,7.45103 2.88401,8.76588 -6.56211,11.93495 -16.56431,5.55713 -38.39037,5.7971 -60.26526,0.66258 -6.73871,-1.58173 -9.20194,-1.80884 -10.08232,-0.92961 -1.32254,1.32081 -1.39401,10.01055 -0.19947,24.25506 0.67011,7.99088 0.44027,11.47089 -1.38686,20.99896 -5.55393,28.96263 -16.40629,50.15914 -34.20845,66.81499 -7.02205,6.56989 -9.57507,8.303 -14.18877,9.63203 -3.0943,0.89136 -8.22568,2.92522 -11.40305,4.51968 l -5.77706,2.89903 -0.64564,-2.57245 z M 796.17104,450.94393 c -1.51716,-0.45683 -4.35281,-1.81595 -6.30145,-3.02028 -2.90717,-1.79673 -3.54297,-2.79378 -3.54297,-5.55601 l 0,-3.36633 6.80557,-0.66626 c 17.00091,-1.66436 30.72847,-7.2785 44.24943,-18.09661 14.4243,-11.54086 26.91772,-28.1756 47.24764,-62.90926 6.54291,-11.17857 10.67025,-17.23784 11.7571,-17.26038 2.03801,-0.0423 6.66745,5.26032 7.50461,8.59585 1.34907,5.37514 -6.39806,31.26064 -13.79234,46.08434 -14.28239,28.63264 -38.25754,48.11805 -67.97977,55.24944 -8.26962,1.98417 -20.96226,2.44666 -25.94782,0.9455 z m -502.36582,-14.11115 -163.33361,-0.51255 -3.28349,-2.34197 c -4.12998,-2.94574 -10.43658,-15.75607 -13.24143,-26.89676 -4.84115,-19.22874 -7.64554,-40.27706 -9.20179,-69.0639 -0.58458,-10.81329 -2.00674,-34.17907 -3.16036,-51.92396 -2.290161,-35.22714 -2.125421,-57.27508 0.67424,-90.23677 4.22488,-49.74132 11.90465,-79.57475 22.22498,-86.33689 2.83876,-1.86003 32.60284,-3.67103 129.2043,-7.86148 90.8705,-3.941843 189.04609,-0.701 244.23385,8.06234 12.44597,1.97631 14.73313,3.72581 20.70877,15.84055 6.04005,12.24532 9.50166,26.16379 10.40235,41.82574 0.97996,17.04057 0.57912,21.07245 -2.16826,21.80948 -3.5127,0.94236 -14.75211,0.69529 -16.7388,-0.36796 -2.87176,-1.53692 -4.93227,-8.06494 -6.6055,-20.92723 -3.54978,-27.28757 -8.37212,-33.70304 -28.99678,-38.57632 -23.03731,-5.44336 -58.07166,-7.47567 -127.78628,-7.41277 -67.75118,0.0611 -120.08,2.14603 -172.58534,6.87619 -12.97517,1.16892 -16.68337,1.86885 -20.70925,3.90892 -10.43225,5.28642 -18.22513,17.63642 -22.99995,36.44985 -3.65863,14.41551 -4.3982,23.8794 -5.48221,70.15316 -1.55852,66.52892 0.97379,98.74468 10.47041,133.20331 5.73892,20.82375 10.50806,27.89261 22.89455,33.93445 13.77345,6.71837 8.37944,6.47901 145.0578,6.43715 118.46344,-0.0363 157.58161,-0.77823 172.95564,-3.28041 14.30695,-2.32852 22.50687,-17.16632 27.2146,-49.24495 2.19604,-14.96394 2.45917,-15.86805 5.37684,-18.47499 5.91727,-5.28707 13.67236,-4.65079 16.97188,1.39249 2.96492,5.43044 2.34488,22.98911 -1.45237,41.12878 -4.89578,23.38743 -9.38243,39.21933 -11.99406,42.32308 -5.09697,6.0574 -20.12458,9.67614 -42.71422,10.28582 -6.9316,0.18707 -86.10303,0.1095 -175.93651,-0.1724 z m 459.75386,-16.54921 c -6.56917,-1.62344 -10.51915,-3.75316 -15.26847,-8.23234 l -3.87011,-3.64998 2.35982,-1.91087 c 3.65332,-2.95828 11.54508,-4.93971 25.85285,-6.49102 7.20886,-0.78162 15.14869,-2.08412 17.64406,-2.89446 27.42355,-8.90534 44.52387,-19.86565 66.69047,-42.74475 10.84765,-11.19633 33.17581,-38.88972 34.82915,-43.19824 0.33519,-0.87348 2.14969,-1.37481 4.97595,-1.37481 5.20125,0 5.19261,-0.59952 0.21024,14.58649 -11.24999,34.2894 -34.46353,62.66817 -67.62899,82.67709 -7.45766,4.49925 -8.87008,4.93117 -31.653,9.67978 -25.6358,5.34324 -26.52414,5.43569 -34.14197,3.55311 z M 266.43632,399.0342 c 0.97148,-2.53167 37.96622,-53.88602 46.1961,-64.12725 16.94364,-21.08464 41.69834,-47.04277 51.06095,-53.54326 6.96752,-4.83756 19.28527,-8.81421 31.32098,-10.11163 14.33373,-1.54513 132.17856,-1.48904 223.44162,0.10637 77.42515,1.3535 75.30272,1.1754 97.3928,8.17264 6.84115,2.167 12.63001,3.74845 12.86413,3.51432 0.23413,-0.23412 -0.81146,-2.04766 -2.32353,-4.03009 -3.55715,-4.66366 -11.45974,-9.85157 -19.72335,-12.94802 -13.80224,-5.17184 -18.48079,-5.49196 -97.28414,-6.65663 -71.05998,-1.05024 -103.02487,-1.80427 -188.0353,-4.43572 l -39.82517,-1.23276 -5.91188,-2.94831 c -10.41334,-5.19321 -18.73618,-14.35028 -59.79862,-65.79248 -21.80736,-27.31982 -39.64976,-49.91599 -39.64976,-50.21371 0,-1.01507 22.67993,0.83503 24.11924,1.96752 0.7887,0.62058 11.38229,14.43736 23.54133,30.70396 26.18644,35.03277 34.00567,44.5168 46.05111,55.85587 11.92863,11.2291 16.11452,13.99332 23.5646,15.56123 14.35635,3.02138 53.39102,3.7274 140.66411,2.54421 101.17838,-1.37171 135.09195,-0.64234 150.89775,3.24534 12.62138,3.10441 28.11984,8.48629 37.80571,13.12812 4.08799,1.95911 7.60929,3.38544 7.82513,3.16961 0.94081,-0.94081 -3.00715,-6.56482 -7.67038,-10.92674 -14.62686,-13.68171 -36.41061,-22.20516 -63.67038,-24.91266 -10.92126,-1.08473 -73.58586,-1.5851 -114.43435,-0.91376 -12.75413,0.20961 -38.16158,0.37059 -56.461,0.35771 -29.88864,-0.021 -34.53464,-0.25071 -45.69298,-2.25902 -14.77967,-2.6601 -31.30496,-7.96433 -41.02868,-13.16925 -5.83063,-3.12102 -7.42765,-4.54631 -9.27169,-8.27465 -5.30473,-10.7253 -5.86217,-39.92708 -1.20708,-63.2337 l 1.05723,-5.29322 7.99437,0 c 4.3969,0 8.06642,0.11343 8.15447,0.25206 0.0881,0.13863 0.44694,11.36781 0.79751,24.95374 0.69772,27.0397 1.03364,28.71962 7.1318,35.66502 4.44596,5.06367 7.2446,6.3409 16.66981,7.60765 19.96259,2.683 35.25363,3.12277 107.97698,3.10547 44.87963,-0.0107 81.95163,0.41893 89.22854,1.03403 34.13102,2.88503 61.44405,9.70266 85.22307,21.27262 11.52999,5.61006 12.8147,6.5429 21.03762,15.27581 15.47057,16.43005 30.45113,38.38755 39.01932,57.1919 l 3.9049,8.56998 -0.36508,-6.14359 c -0.81421,-13.70157 -20.99162,-47.10391 -52.57452,-87.0336 -5.88459,-7.43977 -10.69924,-13.87933 -10.69924,-14.31014 0,-1.45027 4.4596,-3.92232 7.0759,-3.92232 4.60545,0 16.48206,8.01692 21.87953,14.76907 27.54005,34.45215 44.74492,62.51176 52.7645,86.05414 1.79451,5.26801 4.33229,10.70295 5.63951,12.07763 l 2.37675,2.49943 3.04987,-3.04986 3.04987,-3.04987 -2.60835,-9.02777 c -5.82489,-20.16055 -12.17874,-32.62687 -36.67238,-71.95166 -18.68872,-30.00493 -18.8054,-30.33758 -10.64165,-30.33758 3.53388,0 5.68742,0.92426 11.72327,5.03138 4.06679,2.76727 8.11401,5.60292 8.99385,6.30145 2.57733,2.04628 22.77123,36.28836 29.77653,50.49102 3.54016,7.17736 8.0637,18.32128 10.05233,24.76427 5.27125,17.07839 5.28873,17.09752 11.02629,12.05989 3.67145,-3.22358 3.73338,-3.39823 3.14671,-8.87446 -1.36837,-12.773 -8.70857,-35.69703 -17.41249,-54.38064 -2.42731,-5.21038 -4.41329,-10.08054 -4.41329,-10.82259 0,-0.74204 1.31372,-2.81947 2.91937,-4.61651 2.81066,-3.14566 3.02655,-3.21196 5.79733,-1.78031 4.68752,2.42201 12.72683,11.21031 16.15389,17.65888 1.75648,3.30509 5.79194,14.74307 8.96769,25.41772 3.17575,10.67466 6.13664,19.40847 6.57973,19.40847 0.44311,0 2.30581,-1.88335 4.13934,-4.18523 8.46103,-10.62229 11.52906,-12.10103 15.76084,-7.59651 2.73665,2.91303 2.78346,6.72285 0.17574,14.30232 -2.69452,7.83177 -2.58984,10.00152 0.55156,11.43283 1.41241,0.64355 3.22723,1.17008 4.03292,1.17008 1.981,0 1.84241,2.62006 -0.49852,9.42406 -6.92489,20.12755 -21.85723,37.88584 -45.42348,54.01986 -22.38641,15.32628 -51.43161,24.90606 -78.97699,26.04844 -13.66356,0.56665 -21.61316,-1.01932 -28.39973,-5.66586 -5.21447,-3.57017 -5.40136,-6.70247 -0.59322,-9.94267 5.25274,-3.53982 12.19541,-5.19342 26.68994,-6.35699 45.01345,-3.61351 79.07713,-19.97067 103.80372,-49.84589 3.88068,-4.68872 3.96818,-4.91936 1.16974,-3.08314 -30.70528,20.14736 -64.16079,34.85673 -89.50801,39.35395 -7.60437,1.34919 -13.25078,1.63157 -24.70168,1.23534 -15.72835,-0.54424 -25.11781,-2.43321 -35.98609,-7.23969 -6.01008,-2.65794 -6.77676,-4.0351 -6.33615,-11.38138 l 0.25595,-4.26736 -82.67504,-0.50841 c -45.47127,-0.27962 -93.31809,-0.50687 -106.32627,-0.50498 -30.08361,0.004 -59.34025,1.93934 -84.22961,5.57087 -11.74776,1.71408 -13.80437,3.24401 -17.73234,13.19128 -2.64638,6.70175 -3.16531,19.68288 -1.53458,38.38738 1.01539,11.64651 -0.22083,18.50448 -3.78572,21.00143 -1.29861,0.90957 -4.51827,1.46929 -8.45185,1.46929 -7.55172,0 -7.54883,0.004 -9.22497,-13.66291 -2.45497,-20.01786 -0.94011,-41.7776 3.92661,-56.40208 1.95148,-5.86419 2.78695,-6.9997 7.7817,-10.57637 10.52787,-7.53883 28.11575,-12.57578 52.70315,-15.09351 6.02505,-0.61696 31.18518,-1.06197 58.47746,-1.03429 26.34637,0.0267 73.53679,-0.24769 104.86761,-0.60979 36.47542,-0.42156 67.08756,-0.25126 85.10738,0.47348 15.47824,0.62252 28.33769,0.93643 28.57653,0.69758 1.00351,-1.00351 -10.78409,-6.66663 -17.83404,-8.56802 -13.88105,-3.74374 -20.24349,-4.14147 -81.23051,-5.07789 -33.27166,-0.51086 -87.26249,-1.46107 -119.97962,-2.11158 -90.37961,-1.79701 -98.6234,-1.76923 -106.36849,0.35848 -13.68442,3.75933 -25.65304,9.51878 -35.79225,17.22366 -10.24398,7.7845 -22.05568,21.04876 -50.15464,56.32248 l -30.3191,38.06076 -10.53466,0 c -8.89177,0 -10.44527,-0.23296 -9.96144,-1.49379 z"
     id="path2161"
     inkscape:connector-curvature="0" />
</svg>
