<?xml version="1.0" encoding="UTF-8" standalone="no"?>
<!-- Created with Inkscape (http://www.inkscape.org/) -->
<svg xmlns:dc="http://purl.org/dc/elements/1.1/" xmlns:cc="http://creativecommons.org/ns#" xmlns:rdf="http://www.w3.org/1999/02/22-rdf-syntax-ns#" xmlns:svg="http://www.w3.org/2000/svg" xmlns="http://www.w3.org/2000/svg" xmlns:sodipodi="http://sodipodi.sourceforge.net/DTD/sodipodi-0.dtd" xmlns:inkscape="http://www.inkscape.org/namespaces/inkscape" version="1.1" width="336.61417" height="124.01575" id="svg2" xml:space="preserve" inkscape:version="0.48.2 r9819" sodipodi:docname="dg-logo-font_sw.svg"><sodipodi:namedview pagecolor="#ffffff" bordercolor="#666666" borderopacity="1" objecttolerance="10" gridtolerance="10" guidetolerance="10" inkscape:pageopacity="0" inkscape:pageshadow="2" inkscape:window-width="1280" inkscape:window-height="717" id="namedview41" showgrid="false" inkscape:zoom="1.7632169" inkscape:cx="202.46594" inkscape:cy="62.007874" inkscape:window-x="0" inkscape:window-y="30" inkscape:window-maximized="1" inkscape:current-layer="g10" units="mm"/><metadata id="metadata8"><rdf:RDF><cc:Work rdf:about=""><dc:format>image/svg+xml</dc:format><dc:type rdf:resource="http://purl.org/dc/dcmitype/StillImage"/><dc:title/></cc:Work></rdf:RDF></metadata><defs id="defs6"/><g transform="matrix(1.25,0,0,-1.25,0,124.0157)" id="g10" style="fill:#000000">



<g id="g3127" transform="translate(-0.3535735,0)"><g transform="translate(0,-2.1402228)" id="g3094"><g transform="matrix(0,-1,1,0,0.6945,104.1875)" id="g3013" style="fill:#000000"><path inkscape:connector-curvature="0" d="m 51.499,31.905 -16.305,0 0,-16.533 16.305,0 0,16.533 z" id="path12" style="fill:#000000;fill-opacity:1;fill-rule:nonzero;stroke:none"/><path inkscape:connector-curvature="0" d="m 69.688,31.905 -16.306,0 0,-16.533 16.306,0 0,16.533 z" id="path14" style="fill:#000000;fill-opacity:1;fill-rule:nonzero;stroke:none"/><path inkscape:connector-curvature="0" d="m 33.312,50.093 -16.305,0 0,-16.533 16.305,0 0,16.533 z" id="path16" style="fill:#000000;fill-opacity:1;fill-rule:nonzero;stroke:none"/><path inkscape:connector-curvature="0" d="m 51.499,50.093 -16.305,0 0,-16.533 16.305,0 0,16.533 z" id="path18" style="fill:#000000;fill-opacity:1;fill-rule:nonzero;stroke:none"/><path inkscape:connector-curvature="0" d="m 69.688,50.093 -16.306,0 0,-16.533 16.306,0 0,16.533 z" id="path20" style="fill:#000000;fill-opacity:1;fill-rule:nonzero;stroke:none"/><path inkscape:connector-curvature="0" d="m 51.499,69.934 -16.305,0 0,-16.534 16.305,0 0,16.534 z" id="path22" style="fill:#000000;fill-opacity:1;fill-rule:nonzero;stroke:none"/><path inkscape:connector-curvature="0" d="m 69.688,69.934 -16.306,0 0,-16.534 16.306,0 0,16.534 z" id="path24" style="fill:#000000;fill-opacity:1;fill-rule:nonzero;stroke:none"/><path inkscape:connector-curvature="0" d="m 51.499,88.121 -16.305,0 0,-16.534 16.305,0 0,16.534 z" id="path26" style="fill:#000000;fill-opacity:1;fill-rule:nonzero;stroke:none"/><path inkscape:connector-curvature="0" d="m 69.688,88.121 -16.306,0 0,-16.534 16.306,0 0,16.534 z" id="path28" style="fill:#000000;fill-opacity:1;fill-rule:nonzero;stroke:none"/><path inkscape:connector-curvature="0" d="m 87.875,88.121 -16.305,0 0,-16.534 16.305,0 0,16.534 z" id="path30" style="fill:#000000;fill-opacity:1;fill-rule:nonzero;stroke:none"/></g><path inkscape:connector-curvature="0" style="font-size:22.39999962px;font-style:normal;font-variant:normal;font-weight:bold;font-stretch:normal;line-height:85.00000238%;letter-spacing:0px;word-spacing:0px;fill:#000000;fill-opacity:1;stroke:none;font-family:Alte DIN 1451 Mittelschrift;-inkscape-font-specification:Alte DIN 1451 Mittelschrift Bold" id="path2997" d="m 100.77698,53.411227 0,15.935938 5.57812,0 c 2.1802,-1.6e-5 3.79895,-0.893245 4.85625,-2.679688 0.39374,-0.678137 0.63436,-1.312512 0.72188,-1.903125 0.0875,-0.590636 0.13123,-1.720843 0.13125,-3.390625 -2e-5,-1.793756 -0.062,-2.993234 -0.18594,-3.598437 -0.11668,-0.597921 -0.35366,-1.173962 -0.71094,-1.728125 -0.47397,-0.743752 -1.12657,-1.370835 -1.95781,-1.88125 -0.82397,-0.503125 -1.82657,-0.754688 -3.00781,-0.754688 l -5.425,0 m 2.41718,13.65 0,-11.375 2.89844,0 c 1.32708,-2e-6 2.31145,0.463018 2.95313,1.389063 0.26249,0.401037 0.42655,0.831245 0.49218,1.290625 0.0729,0.466661 0.10937,1.440098 0.10938,2.920312 -1e-5,1.429158 -0.0401,2.417177 -0.12031,2.964063 -0.0729,0.546863 -0.2698,1.03905 -0.59063,1.476562 -0.66355,0.88957 -1.61146,1.334362 -2.84375,1.334375 l -2.89844,0"/><path inkscape:connector-curvature="0" style="font-size:22.39999962px;font-style:normal;font-variant:normal;font-weight:bold;font-stretch:normal;line-height:85.00000238%;letter-spacing:0px;word-spacing:0px;fill:#000000;fill-opacity:1;stroke:none;font-family:Alte DIN 1451 Mittelschrift;-inkscape-font-specification:Alte DIN 1451 Mittelschrift Bold" id="path2999" d="m 114.60823,53.411227 0,15.935938 2.41718,0 0,-15.935938 -2.41718,0"/><path inkscape:connector-curvature="0" style="font-size:22.39999962px;font-style:normal;font-variant:normal;font-weight:bold;font-stretch:normal;line-height:85.00000238%;letter-spacing:0px;word-spacing:0px;fill:#000000;fill-opacity:1;stroke:none;font-family:Alte DIN 1451 Mittelschrift;-inkscape-font-specification:Alte DIN 1451 Mittelschrift Bold" id="path3001" d="m 125.55666,59.897165 0,2.285937 5.66563,0 0,-3.248437 c -10e-6,-1.582296 -0.55053,-2.920315 -1.65156,-4.014063 -1.10106,-1.09375 -2.44637,-1.640624 -4.03594,-1.640625 -1.25417,10e-7 -2.30782,0.298959 -3.16094,0.896875 -0.84583,0.605207 -1.45469,1.257811 -1.82656,1.957813 -0.2625,0.466663 -0.44479,0.977079 -0.54688,1.53125 -0.10208,0.554162 -0.15312,1.790098 -0.15312,3.707812 0,1.917699 0.051,3.153635 0.15312,3.707813 0.10209,0.554154 0.28438,1.06457 0.54688,1.53125 0.37187,0.692694 0.98073,1.345298 1.82656,1.957812 0.85312,0.612484 1.90677,0.918734 3.16094,0.91875 1.50937,-1.6e-5 2.75624,-0.466682 3.74062,-1.4 0.99166,-0.926055 1.61145,-2.034387 1.85938,-3.325 l -2.54844,0 c -0.19688,0.612488 -0.56511,1.148425 -1.10469,1.607813 -0.5323,0.459361 -1.18125,0.689049 -1.94687,0.689062 -0.56876,-1.3e-5 -1.06094,-0.11668 -1.47656,-0.35 -0.41563,-0.233346 -0.74376,-0.503138 -0.98438,-0.809375 -0.31354,-0.408345 -0.52865,-0.856782 -0.64531,-1.345312 -0.10938,-0.488553 -0.16407,-1.549489 -0.16406,-3.182813 -1e-5,-1.640631 0.0547,-2.705213 0.16406,-3.19375 0.11666,-0.488546 0.33177,-0.929691 0.64531,-1.323437 0.24062,-0.320837 0.56875,-0.59792 0.98438,-0.83125 0.41562,-0.226044 0.9078,-0.339065 1.47656,-0.339063 0.91874,-2e-6 1.69166,0.313539 2.31875,0.940625 0.63436,0.62708 0.95155,1.443746 0.95156,2.45 l 0,0.820313 -3.24844,0"/><path inkscape:connector-curvature="0" style="font-size:22.39999962px;font-style:normal;font-variant:normal;font-weight:bold;font-stretch:normal;line-height:85.00000238%;letter-spacing:0px;word-spacing:0px;fill:#000000;fill-opacity:1;stroke:none;font-family:Alte DIN 1451 Mittelschrift;-inkscape-font-specification:Alte DIN 1451 Mittelschrift Bold" id="path3003" d="m 134.03323,53.411227 0,15.935938 2.41718,0 0,-15.935938 -2.41718,0"/><path inkscape:connector-curvature="0" style="font-size:22.39999962px;font-style:normal;font-variant:normal;font-weight:bold;font-stretch:normal;line-height:85.00000238%;letter-spacing:0px;word-spacing:0px;fill:#000000;fill-opacity:1;stroke:none;font-family:Alte DIN 1451 Mittelschrift;-inkscape-font-specification:Alte DIN 1451 Mittelschrift Bold" id="path3005" d="m 142.52073,53.411227 0,13.792188 -4.36406,0 0,2.14375 11.14531,0 0,-2.14375 -4.36407,0 0,-13.792188 -2.41718,0"/><path inkscape:connector-curvature="0" style="font-size:22.39999962px;font-style:normal;font-variant:normal;font-weight:bold;font-stretch:normal;line-height:85.00000238%;letter-spacing:0px;word-spacing:0px;fill:#000000;fill-opacity:1;stroke:none;font-family:Alte DIN 1451 Mittelschrift;-inkscape-font-specification:Alte DIN 1451 Mittelschrift Bold" id="path3007" d="m 148.83479,53.422165 5.81875,15.946875 1.99063,0 5.81875,-15.946875 -2.5375,0 -1.225,3.598437 -6.04844,0 -1.26875,-3.598437 -2.54844,0 m 4.52813,5.73125 4.61562,0 c -0.33542,0.984368 -0.60157,1.753638 -0.79844,2.307812 -0.18959,0.56145 -0.3573,1.057283 -0.50312,1.4875 -0.13855,0.430199 -0.28074,0.867698 -0.42656,1.3125 -0.14584,0.444781 -0.33907,1.046342 -0.57969,1.804688 -0.25522,-0.787512 -0.45938,-1.418241 -0.6125,-1.892188 -0.15313,-0.466677 -0.30261,-0.91876 -0.44844,-1.35625 -0.13855,-0.437509 -0.30261,-0.92605 -0.49219,-1.465625 -0.18229,-0.53959 -0.43386,-1.272402 -0.75468,-2.198437"/><path inkscape:connector-curvature="0" style="font-size:22.39999962px;font-style:normal;font-variant:normal;font-weight:bold;font-stretch:normal;line-height:85.00000238%;letter-spacing:0px;word-spacing:0px;fill:#000000;fill-opacity:1;stroke:none;font-family:Alte DIN 1451 Mittelschrift;-inkscape-font-specification:Alte DIN 1451 Mittelschrift Bold" id="path3009" d="m 164.46448,53.411227 0,15.935938 2.41718,0 0,-13.660938 7.77657,0 0,-2.275 -10.19375,0"/><path inkscape:connector-curvature="0" style="font-size:22.39999962px;font-style:normal;font-variant:normal;font-weight:bold;font-stretch:normal;line-height:85.00000238%;letter-spacing:0px;word-spacing:0px;fill:#000000;fill-opacity:1;stroke:none;font-family:Alte DIN 1451 Mittelschrift;-inkscape-font-specification:Alte DIN 1451 Mittelschrift Bold" id="path3011" d="m 176.93323,53.411227 0,15.935938 10.19375,0 0,-2.285938 -7.77657,0 0,-4.539062 6.62813,0 0,-2.154688 -6.62813,0 0,-4.68125 7.77657,0 0,-2.275 -10.19375,0"/><path inkscape:connector-curvature="0" style="font-size:22.39999962px;font-style:normal;font-variant:normal;font-weight:bold;font-stretch:normal;line-height:85.00000238%;letter-spacing:0px;word-spacing:0px;fill:#000000;fill-opacity:1;stroke:none;font-family:Alte DIN 1451 Mittelschrift;-inkscape-font-specification:Alte DIN 1451 Mittelschrift Bold" id="path3013" d="m 105.95041,40.857165 0,2.285937 5.66563,0 0,-3.248437 c -1e-5,-1.582296 -0.55053,-2.920315 -1.65156,-4.014063 -1.10105,-1.09375 -2.44637,-1.640625 -4.03594,-1.640625 -1.25417,0 -2.30782,0.298958 -3.16094,0.896875 -0.84583,0.605207 -1.45469,1.257811 -1.82656,1.957813 -0.2625,0.466663 -0.44479,0.977079 -0.54687,1.53125 -0.10209,0.554161 -0.15313,1.790098 -0.15313,3.707812 0,1.917699 0.051,3.153635 0.15313,3.707813 0.10208,0.554154 0.28437,1.06457 0.54687,1.531249 0.37187,0.692695 0.98073,1.345298 1.82656,1.957813 0.85312,0.612484 1.90677,0.918734 3.16094,0.91875 1.50937,-1.6e-5 2.75624,-0.466682 3.74062,-1.4 0.99166,-0.926055 1.61145,-2.034388 1.85938,-3.325 l -2.54844,0 c -0.19688,0.612488 -0.56511,1.148425 -1.10469,1.607812 -0.5323,0.459362 -1.18125,0.689049 -1.94687,0.689063 -0.56876,-1.4e-5 -1.06094,-0.11668 -1.47656,-0.35 -0.41563,-0.233346 -0.74376,-0.503138 -0.98438,-0.809375 -0.31354,-0.408345 -0.52865,-0.856782 -0.64531,-1.345312 -0.10938,-0.488553 -0.16407,-1.549489 -0.16406,-3.182813 -1e-5,-1.640631 0.0547,-2.705213 0.16406,-3.19375 0.11666,-0.488546 0.33177,-0.929691 0.64531,-1.323437 0.24062,-0.320837 0.56875,-0.59792 0.98438,-0.83125 0.41562,-0.226044 0.9078,-0.339065 1.47656,-0.339063 0.91874,-2e-6 1.69166,0.313539 2.31875,0.940625 0.63437,0.62708 0.95155,1.443745 0.95156,2.45 l 0,0.820313 -3.24844,0"/><path inkscape:connector-curvature="0" style="font-size:22.39999962px;font-style:normal;font-variant:normal;font-weight:bold;font-stretch:normal;line-height:85.00000238%;letter-spacing:0px;word-spacing:0px;fill:#000000;fill-opacity:1;stroke:none;font-family:Alte DIN 1451 Mittelschrift;-inkscape-font-specification:Alte DIN 1451 Mittelschrift Bold" id="path3015" d="m 113.92698,34.371227 0,15.935937 10.19375,0 0,-2.285937 -7.77657,0 0,-4.539062 6.62813,0 0,-2.154688 -6.62813,0 0,-4.68125 7.77657,0 0,-2.275 -10.19375,0"/><path inkscape:connector-curvature="0" style="font-size:22.39999962px;font-style:normal;font-variant:normal;font-weight:bold;font-stretch:normal;line-height:85.00000238%;letter-spacing:0px;word-spacing:0px;fill:#000000;fill-opacity:1;stroke:none;font-family:Alte DIN 1451 Mittelschrift;-inkscape-font-specification:Alte DIN 1451 Mittelschrift Bold" id="path3017" d="m 125.50666,36.427477 1.59688,1.815625 c 0.59791,-0.481253 1.28698,-0.867711 2.06719,-1.159375 0.7802,-0.291669 1.59687,-0.437502 2.45,-0.4375 0.98436,-2e-6 1.75728,0.204164 2.31875,0.6125 0.56145,0.40833 0.84217,0.944267 0.84218,1.607813 -10e-6,1.254161 -0.69271,1.972389 -2.07812,2.154687 -0.36459,0.04374 -0.70365,0.08749 -1.01719,0.13125 -0.31355,0.04374 -0.67813,0.09479 -1.09375,0.153125 -1.37813,0.189576 -2.42813,0.692701 -3.15,1.509375 -0.72187,0.823949 -1.08281,1.815615 -1.08281,2.975 0,1.356237 0.45208,2.471861 1.35625,3.346875 0.91145,0.874984 2.19114,1.312484 3.83906,1.3125 0.98437,-1.6e-5 1.91041,-0.156787 2.77813,-0.470313 0.8677,-0.313557 1.66613,-0.710952 2.39531,-1.192187 l -1.34531,-1.990625 c -0.58335,0.364571 -1.21043,0.659883 -1.88125,0.885937 -0.67084,0.226029 -1.35626,0.339049 -2.05625,0.339063 -0.74376,-1.4e-5 -1.37449,-0.189597 -1.89219,-0.56875 -0.51771,-0.379179 -0.77657,-0.947929 -0.77656,-1.70625 -1e-5,-0.452094 0.17499,-0.87501 0.525,-1.26875 0.34999,-0.39376 0.92968,-0.652614 1.73906,-0.776562 0.21145,-0.03647 0.46666,-0.07657 0.76562,-0.120313 0.29896,-0.03647 0.64166,-0.07657 1.02813,-0.120312 1.48749,-0.182301 2.58489,-0.721884 3.29219,-1.61875 0.71457,-0.896882 1.07186,-1.888548 1.07187,-2.975 -1e-5,-1.465628 -0.50678,-2.603127 -1.52031,-3.4125 -1.01355,-0.809376 -2.37345,-1.214063 -4.07969,-1.214063 -2.39896,0 -4.42969,0.729166 -6.09219,2.1875"/><path inkscape:connector-curvature="0" style="font-size:22.39999962px;font-style:normal;font-variant:normal;font-weight:bold;font-stretch:normal;line-height:85.00000238%;letter-spacing:0px;word-spacing:0px;fill:#000000;fill-opacity:1;stroke:none;font-family:Alte DIN 1451 Mittelschrift;-inkscape-font-specification:Alte DIN 1451 Mittelschrift Bold" id="path3019" d="m 139.75823,34.371227 0,15.935937 10.19375,0 0,-2.285937 -7.77656,0 0,-4.539062 6.62812,0 0,-2.154688 -6.62812,0 0,-4.68125 7.77656,0 0,-2.275 -10.19375,0"/><path inkscape:connector-curvature="0" style="font-size:22.39999962px;font-style:normal;font-variant:normal;font-weight:bold;font-stretch:normal;line-height:85.00000238%;letter-spacing:0px;word-spacing:0px;fill:#000000;fill-opacity:1;stroke:none;font-family:Alte DIN 1451 Mittelschrift;-inkscape-font-specification:Alte DIN 1451 Mittelschrift Bold" id="path3021" d="m 152.22698,34.371227 0,15.935937 2.41719,0 0,-13.660937 7.77656,0 0,-2.275 -10.19375,0"/><path inkscape:connector-curvature="0" style="font-size:22.39999962px;font-style:normal;font-variant:normal;font-weight:bold;font-stretch:normal;line-height:85.00000238%;letter-spacing:0px;word-spacing:0px;fill:#000000;fill-opacity:1;stroke:none;font-family:Alte DIN 1451 Mittelschrift;-inkscape-font-specification:Alte DIN 1451 Mittelschrift Bold" id="path3023" d="m 164.69573,34.371227 0,15.935937 2.41719,0 0,-13.660937 7.77656,0 0,-2.275 -10.19375,0"/><path inkscape:connector-curvature="0" style="font-size:22.39999962px;font-style:normal;font-variant:normal;font-weight:bold;font-stretch:normal;line-height:85.00000238%;letter-spacing:0px;word-spacing:0px;fill:#000000;fill-opacity:1;stroke:none;font-family:Alte DIN 1451 Mittelschrift;-inkscape-font-specification:Alte DIN 1451 Mittelschrift Bold" id="path3025" d="m 176.07542,36.427477 1.59687,1.815625 c 0.59791,-0.481253 1.28698,-0.867711 2.06719,-1.159375 0.7802,-0.291669 1.59687,-0.437502 2.45,-0.4375 0.98437,-2e-6 1.75728,0.204164 2.31875,0.6125 0.56145,0.40833 0.84218,0.944267 0.84218,1.607813 0,1.254161 -0.69271,1.972389 -2.07812,2.154687 -0.36459,0.04374 -0.70365,0.08749 -1.01719,0.13125 -0.31355,0.04374 -0.67813,0.09479 -1.09375,0.153125 -1.37813,0.189576 -2.42813,0.692701 -3.15,1.509375 -0.72187,0.823949 -1.08281,1.815615 -1.08281,2.975 0,1.356237 0.45208,2.471861 1.35625,3.346875 0.91145,0.874984 2.19114,1.312484 3.83906,1.3125 0.98437,-1.6e-5 1.91041,-0.156787 2.77813,-0.470313 0.8677,-0.313557 1.66613,-0.710952 2.39531,-1.192187 l -1.34531,-1.990625 c -0.58335,0.364571 -1.21043,0.659883 -1.88125,0.885937 -0.67084,0.226029 -1.35626,0.339049 -2.05625,0.339063 -0.74376,-1.4e-5 -1.37449,-0.189597 -1.89219,-0.56875 -0.51771,-0.379179 -0.77657,-0.947929 -0.77656,-1.70625 -1e-5,-0.452094 0.17499,-0.87501 0.525,-1.26875 0.34999,-0.39376 0.92968,-0.652614 1.73906,-0.776562 0.21145,-0.03647 0.46666,-0.07657 0.76562,-0.120313 0.29896,-0.03647 0.64166,-0.07657 1.02813,-0.120312 1.48749,-0.182301 2.58489,-0.721884 3.29219,-1.61875 0.71457,-0.896882 1.07186,-1.888548 1.07187,-2.975 -10e-6,-1.465628 -0.50678,-2.603127 -1.52031,-3.4125 -1.01355,-0.809376 -2.37345,-1.214063 -4.07969,-1.214063 -2.39896,0 -4.42969,0.729166 -6.09218,2.1875"/><path inkscape:connector-curvature="0" style="font-size:22.39999962px;font-style:normal;font-variant:normal;font-weight:bold;font-stretch:normal;line-height:85.00000238%;letter-spacing:0px;word-spacing:0px;fill:#000000;fill-opacity:1;stroke:none;font-family:Alte DIN 1451 Mittelschrift;-inkscape-font-specification:Alte DIN 1451 Mittelschrift Bold" id="path3027" d="m 198.2301,38.82279 2.54844,0 c -0.31355,-1.487503 -0.98439,-2.625002 -2.0125,-3.4125 -1.02813,-0.780209 -2.22397,-1.170313 -3.5875,-1.170313 -1.25417,0 -2.30782,0.298958 -3.16094,0.896875 -0.84583,0.605207 -1.45469,1.257811 -1.82656,1.957813 -0.2625,0.466663 -0.44479,0.977079 -0.54687,1.53125 -0.10209,0.554161 -0.15313,1.790098 -0.15313,3.707812 0,1.917699 0.051,3.153635 0.15313,3.707813 0.10208,0.554154 0.28437,1.06457 0.54687,1.531249 0.37187,0.692695 0.98073,1.345298 1.82656,1.957813 0.85312,0.612484 1.90677,0.918734 3.16094,0.91875 1.50937,-1.6e-5 2.75624,-0.466682 3.74062,-1.4 0.99166,-0.926055 1.61145,-2.034388 1.85938,-3.325 l -2.54844,0 c -0.19688,0.612488 -0.56511,1.148425 -1.10469,1.607812 -0.5323,0.459362 -1.18125,0.689049 -1.94687,0.689063 -0.56876,-1.4e-5 -1.06094,-0.11668 -1.47656,-0.35 -0.41563,-0.233346 -0.74376,-0.503138 -0.98438,-0.809375 -0.31354,-0.408345 -0.52865,-0.856782 -0.64531,-1.345312 -0.10938,-0.488553 -0.16407,-1.549489 -0.16406,-3.182813 -1e-5,-1.640631 0.0547,-2.705213 0.16406,-3.19375 0.11666,-0.488546 0.33177,-0.929691 0.64531,-1.323437 0.24062,-0.320837 0.56875,-0.59792 0.98438,-0.83125 0.41562,-0.226044 0.9078,-0.339065 1.47656,-0.339063 1.34166,-2e-6 2.35884,0.725518 3.05156,2.176563"/><path inkscape:connector-curvature="0" style="font-size:22.39999962px;font-style:normal;font-variant:normal;font-weight:bold;font-stretch:normal;line-height:85.00000238%;letter-spacing:0px;word-spacing:0px;fill:#000000;fill-opacity:1;stroke:none;font-family:Alte DIN 1451 Mittelschrift;-inkscape-font-specification:Alte DIN 1451 Mittelschrift Bold" id="path3029" d="m 211.63479,34.371227 0,6.95625 -6.32187,0 0,-6.95625 -2.41719,0 0,15.935937 2.41719,0 0,-6.824999 6.32187,0 0,6.824999 2.41719,0 0,-15.935937 -2.41719,0"/><path inkscape:connector-curvature="0" style="font-size:22.39999962px;font-style:normal;font-variant:normal;font-weight:bold;font-stretch:normal;line-height:85.00000238%;letter-spacing:0px;word-spacing:0px;fill:#000000;fill-opacity:1;stroke:none;font-family:Alte DIN 1451 Mittelschrift;-inkscape-font-specification:Alte DIN 1451 Mittelschrift Bold" id="path3031" d="m 215.44729,34.382165 5.81875,15.946874 1.99062,0 5.81875,-15.946874 -2.5375,0 -1.225,3.598437 -6.04843,0 -1.26875,-3.598437 -2.54844,0 m 4.52812,5.73125 4.61563,0 c -0.33543,0.984368 -0.60157,1.753638 -0.79844,2.307812 -0.18959,0.56145 -0.3573,1.057283 -0.50312,1.4875 -0.13855,0.430198 -0.28074,0.867698 -0.42657,1.3125 -0.14584,0.44478 -0.33906,1.046342 -0.57968,1.804687 -0.25522,-0.787511 -0.45938,-1.41824 -0.6125,-1.892187 -0.15313,-0.466677 -0.30261,-0.91876 -0.44844,-1.35625 -0.13855,-0.437509 -0.30261,-0.92605 -0.49219,-1.465625 -0.18229,-0.539591 -0.43386,-1.272402 -0.75469,-2.198437"/><path inkscape:connector-curvature="0" style="font-size:22.39999962px;font-style:normal;font-variant:normal;font-weight:bold;font-stretch:normal;line-height:85.00000238%;letter-spacing:0px;word-spacing:0px;fill:#000000;fill-opacity:1;stroke:none;font-family:Alte DIN 1451 Mittelschrift;-inkscape-font-specification:Alte DIN 1451 Mittelschrift Bold" id="path3033" d="m 230.97697,34.371227 0,15.935937 10.19375,0 0,-2.285937 -7.77656,0 0,-4.692187 6.62813,0 0,-2.154688 -6.62813,0 0,-6.803125 -2.41719,0"/><path inkscape:connector-curvature="0" style="font-size:22.39999962px;font-style:normal;font-variant:normal;font-weight:bold;font-stretch:normal;line-height:85.00000238%;letter-spacing:0px;word-spacing:0px;fill:#000000;fill-opacity:1;stroke:none;font-family:Alte DIN 1451 Mittelschrift;-inkscape-font-specification:Alte DIN 1451 Mittelschrift Bold" id="path3035" d="m 247.15073,34.371227 0,13.792187 -4.36406,0 0,2.14375 11.14531,0 0,-2.14375 -4.36406,0 0,-13.792187 -2.41719,0"/></g></g>

</g></svg>