<?xml version="1.0" encoding="UTF-8" standalone="no"?>
<!-- Created with Inkscape (http://www.inkscape.org/) -->

<svg
   xmlns:dc="http://purl.org/dc/elements/1.1/"
   xmlns:cc="http://creativecommons.org/ns#"
   xmlns:rdf="http://www.w3.org/1999/02/22-rdf-syntax-ns#"
   xmlns:svg="http://www.w3.org/2000/svg"
   xmlns="http://www.w3.org/2000/svg"
   xmlns:sodipodi="http://sodipodi.sourceforge.net/DTD/sodipodi-0.dtd"
   xmlns:inkscape="http://www.inkscape.org/namespaces/inkscape"
   version="1.0"
   width="357.4743"
   height="314.23041"
   id="svg3978"
   sodipodi:version="0.32"
   inkscape:version="0.91 r13725"
   sodipodi:docname="freifunk.svg"
   inkscape:output_extension="org.inkscape.output.svg.inkscape">
  <metadata
     id="metadata13">
    <rdf:RDF>
      <cc:Work
         rdf:about="">
        <dc:format>image/svg+xml</dc:format>
        <dc:type
           rdf:resource="http://purl.org/dc/dcmitype/StillImage" />
        <dc:title></dc:title>
      </cc:Work>
    </rdf:RDF>
  </metadata>
  <sodipodi:namedview
     inkscape:window-height="755"
     inkscape:window-width="1242"
     inkscape:pageshadow="2"
     inkscape:pageopacity="0.0"
     guidetolerance="10.0"
     gridtolerance="10.0"
     objecttolerance="10.0"
     borderopacity="1.0"
     bordercolor="#666666"
     pagecolor="#ffffff"
     id="base"
     showgrid="false"
     fit-margin-top="20"
     fit-margin-left="20"
     fit-margin-right="20"
     fit-margin-bottom="20"
     inkscape:zoom="0.86059019"
     inkscape:cx="178.73715"
     inkscape:cy="157.1152"
     inkscape:window-x="38"
     inkscape:window-y="1"
     inkscape:window-maximized="1"
     inkscape:current-layer="svg3978" />
  <defs
     id="defs3980">
    <inkscape:perspective
       sodipodi:type="inkscape:persp3d"
       inkscape:vp_x="0 : 137.1152 : 1"
       inkscape:vp_y="0 : 1000 : 0"
       inkscape:vp_z="317.4743 : 137.1152 : 1"
       inkscape:persp3d-origin="158.73715 : 91.410136 : 1"
       id="perspective15" />
  </defs>
  <path
     style="fill:#e10074;fill-opacity:1;stroke:none;stroke-width:0.05;stroke-miterlimit:4;stroke-dasharray:none;stroke-opacity:1"
     id="path3724"
     d="M 97.22349,86.9268 C 54.61493,86.9268 20,121.5418 20,164.1504 c 0,42.6086 34.61493,77.2235 77.22349,77.2235 42.60861,0 77.22347,-34.6149 77.22347,-77.2235 0,-42.6086 -34.61486,-77.2236 -77.22347,-77.2236 z m 0,3.4322 c 40.75156,0 73.79135,33.0398 73.79135,73.7914 0,40.7516 -33.03979,73.7914 -73.79135,73.7914 -40.75162,0 -73.79131,-33.0398 -73.79131,-73.7914 0,-40.7516 33.03969,-73.7914 73.79131,-73.7914 z"
     inkscape:connector-curvature="0" />
  <path
     style="fill:#e10074;fill-opacity:1;stroke:none;stroke-width:0.05;stroke-miterlimit:4;stroke-dasharray:none;stroke-opacity:1"
     id="path3726"
     d="m 227.64535,52.6055 c -42.60894,0 -77.22346,34.6146 -77.22346,77.2235 0,42.6086 34.61452,77.2233 77.22346,77.2233 42.60896,0 77.22348,-34.6147 77.22348,-77.2233 0,-42.6089 -34.61452,-77.2235 -77.22348,-77.2235 z m 0,3.4321 c 40.75124,0 73.79132,33.04 73.79132,73.7914 0,40.7512 -33.04008,73.7911 -73.79132,73.7911 -40.75122,0 -73.7913,-33.0399 -73.7913,-73.7911 0,-40.7514 33.04008,-73.7914 73.7913,-73.7914 z"
     inkscape:connector-curvature="0" />
  <path
     style="fill:#e10074;fill-opacity:1;stroke:none;stroke-width:0.05;stroke-miterlimit:4;stroke-dasharray:none;stroke-opacity:1"
     id="path3728"
     d="m 227.64535,20 c -60.51293,0 -109.82892,49.3159 -109.82892,109.829 0,60.5128 49.31599,109.8288 109.82892,109.8288 60.51298,0 109.82894,-49.316 109.82894,-109.8288 C 337.47429,69.3159 288.15833,20 227.64535,20 Z m 0,20.5928 c 49.37086,0 89.23599,39.8652 89.23599,89.2362 0,49.3706 -39.86513,89.236 -89.23599,89.236 -49.37088,0 -89.23601,-39.8654 -89.23601,-89.236 0,-49.371 39.86513,-89.2362 89.23601,-89.2362 z"
     inkscape:connector-curvature="0" />
  <path
     style="fill:#ffcb05;fill-opacity:1;fill-rule:nonzero;stroke:none;stroke-width:0.05;stroke-linecap:butt;stroke-linejoin:miter;stroke-miterlimit:4;stroke-dasharray:none;stroke-opacity:1"
     id="path3730"
     d="m 225.3856,119.5095 c -2.3476,0.2516 -3.50906,2.64 -5.20584,4.0189 -8.38885,8.4761 -16.877,16.8622 -25.20378,25.3944 -1.52271,2.2978 0.95871,4.0268 2.38087,5.4909 8.82823,8.7743 17.55362,17.6626 26.44616,26.3649 2.23566,0.8792 4.76177,0.2895 7.13278,0.4615 4.80194,-0.0372 9.61115,0.0752 14.40849,-0.0569 3.3039,-0.6584 2.54467,-4.5387 0.25718,-5.9164 -4.86796,-4.8678 -9.73601,-9.7357 -14.60396,-14.6033 14.11589,-0.032 28.24723,0.458 42.31631,-0.0479 2.2767,-0.0816 2.43114,-2.6419 2.41185,-4.6185 0,-4.3682 0.0334,-8.7367 0.0334,-13.1049 -0.0883,-1.4049 -0.66864,-1.8941 -1.46563,-2.3246 -0.79996,-0.4328 -0.81094,-0.4609 -2.73943,-0.5981 -13.10127,0 -27.45524,0.2505 -40.5565,0.2505 5.25564,-5.2557 10.51115,-10.5111 15.76674,-15.7668 2.27889,-2.031 1.02768,-4.9491 -2.62089,-4.9437 -6.25257,0 -12.50519,0 -18.75775,0 z"
     inkscape:connector-curvature="0" />
  <path
     style="fill:#0d96d0;fill-opacity:1;fill-rule:nonzero;stroke:none;stroke-width:0.05;stroke-linecap:butt;stroke-linejoin:bevel;stroke-miterlimit:4;stroke-dasharray:none;stroke-opacity:1"
     id="path3732"
     d="m 80.25251,130.1673 c 1.46366,0.1642 2.18772,1.727 3.24553,2.6292 5.23017,5.5461 10.52211,11.0326 15.71358,16.6154 0.94938,1.5033 -0.59775,2.6348 -1.48437,3.5926 -5.50402,5.741 -10.94395,11.5564 -16.48808,17.2503 -1.3938,0.5752 -2.96876,0.1894 -4.44697,0.3018 -2.99383,-0.0242 -5.99214,0.0493 -8.98314,-0.0371 -2.05984,-0.431 -1.58642,-2.9694 -0.16026,-3.8708 3.03497,-3.1854 6.06992,-6.3704 9.10487,-9.5549 -8.80066,-0.021 -17.61092,0.2996 -26.38237,-0.0312 -1.4195,-0.0535 -1.51575,-1.7292 -1.50373,-3.0222 0,-2.8579 -0.02077,-5.7163 -0.02077,-8.5741 0.05506,-0.9197 0.41683,-1.2396 0.91379,-1.5214 0.49869,-0.283 0.50557,-0.3013 1.70781,-0.3912 8.16815,0 17.11726,0.1638 25.28527,0.1638 -3.27661,-3.4386 -6.55328,-6.8771 -9.82986,-10.3161 -1.42078,-1.3284 -0.64072,-3.238 1.63402,-3.2341 3.89822,0 7.79645,0 11.69468,0 z"
     inkscape:connector-curvature="0" />
  <path
     style="font-style:normal;font-variant:normal;font-weight:bold;font-stretch:normal;font-size:50.880867px;line-height:100%;font-family:Arial;-inkscape-font-specification:'Arial Bold';text-align:start;writing-mode:lr-tb;text-anchor:start;fill:#909090;fill-opacity:1;stroke:none;stroke-width:0.05;stroke-linecap:butt;stroke-linejoin:miter;stroke-miterlimit:4;stroke-opacity:1"
     d="m 84.103899,266.5043 2.409885,0 c 0.01656,-3.54441 0.07453,-5.6396 0.173909,-6.28558 0.182188,-1.49061 0.807432,-2.67071 1.875735,-3.54029 1.068294,-0.86951 2.579646,-1.30428 4.534062,-1.30432 1.407826,4e-5 2.997851,0.32301 4.770081,0.96892 l 0,5.16759 c -0.977217,-0.28153 -1.780511,-0.42232 -2.409885,-0.42235 -0.795024,3e-5 -1.374721,0.16566 -1.739092,0.49688 -0.265014,0.24848 -0.397516,0.76192 -0.397507,1.54034 l -0.02484,3.37881 4.298042,0 0,5.76385 -4.298042,0 0,21.26661 -6.782459,0 0,-21.26661 -2.409885,0 0,-5.76385 z m 15.850582,0 5.813539,0 0,3.40365 c 0.62938,-1.34156 1.46579,-2.36017 2.50926,-3.05583 1.04344,-0.69561 2.18627,-1.04343 3.42849,-1.04346 0.87782,3e-5 1.79705,0.23191 2.75771,0.69564 l -2.11176,5.83838 c -0.79502,-0.39749 -1.44925,-0.59624 -1.96269,-0.59626 -1.04346,2e-5 -1.92543,0.64597 -2.6459,1.93785 -0.72049,1.29191 -1.08073,3.82601 -1.08072,7.60231 l 0.0248,1.31674 0,10.93144 -6.732773,0 0,-27.03046 z m 44.967949,15.47792 -21.78834,0 c 0.31469,1.92129 1.15525,3.44921 2.52169,4.58375 1.36641,1.13456 3.10965,1.70183 5.2297,1.70182 2.53408,1e-5 4.71209,-0.8861 6.53401,-2.65832 l 5.71416,2.68317 c -1.42442,2.02066 -3.13039,3.51545 -5.1179,4.48437 -1.98755,0.96892 -4.34775,1.45339 -7.08059,1.45339 -4.24008,0 -7.69342,-1.33745 -10.36002,-4.01234 -2.66661,-2.67488 -3.99991,-6.0247 -3.99991,-10.04947 0,-4.12411 1.32916,-7.54846 3.98749,-10.27306 2.65832,-2.72455 5.99158,-4.08684 9.99978,-4.08687 4.25662,3e-5 7.71823,1.36232 10.38487,4.08687 2.66658,2.7246 3.99988,6.32286 3.99991,10.79479 l -0.0249,1.2919 z m -6.8073,-5.3415 c -0.44722,-1.50719 -1.32918,-2.73284 -2.6459,-3.67694 -1.31676,-0.94405 -2.84468,-1.41609 -4.58375,-1.41611 -1.88818,2e-5 -3.54445,0.53003 -4.96884,1.59002 -0.8944,0.66253 -1.72254,1.83021 -2.48442,3.50303 l 14.68291,0 z m 14.98104,-21.26661 c 1.19251,4e-5 2.21526,0.43067 3.06825,1.2919 0.85298,0.8613 1.27947,1.90475 1.27948,3.13036 -1e-5,1.20912 -0.42236,2.24015 -1.26706,3.0931 -0.84471,0.85301 -1.85504,1.27951 -3.03099,1.27948 -1.20908,3e-5 -2.24012,-0.43475 -3.09309,-1.30432 -0.85299,-0.86952 -1.27948,-1.92539 -1.27948,-3.16763 0,-1.19249 0.42235,-2.2111 1.26705,-3.05584 0.8447,-0.84466 1.86331,-1.26701 3.05584,-1.26705 l 0,0 z m -3.40366,11.13019 6.80731,0 0,27.03046 -6.80731,0 0,-27.03046 z m 9.73892,0 2.40988,0 c 0.0166,-3.54441 0.0745,-5.6396 0.17391,-6.28558 0.18219,-1.49061 0.80743,-2.67071 1.87574,-3.54029 1.06829,-0.86951 2.57964,-1.30428 4.53406,-1.30432 1.40783,4e-5 2.99785,0.32301 4.77008,0.96892 l 0,5.16759 c -0.97722,-0.28153 -1.78051,-0.42232 -2.40988,-0.42235 -0.79503,3e-5 -1.37473,0.16566 -1.7391,0.49688 -0.26501,0.24848 -0.39751,0.76192 -0.3975,1.54034 l -0.0248,3.37881 4.29804,0 0,5.76385 -4.29804,0 0,21.26661 -6.78246,0 0,-21.26661 -2.40988,0 0,-5.76385 z m 17.41577,0 6.85699,0 0,13.01835 c -1e-5,2.53411 0.1739,4.29391 0.52173,5.27938 0.3478,0.9855 0.9068,1.75152 1.67698,2.29809 0.77015,0.54658 1.71837,0.81986 2.84466,0.81986 1.12625,0 2.08275,-0.26914 2.8695,-0.80744 0.78671,-0.53828 1.37055,-1.32915 1.75151,-2.37262 0.28155,-0.77844 0.42233,-2.443 0.42235,-4.99368 l 0,-13.24194 6.80731,0 0,11.45316 c -3e-5,4.72041 -0.37269,7.95015 -1.11799,9.68923 -0.91098,2.12004 -2.25256,3.74733 -4.02476,4.88188 -1.77224,1.13455 -4.02477,1.70183 -6.75761,1.70183 -2.96475,0 -5.36221,-0.66251 -7.19239,-1.98754 -1.8302,-1.32502 -3.11795,-3.17177 -3.86327,-5.54025 -0.53001,-1.63971 -0.79502,-4.621 -0.79501,-8.9439 l 0,-11.25441 z m 30.53348,0 6.75762,0 0,2.7577 c 1.54033,-1.29187 2.93574,-2.1904 4.18624,-2.69559 1.25048,-0.50514 2.52995,-0.75772 3.83843,-0.75775 2.68315,3e-5 4.96053,0.93583 6.83215,2.80739 1.57343,1.59005 2.36016,3.94197 2.36019,7.05575 l 0,17.86296 -6.70793,0 0,-11.85067 c -2e-5,-3.22973 -0.14494,-5.37461 -0.43477,-6.43464 -0.28987,-1.06 -0.79503,-1.86744 -1.51549,-2.42231 -0.7205,-0.55483 -1.61075,-0.83226 -2.67075,-0.83228 -1.37473,2e-5 -2.55482,0.45964 -3.5403,1.37885 -0.98549,0.91926 -1.66871,2.19045 -2.04964,3.81358 -0.19876,0.84472 -0.29814,2.67491 -0.29813,5.49057 l 0,10.8569 -6.75762,0 0,-27.03046 z m 30.55834,-10.43455 6.78246,0 0,21.58958 9.98736,-11.15503 8.49671,0 -11.62707,12.96866 13.04319,14.0618 -8.42218,0 -11.47801,-12.44693 0,12.44693 -6.78246,0 0,-37.46501 z"
     id="text3734"
     inkscape:connector-curvature="0" />
</svg>
