<?xml version="1.0" encoding="utf-8"?>
<!-- Generator: Adobe Illustrator 16.0.4, SVG Export Plug-In . SVG Version: 6.00 Build 0)  -->
<!DOCTYPE svg PUBLIC "-//W3C//DTD SVG 1.1//EN" "http://www.w3.org/Graphics/SVG/1.1/DTD/svg11.dtd">
<svg version="1.1"
	 id="svg2" xmlns:dc="http://purl.org/dc/elements/1.1/" xmlns:cc="http://creativecommons.org/ns#" xmlns:rdf="http://www.w3.org/1999/02/22-rdf-syntax-ns#" xmlns:svg="http://www.w3.org/2000/svg"
	 xmlns="http://www.w3.org/2000/svg" xmlns:xlink="http://www.w3.org/1999/xlink" x="0px" y="0px" width="80px" height="57.5px"
	 viewBox="0 0 80 57.5" enable-background="new 0 0 80 57.5" xml:space="preserve">
<path id="path22" fill="#FFFFFF" d="M14.742,26.488c0.085-0.224,3.363-4.772,4.093-5.68c1.5-1.869,3.694-4.167,4.522-4.744
	c0.616-0.429,1.708-0.78,2.774-0.895c1.269-0.136,11.708-0.131,19.792,0.008c6.858,0.122,6.67,0.104,8.629,0.724
	c0.604,0.194,1.115,0.333,1.137,0.311c0.021-0.02-0.072-0.18-0.205-0.355c-0.314-0.415-1.015-0.873-1.748-1.147
	c-1.223-0.458-1.635-0.487-8.617-0.59c-6.293-0.094-9.124-0.159-16.654-0.394l-3.529-0.107l-0.525-0.262
	c-0.921-0.459-1.658-1.27-5.296-5.827c-1.931-2.42-3.512-4.422-3.512-4.45c0-0.089,2.01,0.075,2.135,0.176
	c0.073,0.055,1.01,1.279,2.086,2.719c2.32,3.104,3.012,3.942,4.081,4.947c1.056,0.995,1.428,1.24,2.087,1.379
	c1.271,0.268,4.727,0.331,12.46,0.225c8.963-0.122,11.966-0.058,13.365,0.288c1.118,0.273,2.49,0.751,3.349,1.161
	c0.363,0.176,0.676,0.3,0.695,0.284c0.082-0.086-0.268-0.583-0.68-0.97c-1.297-1.21-3.226-1.966-5.642-2.205
	c-0.968-0.096-6.518-0.141-10.136-0.082c-1.13,0.02-3.381,0.034-5.001,0.032c-2.649-0.001-3.059-0.022-4.047-0.2
	c-1.31-0.236-2.772-0.705-3.634-1.166c-0.516-0.277-0.656-0.401-0.821-0.732c-0.471-0.953-0.52-3.539-0.109-5.602l0.095-0.47h0.708
	c0.39,0,0.714,0.011,0.721,0.022c0.008,0.013,0.042,1.009,0.071,2.211c0.062,2.395,0.09,2.542,0.631,3.159
	c0.395,0.447,0.643,0.56,1.477,0.672c1.77,0.239,3.124,0.277,9.565,0.276c3.976-0.001,7.26,0.036,7.904,0.091
	c3.023,0.256,5.443,0.86,7.55,1.884c1.021,0.497,1.137,0.58,1.863,1.355c1.371,1.454,2.697,3.4,3.457,5.065l0.345,0.76l-0.032-0.543
	c-0.07-1.214-1.859-4.174-4.656-7.71c-0.521-0.66-0.949-1.23-0.949-1.268c0-0.13,0.396-0.348,0.627-0.348
	c0.408,0,1.461,0.711,1.939,1.306c2.438,3.053,3.964,5.539,4.674,7.623c0.158,0.469,0.384,0.95,0.5,1.073l0.209,0.22l0.271-0.27
	l0.27-0.27l-0.232-0.8c-0.517-1.788-1.078-2.89-3.246-6.374c-1.658-2.657-1.666-2.688-0.944-2.688c0.315,0,0.504,0.083,1.039,0.446
	c0.36,0.245,0.719,0.497,0.798,0.56c0.226,0.18,2.016,3.212,2.636,4.471c0.315,0.636,0.714,1.624,0.892,2.194
	c0.466,1.511,0.469,1.514,0.977,1.067c0.326-0.285,0.332-0.301,0.278-0.787c-0.122-1.131-0.771-3.162-1.542-4.815
	c-0.216-0.46-0.39-0.894-0.39-0.96c0-0.066,0.115-0.249,0.258-0.409c0.247-0.279,0.269-0.284,0.513-0.157
	c0.416,0.215,1.129,0.992,1.432,1.565c0.156,0.291,0.514,1.306,0.795,2.25c0.279,0.947,0.541,1.721,0.583,1.721
	c0.038,0,0.202-0.167,0.364-0.371c0.751-0.94,1.021-1.073,1.396-0.673c0.243,0.256,0.247,0.594,0.016,1.267
	c-0.237,0.695-0.229,0.885,0.05,1.012c0.124,0.056,0.285,0.104,0.355,0.104c0.176,0,0.163,0.232-0.043,0.833
	c-0.613,1.784-1.937,3.357-4.024,4.785c-1.981,1.359-4.555,2.208-6.992,2.309c-1.213,0.05-1.918-0.088-2.518-0.502
	c-0.463-0.316-0.48-0.594-0.055-0.881c0.467-0.312,1.082-0.458,2.364-0.562c3.987-0.319,7.005-1.769,9.196-4.416
	c0.344-0.414,0.352-0.437,0.104-0.271c-2.72,1.784-5.684,3.087-7.93,3.485c-0.673,0.12-1.172,0.145-2.187,0.108
	c-1.396-0.047-2.226-0.213-3.188-0.64c-0.531-0.235-0.6-0.358-0.562-1.008l0.022-0.378l-7.322-0.045
	c-4.027-0.026-8.267-0.045-9.419-0.045c-2.665,0-5.256,0.171-7.461,0.494c-1.041,0.15-1.221,0.287-1.57,1.168
	c-0.235,0.595-0.281,1.742-0.138,3.401c0.091,1.031-0.017,1.639-0.333,1.859c-0.115,0.083-0.401,0.13-0.75,0.13
	c-0.667,0-0.667,0-0.816-1.208c-0.216-1.773-0.085-3.701,0.349-4.998c0.173-0.519,0.247-0.62,0.689-0.936
	c0.931-0.667,2.49-1.115,4.667-1.337c0.535-0.055,2.764-0.094,5.18-0.093c2.333,0.002,6.515-0.021,9.288-0.054
	c3.232-0.038,5.944-0.021,7.541,0.042c1.369,0.056,2.508,0.085,2.531,0.063c0.087-0.088-0.957-0.591-1.582-0.759
	c-1.229-0.333-1.791-0.367-7.193-0.452c-2.947-0.042-7.73-0.127-10.629-0.185c-8.005-0.159-8.736-0.156-9.422,0.031
	c-1.211,0.333-2.271,0.844-3.169,1.527c-0.907,0.689-1.954,1.862-4.442,4.987l-2.686,3.37h-0.934
	C14.836,26.619,14.699,26.601,14.742,26.488 M57.894,28.371c-0.585-0.143-0.935-0.333-1.354-0.729l-0.344-0.324l0.209-0.168
	c0.323-0.264,1.023-0.438,2.289-0.576c0.642-0.068,1.344-0.183,1.565-0.256c2.429-0.789,3.942-1.759,5.907-3.787
	c0.959-0.991,2.937-3.443,3.084-3.827c0.029-0.076,0.191-0.119,0.441-0.119c0.461,0,0.46-0.054,0.019,1.292
	c-0.997,3.038-3.054,5.55-5.99,7.323c-0.661,0.398-0.786,0.438-2.805,0.857C58.645,28.529,58.566,28.538,57.894,28.371
	 M17.166,29.838L2.697,29.792l-0.29-0.208c-0.365-0.261-0.924-1.397-1.174-2.383c-0.429-1.702-0.677-3.568-0.813-6.117
	c-0.053-0.958-0.179-3.028-0.281-4.6c-0.201-3.122-0.188-5.075,0.06-7.993c0.374-4.406,1.055-7.049,1.969-7.649
	C2.42,0.679,5.056,0.519,13.614,0.146c8.047-0.349,16.745-0.062,21.632,0.714c1.103,0.176,1.306,0.33,1.835,1.403
	c0.536,1.085,0.843,2.32,0.919,3.706c0.089,1.51,0.054,1.866-0.189,1.933c-0.312,0.081-1.309,0.06-1.481-0.034
	c-0.258-0.136-0.44-0.714-0.588-1.854c-0.313-2.416-0.741-2.985-2.567-3.416c-2.041-0.483-5.145-0.663-11.32-0.658
	c-6,0.005-10.636,0.191-15.288,0.61c-1.15,0.104-1.48,0.165-1.835,0.345C3.81,3.364,3.117,4.458,2.694,6.124
	C2.371,7.402,2.305,8.24,2.21,12.339c-0.138,5.894,0.085,8.746,0.927,11.8c0.508,1.844,0.93,2.47,2.029,3.004
	c1.219,0.595,0.741,0.575,12.849,0.571c10.493-0.002,13.958-0.069,15.32-0.29c1.268-0.208,1.995-1.521,2.411-4.363
	c0.192-1.326,0.219-1.406,0.476-1.637c0.524-0.468,1.21-0.413,1.503,0.124c0.265,0.482,0.21,2.036-0.128,3.644
	c-0.434,2.072-0.831,3.472-1.063,3.749c-0.451,0.538-1.783,0.857-3.784,0.91C32.135,29.868,25.125,29.86,17.166,29.838
	 M61.666,31.086c-0.135-0.039-0.387-0.16-0.559-0.268c-0.258-0.159-0.314-0.245-0.314-0.492v-0.299l0.604-0.057
	c1.506-0.147,2.721-0.645,3.918-1.604c1.279-1.022,2.385-2.498,4.187-5.572c0.58-0.99,0.945-1.526,1.042-1.529
	c0.18-0.005,0.59,0.466,0.666,0.761c0.117,0.476-0.568,2.769-1.225,4.081c-1.264,2.536-3.389,4.263-6.021,4.894
	C63.232,31.18,62.107,31.219,61.666,31.086 M66.724,46.846c-0.073-0.294,0.021-0.879,0.198-1.222
	c0.212-0.409,0.811-1.022,1.552-1.589c0.768-0.584,1.429-1.268,1.653-1.695c0.476-0.923,0.798-3.976,0.587-5.564
	c-0.286-2.16-1.405-4.567-2.866-6.164c-0.245-0.269-0.445-0.527-0.445-0.576s0.428-0.484,0.953-0.971
	c0.671-0.622,0.963-0.84,0.994-0.745c0.119,0.371,1.609,3.151,1.943,3.622c0.725,1.026,1.688,1.756,2.631,1.999
	c0.22,0.056,0.553,0.161,0.737,0.231c0.487,0.188,1.155,0.16,2.281-0.094c1.681-0.379,2.215-0.271,2.601,0.522
	c0.319,0.663,0.254,0.778-0.582,1.06c-1.467,0.492-3.4,0.513-5.338,0.059c-0.596-0.143-0.815-0.16-0.893-0.083
	c-0.118,0.117-0.123,0.886-0.018,2.148c0.059,0.708,0.039,1.015-0.123,1.86c-0.491,2.566-1.455,4.443-3.029,5.917
	c-0.623,0.585-0.85,0.736-1.257,0.853c-0.274,0.082-0.729,0.262-1.011,0.401l-0.511,0.259L66.724,46.846z M58.662,47.989
	l-0.393-0.036l0.051-0.356c0.073-0.55,0.425-1.007,0.988-1.282c0.439-0.215,0.643-0.248,1.904-0.318
	c0.774-0.043,1.562-0.079,1.747-0.08l0.336-0.004v0.845c0,1.004,0.255,0.862-2.062,1.117C59.605,48.052,59.447,48.059,58.662,47.989
	 M66.668,56.844c-1.746-1.18-2.664-3.083-2.836-5.879c-0.126-2.086,0.084-3.658,0.981-7.375c0.8-3.32,0.906-3.986,0.958-5.953
	l0.043-1.709l-0.247-0.456c-0.135-0.25-0.271-0.454-0.3-0.45c-0.089,0.009-1.183,1.305-1.846,2.189
	c-1.447,1.928-2.268,3.83-2.418,5.598l-0.057,0.684L60.48,43.59c-0.941,0.194-0.963,0.188-1.096-0.312
	c-0.179-0.67-0.094-2.344,0.152-3.08c0.336-1.002,1.09-2.398,2.166-4.023c1.197-1.803,1.975-3.226,2.262-4.131
	c0.236-0.74,0.264-0.758,1.377-0.838l0.775-0.055l0.276,0.704c0.659,1.679,0.901,2.858,0.979,4.767
	c0.091,2.185-0.141,4.133-1.049,8.89c-0.789,4.121-0.779,4.023-0.545,5.308c0.404,2.211,0.961,3.494,2.006,4.619
	c0.252,0.271,0.26,0.305,0.197,0.848c-0.036,0.312-0.1,0.656-0.141,0.77C67.721,57.369,67.349,57.303,66.668,56.844"/>
</svg>
