<?xml version="1.0" encoding="utf-8"?>
<!-- Generator: Adobe Illustrator 16.0.4, SVG Export Plug-In . SVG Version: 6.00 Build 0)  -->
<!DOCTYPE svg PUBLIC "-//W3C//DTD SVG 1.1//EN" "http://www.w3.org/Graphics/SVG/1.1/DTD/svg11.dtd">
<svg version="1.1"
	 id="svg2" xmlns:dc="http://purl.org/dc/elements/1.1/" xmlns:cc="http://creativecommons.org/ns#" xmlns:rdf="http://www.w3.org/1999/02/22-rdf-syntax-ns#" xmlns:svg="http://www.w3.org/2000/svg"
	 xmlns="http://www.w3.org/2000/svg" xmlns:xlink="http://www.w3.org/1999/xlink" x="0px" y="0px" width="105px" height="76.25px"
	 viewBox="0 0 105 76.25" enable-background="new 0 0 105 76.25" xml:space="preserve">
<path id="path22" fill="#6F7B8A" d="M5.439,58.761l2.212-7.175h2.914l2.197,7.175l2.471-7.175h3.022l-4.346,12.461h-2.063
	l-2.733-8.662l-2.706,8.662H4.345L0,51.586h3.019L5.439,58.761z M19.734,51.586h2.786v12.463h-2.786V51.586z M25.581,51.586h2.79
	v5.124l4.711-5.124h3.431l-4.958,5.508c0.421,0.602,1.215,1.709,2.375,3.32c1.148,1.625,2.011,2.83,2.583,3.633h-3.25l-3.663-4.916
	l-1.245,1.393v3.523h-2.775V51.586z M38.236,51.586h2.788v12.463h-2.788V51.586z M55.251,56.205l-3.378,6.818H50.22l-3.347-6.818
	v7.842h-2.789V51.586h3.774l3.208,6.846l3.224-6.846h3.744v12.461h-2.784V56.205z M70.091,51.586v2.475h-6.206v2.569h5.577v2.378
	h-5.577v2.58h6.41v2.459h-9.184V51.586H70.091z M80.244,60.633c0.684-0.645,1.023-1.57,1.023-2.799c0-1.232-0.34-2.176-1.023-2.832
	c-0.684-0.654-1.737-0.982-3.145-0.982h-1.557v7.582h1.76C78.59,61.588,79.561,61.275,80.244,60.633 M82.293,53.225
	c1.189,1.096,1.791,2.599,1.791,4.54c0,1.938-0.576,3.47-1.736,4.604c-1.162,1.133-2.924,1.693-5.303,1.693h-4.263V51.6h4.399
	C79.396,51.586,81.102,52.133,82.293,53.225 M86.488,51.586h2.775v12.461h-2.788V51.586H86.488z M97.447,55.304l-1.57,3.621h3.115
	L97.447,55.304z M101.22,64.047l-1.163-2.689h-5.219l-1.162,2.689h-2.965l5.384-12.461h2.692l5.384,12.461H101.22z M10.317,73.341
	c0-1.188-0.685-1.79-2.049-1.79H7.406v3.554h0.973c0.627,0,1.105-0.151,1.449-0.45C10.153,74.366,10.317,73.93,10.317,73.341
	 M10.453,71.429c0.506,0.452,0.754,1.079,0.754,1.886c0,0.805-0.248,1.449-0.724,1.912c-0.493,0.466-1.231,0.711-2.229,0.711H6.532
	v-5.191h1.79C9.238,70.746,9.963,70.977,10.453,71.429 M19.377,70.746v0.817h-2.772v1.382h2.486v0.779h-2.486v1.395h2.855v0.818
	h-3.744v-5.191H19.377z M25.157,74.75c0.233,0.272,0.561,0.408,0.972,0.408c0.409,0,0.723-0.136,0.969-0.408
	c0.247-0.273,0.355-0.656,0.355-1.134v-2.87h0.875v2.911c0,0.751-0.205,1.323-0.616,1.72c-0.407,0.41-0.941,0.6-1.583,0.6
	c-0.644,0-1.177-0.204-1.586-0.6c-0.409-0.408-0.617-0.984-0.617-1.72v-2.911h0.875v2.87C24.802,74.105,24.912,74.477,25.157,74.75
	 M35.051,71.551v4.387h-0.875v-4.387h-1.57v-0.805h4.032v0.805H35.051z M42.555,71.429c-0.261,0-0.465,0.058-0.63,0.149
	c-0.161,0.11-0.246,0.262-0.246,0.479c0,0.204,0.085,0.369,0.246,0.479c0.165,0.108,0.506,0.232,1.04,0.354
	c0.534,0.121,0.93,0.315,1.2,0.548c0.275,0.232,0.413,0.571,0.413,1.024c0,0.449-0.176,0.818-0.52,1.104
	c-0.343,0.288-0.794,0.425-1.339,0.425c-0.806,0-1.531-0.272-2.16-0.834l0.548-0.653c0.519,0.448,1.065,0.681,1.64,0.681
	c0.288,0,0.505-0.055,0.669-0.176c0.166-0.125,0.248-0.286,0.248-0.479c0-0.207-0.082-0.356-0.232-0.465
	c-0.15-0.11-0.424-0.221-0.809-0.301c-0.381-0.095-0.667-0.178-0.873-0.246c-0.206-0.081-0.37-0.179-0.534-0.303
	c-0.299-0.23-0.463-0.586-0.463-1.064s0.177-0.848,0.517-1.109c0.356-0.256,0.779-0.393,1.299-0.393
	c0.329,0,0.656,0.055,0.985,0.162c0.328,0.109,0.613,0.258,0.849,0.466l-0.469,0.656c-0.146-0.136-0.352-0.246-0.627-0.343
	C43.058,71.486,42.801,71.429,42.555,71.429 M51.424,75.145c0.3,0,0.559-0.055,0.776-0.148c0.22-0.098,0.45-0.26,0.684-0.491
	l0.561,0.572c-0.547,0.615-1.216,0.915-2.01,0.915c-0.778,0-1.434-0.245-1.952-0.752c-0.522-0.504-0.779-1.146-0.779-1.913
	c0-0.763,0.256-1.42,0.791-1.927c0.534-0.506,1.189-0.781,1.998-0.781c0.804,0,1.473,0.303,2.021,0.891l-0.564,0.616
	c-0.243-0.232-0.476-0.411-0.695-0.491c-0.219-0.084-0.478-0.139-0.779-0.139c-0.521,0-0.97,0.165-1.324,0.508
	c-0.357,0.34-0.533,0.779-0.533,1.297c0,0.533,0.175,0.971,0.533,1.326C50.52,74.969,50.944,75.145,51.424,75.145 M57.913,75.938
	v-5.191h0.875v2.255h2.583v-2.255h0.875v5.191h-0.875v-2.131h-2.583v2.131H57.913z M67.083,75.938v-5.191h0.875v4.358h2.362v0.833
	H67.083z M77.674,73.956l-0.944-2.146l-0.941,2.146H77.674z M75.434,74.764l-0.521,1.174h-0.942l2.28-5.191h0.944l2.283,5.191
	h-0.943l-0.52-1.174H75.434z M87.5,70.746h0.875v5.191h-0.957l-2.939-3.785v3.785h-0.874v-5.191h0.874l3.021,3.881V70.746z
	 M97.01,73.341c0-1.188-0.683-1.79-2.049-1.79h-0.874v3.554h0.969c0.629,0,1.107-0.151,1.45-0.45
	C96.833,74.366,97.01,73.93,97.01,73.341 M97.132,71.429c0.507,0.452,0.753,1.079,0.753,1.886c0,0.805-0.246,1.449-0.725,1.912
	c-0.49,0.466-1.229,0.711-2.226,0.711h-1.724v-5.191h1.79C95.918,70.746,96.643,70.977,97.132,71.429 M53.99,36.091
	c6.67-0.946,11.809-6.682,11.809-13.611c0-4.21-1.898-7.979-4.879-10.51l-6.93,6.93V36.091z M50.111,36.091V18.9l-6.93-6.93
	c-2.976,2.53-4.877,6.288-4.877,10.51C38.303,29.409,43.443,35.145,50.111,36.091 M63.996,10.521
	c3.195,3.185,4.945,7.435,4.945,11.944s-1.762,8.761-4.945,11.946c-3.184,3.183-7.437,4.943-11.945,4.943
	c-4.507,0-8.759-1.761-11.945-4.943c-3.183-3.185-4.946-7.438-4.946-11.946s1.764-8.759,4.946-11.944
	c0.275-0.274,0.562-0.531,0.849-0.794l-3.854-3.854c-0.286,0.261-0.561,0.522-0.833,0.793c-2.051,2.05-3.662,4.441-4.782,7.108
	c-1.163,2.761-1.763,5.684-1.763,8.69c0,3.021,0.586,5.945,1.763,8.691c1.12,2.666,2.731,5.057,4.782,7.106
	c2.05,2.05,4.443,3.663,7.108,4.784c2.757,1.161,5.684,1.763,8.69,1.763c3.018,0,5.944-0.589,8.692-1.763
	c2.663-1.121,5.055-2.733,7.104-4.784c2.049-2.049,3.663-4.44,4.781-7.106c1.162-2.76,1.766-5.685,1.766-8.691
	c0-3.02-0.586-5.942-1.766-8.69c-1.118-2.667-2.732-5.058-4.781-7.108c-0.271-0.271-0.545-0.532-0.833-0.793l-3.854,3.854
	C63.448,9.99,63.723,10.247,63.996,10.521 M59.021,6.966c0,3.853-3.119,6.973-6.971,6.973c-3.849,0-6.969-3.12-6.969-6.973
	C45.082,3.12,48.202,0,52.051,0C55.902,0,59.021,3.12,59.021,6.966"/>
</svg>
