<?xml version="1.0" encoding="utf-8"?>
<!-- Generator: Adobe Illustrator 16.0.4, SVG Export Plug-In . SVG Version: 6.00 Build 0)  -->
<!DOCTYPE svg PUBLIC "-//W3C//DTD SVG 1.1//EN" "http://www.w3.org/Graphics/SVG/1.1/DTD/svg11.dtd">
<svg version="1.1"
	 id="svg2" xmlns:dc="http://purl.org/dc/elements/1.1/" xmlns:cc="http://creativecommons.org/ns#" xmlns:rdf="http://www.w3.org/1999/02/22-rdf-syntax-ns#" xmlns:svg="http://www.w3.org/2000/svg"
	 xmlns="http://www.w3.org/2000/svg" xmlns:xlink="http://www.w3.org/1999/xlink" x="0px" y="0px" width="97.5px" height="70px"
	 viewBox="0 0 97.5 70" enable-background="new 0 0 97.5 70" xml:space="preserve">
<path id="path22" fill="#6F7B8A" d="M17.961,32.271c0.104-0.272,4.096-5.815,4.987-6.92c1.825-2.276,4.499-5.078,5.508-5.78
	c0.751-0.522,2.083-0.95,3.382-1.09c1.542-0.165,14.263-0.16,24.114,0.011c8.354,0.146,8.126,0.125,10.511,0.882
	c0.736,0.235,1.36,0.406,1.385,0.378c0.028-0.025-0.087-0.219-0.249-0.433c-0.385-0.505-1.236-1.064-2.129-1.397
	c-1.492-0.559-1.994-0.593-10.502-0.72c-7.665-0.112-11.115-0.194-20.289-0.479l-4.299-0.131l-0.64-0.32
	c-1.124-0.559-2.019-1.546-6.452-7.099c-2.354-2.947-4.28-5.389-4.28-5.42c0-0.108,2.449,0.091,2.603,0.212
	c0.086,0.069,1.229,1.56,2.542,3.312c2.825,3.784,3.67,4.805,4.971,6.028c1.287,1.214,1.737,1.511,2.543,1.681
	c1.548,0.326,5.759,0.404,15.18,0.275c10.919-0.147,14.578-0.071,16.283,0.349c1.363,0.334,3.034,0.915,4.079,1.417
	c0.442,0.215,0.823,0.365,0.847,0.344c0.102-0.104-0.325-0.708-0.828-1.18c-1.578-1.476-3.928-2.396-6.872-2.688
	c-1.178-0.116-7.941-0.17-12.35-0.099c-1.375,0.025-4.119,0.039-6.094,0.039c-3.225-0.001-3.724-0.026-4.929-0.244
	c-1.598-0.288-3.377-0.858-4.428-1.42c-0.63-0.337-0.801-0.49-1.002-0.892c-0.574-1.16-0.632-4.312-0.131-6.825l0.115-0.572h0.865
	c0.474,0,0.869,0.015,0.876,0.027c0.011,0.015,0.051,1.229,0.087,2.692c0.078,2.919,0.111,3.099,0.769,3.85
	c0.481,0.546,0.784,0.682,1.799,0.82c2.157,0.29,3.807,0.337,11.654,0.335c4.845,0,8.845,0.045,9.63,0.113
	c3.687,0.312,6.632,1.047,9.198,2.295c1.244,0.607,1.385,0.706,2.271,1.65c1.67,1.771,3.286,4.143,4.212,6.171l0.419,0.926
	l-0.038-0.664c-0.087-1.478-2.267-5.085-5.674-9.393c-0.635-0.802-1.156-1.497-1.156-1.543c0-0.158,0.484-0.424,0.765-0.424
	c0.496,0,1.78,0.866,2.362,1.592c2.971,3.718,4.83,6.748,5.693,9.287c0.194,0.571,0.471,1.157,0.61,1.306l0.254,0.27l0.331-0.329
	l0.329-0.332l-0.284-0.974c-0.629-2.178-1.312-3.522-3.955-7.766c-2.019-3.238-2.029-3.275-1.149-3.275
	c0.385,0,0.614,0.103,1.267,0.545c0.438,0.297,0.875,0.604,0.971,0.681c0.276,0.221,2.456,3.915,3.211,5.449
	c0.385,0.774,0.871,1.978,1.086,2.671c0.569,1.842,0.57,1.845,1.19,1.302c0.396-0.349,0.403-0.368,0.339-0.958
	c-0.148-1.379-0.938-3.854-1.879-5.868c-0.261-0.561-0.474-1.089-0.474-1.17c0-0.079,0.14-0.304,0.313-0.498
	c0.302-0.34,0.326-0.348,0.624-0.191c0.508,0.26,1.378,1.209,1.745,1.906c0.189,0.354,0.625,1.59,0.969,2.74
	c0.34,1.154,0.658,2.097,0.71,2.097c0.046,0,0.247-0.204,0.444-0.452c0.914-1.145,1.244-1.306,1.702-0.82
	c0.295,0.314,0.3,0.727,0.019,1.544c-0.29,0.849-0.279,1.078,0.062,1.234c0.148,0.068,0.347,0.127,0.431,0.127
	c0.214,0,0.201,0.28-0.051,1.014c-0.748,2.172-2.359,4.091-4.902,5.831c-2.415,1.654-5.552,2.689-8.523,2.812
	c-1.475,0.062-2.333-0.109-3.062-0.613c-0.566-0.385-0.588-0.721-0.069-1.071c0.569-0.38,1.319-0.56,2.882-0.685
	c4.858-0.39,8.534-2.156,11.203-5.381c0.42-0.505,0.43-0.533,0.127-0.333c-3.312,2.175-6.926,3.763-9.66,4.249
	c-0.82,0.144-1.43,0.175-2.664,0.13c-1.699-0.058-2.711-0.26-3.885-0.78c-0.649-0.285-0.731-0.434-0.684-1.225l0.024-0.461
	l-8.917-0.056c-4.91-0.033-10.074-0.055-11.477-0.055c-3.248,0-6.405,0.208-9.091,0.601c-1.269,0.184-1.489,0.35-1.914,1.423
	c-0.285,0.724-0.341,2.125-0.166,4.144c0.11,1.256-0.021,1.998-0.408,2.265c-0.139,0.102-0.487,0.16-0.912,0.16
	c-0.814,0-0.814,0-0.995-1.474c-0.265-2.16-0.103-4.509,0.425-6.087c0.21-0.634,0.301-0.756,0.839-1.14
	c1.135-0.812,3.032-1.359,5.686-1.63c0.651-0.066,3.369-0.115,6.31-0.114c2.845,0.002,7.939-0.024,11.318-0.065
	c3.938-0.045,7.242-0.026,9.186,0.051c1.672,0.067,3.058,0.103,3.085,0.076c0.106-0.109-1.165-0.719-1.927-0.924
	c-1.497-0.404-2.182-0.449-8.764-0.551c-3.591-0.051-9.419-0.155-12.952-0.225c-9.75-0.192-10.641-0.19-11.478,0.038
	c-1.476,0.406-2.768,1.029-3.86,1.861c-1.107,0.839-2.382,2.27-5.414,6.076l-3.271,4.107h-1.139
	C18.076,32.432,17.908,32.407,17.961,32.271 M70.533,34.564c-0.713-0.175-1.139-0.405-1.65-0.888l-0.419-0.395l0.254-0.205
	c0.396-0.32,1.249-0.534,2.791-0.703c0.781-0.083,1.638-0.224,1.906-0.312c2.96-0.961,4.804-2.142,7.198-4.612
	c1.17-1.208,3.576-4.195,3.757-4.664c0.036-0.093,0.232-0.144,0.538-0.144c0.562,0,0.561-0.066,0.021,1.573
	c-1.214,3.7-3.719,6.762-7.296,8.921c-0.804,0.485-0.957,0.532-3.416,1.043C71.45,34.757,71.353,34.768,70.533,34.564
	 M20.914,36.352L3.288,36.295l-0.355-0.252c-0.445-0.318-1.126-1.703-1.429-2.905c-0.525-2.073-0.825-4.346-0.993-7.453
	c-0.065-1.166-0.217-3.689-0.341-5.604c-0.246-3.803-0.229-6.183,0.071-9.738c0.455-5.369,1.288-8.587,2.4-9.319
	c0.306-0.2,3.519-0.395,13.943-0.848c9.807-0.425,20.403-0.076,26.357,0.869c1.343,0.214,1.591,0.402,2.234,1.71
	c0.654,1.322,1.028,2.825,1.122,4.515c0.107,1.84,0.065,2.274-0.231,2.354c-0.38,0.1-1.594,0.074-1.805-0.042
	c-0.312-0.165-0.535-0.869-0.715-2.257c-0.382-2.945-0.904-3.636-3.129-4.163c-2.485-0.588-6.269-0.806-13.789-0.801
	C19.316,2.369,13.667,2.596,8.001,3.105C6.599,3.233,6.199,3.308,5.767,3.527c-1.125,0.57-1.969,1.904-2.484,3.932
	c-0.395,1.559-0.475,2.58-0.591,7.573c-0.167,7.18,0.104,10.656,1.131,14.377c0.619,2.245,1.132,3.009,2.471,3.66
	c1.485,0.725,0.904,0.7,15.654,0.696c12.784-0.006,17.005-0.085,18.666-0.355c1.544-0.252,2.43-1.853,2.937-5.315
	c0.235-1.615,0.267-1.714,0.581-1.995c0.638-0.57,1.474-0.502,1.829,0.152c0.324,0.585,0.256,2.479-0.153,4.438
	c-0.528,2.525-1.012,4.231-1.296,4.569c-0.547,0.653-2.171,1.045-4.609,1.109C39.151,36.389,30.61,36.379,20.914,36.352
	 M75.13,37.871c-0.163-0.047-0.472-0.195-0.681-0.326c-0.314-0.191-0.382-0.299-0.382-0.598v-0.364l0.735-0.069
	c1.835-0.18,3.313-0.787,4.773-1.953c1.559-1.248,2.906-3.045,5.1-6.791c0.707-1.205,1.152-1.859,1.268-1.861
	c0.222-0.006,0.721,0.567,0.812,0.926c0.143,0.58-0.691,3.375-1.489,4.974C83.725,34.896,81.138,37,77.93,37.77
	C77.039,37.985,75.666,38.034,75.13,37.871 M81.293,57.073c-0.089-0.358,0.024-1.071,0.24-1.49c0.258-0.496,0.986-1.243,1.893-1.933
	c0.934-0.713,1.739-1.545,2.012-2.067c0.579-1.124,0.974-4.844,0.717-6.778c-0.351-2.632-1.712-5.565-3.493-7.51
	c-0.298-0.328-0.542-0.643-0.542-0.702c0-0.062,0.521-0.593,1.162-1.185c0.814-0.755,1.172-1.024,1.211-0.908
	c0.145,0.453,1.959,3.841,2.367,4.414c0.882,1.249,2.057,2.139,3.205,2.437c0.268,0.067,0.674,0.196,0.896,0.281
	c0.597,0.229,1.409,0.196,2.78-0.114c2.049-0.462,2.698-0.33,3.17,0.638c0.39,0.806,0.31,0.948-0.71,1.289
	c-1.787,0.601-4.143,0.625-6.504,0.073c-0.725-0.175-0.992-0.197-1.086-0.102c-0.145,0.143-0.151,1.08-0.022,2.617
	c0.071,0.861,0.049,1.236-0.149,2.268c-0.598,3.125-1.771,5.412-3.691,7.209c-0.76,0.711-1.034,0.896-1.531,1.038
	c-0.334,0.098-0.891,0.32-1.231,0.487l-0.622,0.315L81.293,57.073z M71.471,58.467l-0.479-0.045l0.062-0.436
	c0.09-0.668,0.517-1.225,1.204-1.561c0.534-0.262,0.781-0.302,2.319-0.387c0.943-0.053,1.902-0.098,2.129-0.099l0.409-0.005v1.029
	c0,1.222,0.31,1.052-2.513,1.361C72.62,58.543,72.426,58.549,71.471,58.467 M81.224,69.256c-2.126-1.439-3.245-3.758-3.454-7.166
	c-0.153-2.539,0.104-4.455,1.195-8.984c0.977-4.044,1.105-4.856,1.166-7.252l0.055-2.082l-0.302-0.557
	c-0.165-0.303-0.33-0.553-0.364-0.547c-0.111,0.01-1.441,1.59-2.25,2.666c-1.764,2.35-2.765,4.666-2.945,6.818l-0.069,0.833
	l-0.569,0.122c-1.146,0.234-1.173,0.229-1.334-0.382c-0.218-0.813-0.115-2.857,0.185-3.754c0.41-1.22,1.329-2.921,2.64-4.901
	c1.458-2.195,2.406-3.93,2.757-5.032c0.286-0.901,0.319-0.923,1.678-1.021l0.943-0.066l0.338,0.857
	c0.8,2.045,1.097,3.484,1.19,5.809c0.111,2.66-0.171,5.035-1.278,10.828c-0.96,5.022-0.947,4.904-0.662,6.468
	c0.493,2.694,1.171,4.257,2.443,5.629c0.308,0.329,0.315,0.37,0.241,1.032c-0.046,0.379-0.122,0.8-0.171,0.937
	C82.508,69.896,82.053,69.814,81.224,69.256"/>
</svg>
