<?xml version="1.0" encoding="utf-8"?>
<!-- Generator: Adobe Illustrator 16.0.4, SVG Export Plug-In . SVG Version: 6.00 Build 0)  -->
<!DOCTYPE svg PUBLIC "-//W3C//DTD SVG 1.1//EN" "http://www.w3.org/Graphics/SVG/1.1/DTD/svg11.dtd">
<svg version="1.1" id="Ebene_1" xmlns="http://www.w3.org/2000/svg" xmlns:xlink="http://www.w3.org/1999/xlink" x="0px" y="0px"
	 width="78px" height="67px" viewBox="0 0 78 67" enable-background="new 0 0 78 67" xml:space="preserve">
<path fill="#6F7B8A" d="M18.796,16.292C8.424,16.292,0,24.718,0,35.089s8.424,18.797,18.796,18.797
	c10.37,0,18.797-8.426,18.797-18.797S29.166,16.292,18.796,16.292z M18.796,17.127c9.919,0,17.963,8.043,17.963,17.962
	c0,9.921-8.044,17.959-17.963,17.959c-9.921,0-17.963-8.038-17.963-17.959C0.833,25.17,8.875,17.127,18.796,17.127z M50.542,7.939
	c-10.37,0-18.797,8.423-18.797,18.795s8.427,18.797,18.797,18.797c10.372,0,18.798-8.425,18.798-18.797S60.914,7.939,50.542,7.939z
	 M50.542,8.773c9.921,0,17.964,8.042,17.964,17.961s-8.043,17.962-17.964,17.962s-17.963-8.043-17.963-17.962
	S40.621,8.773,50.542,8.773z M50.542,0C35.812,0,23.809,12.005,23.809,26.734c0,14.728,12.004,26.735,26.733,26.735
	s26.734-12.008,26.734-26.735C77.276,12.005,65.271,0,50.542,0z M50.542,5.015c12.018,0,21.723,9.704,21.723,21.72
	c0,12.019-9.705,21.723-21.723,21.723c-12.017,0-21.721-9.704-21.721-21.723C28.821,14.718,38.525,5.015,50.542,5.015z
	 M54.558,24.224c0.888-0.001,1.194,0.709,0.639,1.203c-1.279,1.279-2.559,2.56-3.837,3.837c3.189,0,6.683-0.062,9.872-0.062
	c0.47,0.033,0.472,0.042,0.666,0.146c0.193,0.104,0.334,0.224,0.356,0.565c0,1.063-0.008,2.127-0.008,3.189
	c0.004,0.483-0.032,1.104-0.586,1.125c-3.425,0.123-6.865,0.003-10.301,0.012c1.185,1.187,2.367,2.37,3.553,3.557
	c0.558,0.333,0.742,1.276-0.062,1.438c-1.169,0.032-2.338,0.005-3.507,0.016c-0.578-0.045-1.193,0.099-1.736-0.115
	c-2.165-2.117-4.287-4.28-6.437-6.416c-0.348-0.357-0.952-0.777-0.58-1.339c2.025-2.074,4.093-4.116,6.136-6.181
	c0.413-0.335,0.693-0.919,1.265-0.977C51.515,24.224,53.036,24.224,54.558,24.224z M14.665,26.817
	c0.356,0.041,0.533,0.421,0.79,0.641c1.273,1.349,2.561,2.685,3.823,4.045c0.232,0.363-0.144,0.638-0.359,0.872
	c-1.342,1.397-2.665,2.814-4.015,4.201c-0.338,0.138-0.721,0.042-1.082,0.073c-0.729-0.009-1.455,0.012-2.188-0.012
	c-0.5-0.103-0.387-0.722-0.039-0.939c0.74-0.777,1.478-1.552,2.217-2.328c-2.14-0.003-4.287,0.074-6.422-0.006
	c-0.345-0.014-0.369-0.422-0.363-0.735c0-0.695-0.008-1.393-0.008-2.088c0.014-0.225,0.102-0.302,0.224-0.369
	c0.122-0.069,0.122-0.074,0.415-0.097c1.987,0,4.166,0.041,6.154,0.041c-0.797-0.838-1.595-1.674-2.393-2.511
	c-0.346-0.324-0.156-0.788,0.398-0.788C12.769,26.817,13.716,26.817,14.665,26.817z M15.494,60.002h0.586
	c0.004-0.861,0.019-1.371,0.044-1.528c0.042-0.364,0.196-0.65,0.456-0.86c0.259-0.214,0.627-0.319,1.104-0.319
	c0.341,0,0.729,0.08,1.161,0.236v1.259c-0.239-0.071-0.436-0.104-0.589-0.104c-0.192,0-0.333,0.04-0.424,0.121
	c-0.062,0.061-0.096,0.186-0.096,0.375l-0.007,0.82h1.046v1.405H17.73v5.175h-1.65v-5.175h-0.586V60.002z M20.007,60.002h1.415
	v0.831c0.152-0.326,0.354-0.576,0.609-0.744c0.254-0.17,0.534-0.256,0.836-0.256c0.212,0,0.438,0.058,0.671,0.169l-0.513,1.425
	c-0.195-0.1-0.354-0.148-0.479-0.148c-0.254,0-0.47,0.159-0.646,0.474c-0.175,0.312-0.263,0.931-0.263,1.852l0.006,0.32v2.658
	h-1.638V60.002z M30.4,63.771h-5.305c0.075,0.466,0.281,0.839,0.614,1.115c0.332,0.276,0.755,0.415,1.271,0.415
	c0.617,0,1.148-0.215,1.592-0.647l1.39,0.653c-0.346,0.49-0.761,0.855-1.245,1.089c-0.483,0.238-1.059,0.355-1.724,0.355
	c-1.031,0-1.872-0.327-2.521-0.977c-0.65-0.651-0.976-1.467-0.976-2.445c0-1.005,0.325-1.837,0.971-2.501
	c0.647-0.664,1.458-0.996,2.436-0.996c1.036,0,1.878,0.332,2.527,0.996c0.65,0.664,0.974,1.537,0.974,2.628L30.4,63.771z
	 M28.439,62.47c-0.109-0.365-0.323-0.664-0.645-0.893c-0.322-0.231-0.692-0.347-1.116-0.347c-0.459,0-0.862,0.132-1.209,0.388
	c-0.218,0.161-0.419,0.445-0.604,0.852H28.439z M32.388,57.294c0.29,0,0.541,0.103,0.747,0.315c0.207,0.21,0.311,0.464,0.311,0.761
	c0,0.294-0.102,0.547-0.308,0.754c-0.205,0.206-0.45,0.312-0.738,0.312c-0.292,0-0.542-0.108-0.751-0.319
	c-0.208-0.213-0.312-0.468-0.312-0.771c0-0.289,0.104-0.537,0.308-0.744C31.851,57.396,32.098,57.294,32.388,57.294L32.388,57.294z
	 M31.51,60.002h1.655v6.58H31.51V60.002z M34.284,60.002h0.589c0.003-0.861,0.017-1.371,0.04-1.528
	c0.045-0.364,0.197-0.65,0.459-0.86c0.259-0.214,0.626-0.319,1.101-0.319c0.343,0,0.731,0.08,1.161,0.236v1.259
	c-0.237-0.071-0.431-0.104-0.585-0.104c-0.193,0-0.335,0.04-0.424,0.121c-0.062,0.061-0.098,0.186-0.098,0.375l-0.004,0.82h1.045
	v1.405h-1.045v5.175h-1.65v-5.175h-0.589V60.002z M38.776,60.002h1.671v3.171c0,0.616,0.041,1.043,0.125,1.283
	c0.084,0.241,0.221,0.427,0.409,0.56c0.188,0.136,0.417,0.201,0.692,0.201c0.274,0,0.507-0.065,0.699-0.197s0.334-0.322,0.426-0.577
	c0.068-0.19,0.104-0.595,0.104-1.217v-3.224h1.657v2.791c0,1.148-0.094,1.935-0.272,2.358c-0.223,0.516-0.55,0.909-0.982,1.187
	c-0.429,0.276-0.979,0.414-1.644,0.414c-0.72,0-1.305-0.159-1.75-0.481c-0.445-0.325-0.76-0.773-0.939-1.351
	c-0.129-0.396-0.195-1.125-0.195-2.177V60.002z M45.903,60.002h1.644v0.672c0.374-0.313,0.715-0.534,1.02-0.655
	c0.304-0.124,0.616-0.186,0.934-0.186c0.653,0,1.208,0.229,1.665,0.685c0.38,0.386,0.573,0.96,0.573,1.718v4.347h-1.633v-2.886
	c0-0.785-0.036-1.307-0.105-1.563c-0.07-0.257-0.193-0.456-0.369-0.591s-0.392-0.202-0.65-0.202c-0.333,0-0.621,0.113-0.86,0.335
	c-0.241,0.225-0.407,0.534-0.5,0.929c-0.049,0.205-0.073,0.652-0.073,1.338v2.641h-1.644V60.002z M52.99,57.465h1.651v5.253
	l2.43-2.716h2.068l-2.829,3.158l3.175,3.422h-2.05l-2.794-3.029v3.029H52.99V57.465z"/>
</svg>
