<?xml version="1.0" encoding="utf-8"?>
<!-- Generator: Adobe Illustrator 16.0.4, SVG Export Plug-In . SVG Version: 6.00 Build 0)  -->
<!DOCTYPE svg PUBLIC "-//W3C//DTD SVG 1.1//EN" "http://www.w3.org/Graphics/SVG/1.1/DTD/svg11.dtd">
<svg version="1.1" id="Ebene_1" xmlns="http://www.w3.org/2000/svg" xmlns:xlink="http://www.w3.org/1999/xlink" x="0px" y="0px"
	 width="75px" height="39px" viewBox="0 0 75 39" enable-background="new 0 0 75 39" xml:space="preserve">
<path fill="#6F7B8A" d="M9.863,26.792c-0.079-0.205-0.067-0.423,0.016-0.61c0.083-0.189,0.237-0.343,0.441-0.423l2.882-0.256
	l2.312-1.749c0.205-0.078,0.424-0.068,0.608,0.018c0.186,0.082,0.341,0.236,0.421,0.442l0.257,2.903l1.741,2.334
	c0.079,0.205,0.066,0.424-0.017,0.612c-0.082,0.188-0.234,0.342-0.442,0.422l-2.881,0.255l-2.311,1.749
	c-0.207,0.08-0.423,0.068-0.608-0.018c-0.188-0.084-0.343-0.235-0.42-0.442l-0.261-2.905L9.863,26.792z M11.564,15.352l-5.46-0.467
	c-0.45-0.171-0.787-0.511-0.97-0.921c-0.181-0.41-0.203-0.89-0.028-1.345l0.077-0.103l0.973,0.278l-4.771-1.361
	c-0.378,0-0.719,0.156-0.968,0.404c-0.245,0.249-0.4,0.592-0.4,0.97l1.354,4.804L0,22.418c0,0.379,0.151,0.722,0.396,0.972
	c0.247,0.245,0.589,0.399,0.967,0.397l4.774-1.378l4.773,1.362c0.376-0.002,0.718-0.156,0.966-0.405
	c0.246-0.25,0.399-0.593,0.401-0.973l-1.354-4.801L11.564,15.352z M12.296,12.786l-0.731,2.565l0,0L12.296,12.786z M24.205,5.399
	c-0.181-0.408-0.519-0.749-0.969-0.92l-6.348-0.545l-5.083-3.818c-0.452-0.172-0.932-0.146-1.342,0.038
	c-0.409,0.185-0.751,0.526-0.924,0.98L8.952,7.499l-3.769,5.016l0.973,0.278l4.776-1.378c0.379-0.002,0.719,0.151,0.965,0.4
	c0.246,0.248,0.399,0.59,0.398,0.971l-0.731,2.565l-5.46-0.467l6.349,0.543l5.082,3.82c0.451,0.174,0.931,0.145,1.342-0.039
	c0.409-0.186,0.75-0.524,0.926-0.979l0.588-6.366l3.845-5.121C24.412,6.289,24.387,5.811,24.205,5.399z M5.184,12.515L5.184,12.515
	l-0.077,0.103L5.184,12.515z M30.138,16.395h1.337c0.63,0,1.139-0.509,1.139-1.136c0-0.628-0.509-1.139-1.139-1.139h-1.337
	c-2.907,0-4.836,1.548-4.836,4.616v2.494h-2.161c-0.629,0-1.139,0.509-1.139,1.139c0,0.627,0.51,1.137,1.139,1.137h2.191v14.231
	c0,0.698,0.567,1.264,1.265,1.264c0.699,0,1.266-0.565,1.266-1.264V23.505h3.612c0.63,0,1.139-0.51,1.139-1.137
	c0-0.63-0.509-1.139-1.139-1.139h-3.612l0.012-2.791C27.874,17.014,28.421,16.395,30.138,16.395z M56.881,16.395h1.338
	c0.629,0,1.138-0.509,1.138-1.136c0-0.628-0.509-1.139-1.138-1.139h-1.338c-2.909,0-4.837,1.548-4.837,4.616v2.494h-2.16
	c-0.63,0-1.138,0.509-1.138,1.139c0,0.627,0.508,1.137,1.138,1.137h2.191v14.231c0,0.698,0.566,1.264,1.265,1.264
	c0.699,0,1.265-0.565,1.265-1.264V23.505h3.614c0.629,0,1.138-0.51,1.138-1.137c0-0.63-0.509-1.139-1.138-1.139h-3.614l0.013-2.791
	C54.617,17.014,55.163,16.395,56.881,16.395z M67.502,23.658c2.439,0,4.4,1.506,4.83,4.984H61.979
	C62.483,25.55,64.461,23.658,67.502,23.658z M61.869,30.918h10.105c2.024,0,2.774-0.068,2.774-1.87
	c-0.331-4.793-3.039-7.755-7.247-7.755c-5.549,0-8.016,4.442-8.016,9.132c0,5.414,3.13,8.558,8.016,8.558
	c3.575,0,5.4-1.509,6.223-2.755c0.241-0.381,0.385-0.731,0.458-1.009c0.166-0.521-0.057-1.1-0.557-1.366
	c-0.273-0.146-0.582-0.17-0.86-0.09c-0.303,0.09-0.852,0.806-0.852,0.806c-0.444,0.575-1.622,2.035-4.366,2.035
	C65.648,36.604,62.099,36.042,61.869,30.918z M38.271,30.885l4.371,0.902c1.28,0.283,2.06,1.172,2.06,2.218
	c0,1.526-1.372,2.622-4.119,2.622c-0.794,0-1.508-0.104-2.135-0.302c-1.421-0.451-2.134-1.338-2.458-1.757
	c0,0-0.548-0.716-0.852-0.806c-0.277-0.08-0.585-0.057-0.859,0.09c-0.501,0.267-0.724,0.846-0.557,1.366
	c0.073,0.277,0.218,0.628,0.456,1.009c0.823,1.244,2.648,2.755,6.224,2.755l0.181-0.002c4.119,0,6.65-2.162,6.65-5.067
	c0-2.74-2.032-3.936-4.341-4.435l-4.245-0.904c-1.343-0.281-2.124-1.174-2.124-2.279c0-1.543,1.469-2.551,3.935-2.551
	c0.769,0,1.416,0.098,1.992,0.281c1.332,0.448,2.003,1.313,2.308,1.726c0,0,0.518,0.706,0.808,0.795
	c0.262,0.078,0.555,0.053,0.816-0.089c0.474-0.264,0.686-0.835,0.527-1.352c-0.068-0.271-0.206-0.618-0.435-0.994
	c-0.78-1.229-2.513-2.719-5.923-2.717h-0.094c-3.966,0-6.432,2.188-6.432,4.963C34.026,29.028,35.961,30.415,38.271,30.885z"/>
</svg>
