<?xml version="1.0" encoding="utf-8"?>
<!-- Generator: Adobe Illustrator 16.0.4, SVG Export Plug-In . SVG Version: 6.00 Build 0)  -->
<!DOCTYPE svg PUBLIC "-//W3C//DTD SVG 1.1//EN" "http://www.w3.org/Graphics/SVG/1.1/DTD/svg11.dtd">
<svg version="1.1"
	 id="svg2" xmlns:dc="http://purl.org/dc/elements/1.1/" xmlns:svg="http://www.w3.org/2000/svg" xmlns:rdf="http://www.w3.org/1999/02/22-rdf-syntax-ns#" xmlns:cc="http://creativecommons.org/ns#"
	 xmlns="http://www.w3.org/2000/svg" xmlns:xlink="http://www.w3.org/1999/xlink" x="0px" y="0px" width="157.5px" height="47.5px"
	 viewBox="0 0 157.5 47.5" enable-background="new 0 0 157.5 47.5" xml:space="preserve">
<path id="path22" fill="#6F7B8A" d="M152.612,34.874h1.595v-9.107h2.884v-1.415h-7.36v1.415h2.882V34.874 M141.932,34.874h1.596
	v-4.492h4.379v-1.423h-4.379V25.86h5.137v-1.509h-6.732V34.874 M134.664,31.082c0.212-0.61,0.378-1.094,0.5-1.451
	c0.127-0.355,0.233-0.68,0.324-0.968c0.098-0.288,0.195-0.587,0.297-0.897c0.101-0.312,0.238-0.729,0.404-1.249
	c0.158,0.503,0.289,0.899,0.384,1.194c0.095,0.292,0.19,0.581,0.281,0.865c0.095,0.284,0.209,0.611,0.331,0.982
	c0.132,0.368,0.307,0.873,0.529,1.523H134.664 M131.675,34.867h1.684l0.837-2.375h3.997l0.806,2.375h1.678l-3.844-10.53h-1.314
	L131.675,34.867 M129.156,34.874h1.599V24.352h-1.599v4.508h-4.174v-4.508h-1.597v10.522h1.597v-4.593h4.174V34.874 M120.304,31.936
	c-0.455,0.957-1.128,1.438-2.015,1.438c-0.375,0-0.701-0.075-0.976-0.225c-0.272-0.154-0.49-0.336-0.649-0.549
	c-0.207-0.26-0.348-0.553-0.426-0.875c-0.074-0.32-0.109-1.023-0.109-2.107c0-1.078,0.035-1.779,0.109-2.104
	c0.078-0.32,0.219-0.619,0.426-0.889c0.159-0.201,0.377-0.379,0.649-0.535c0.274-0.15,0.601-0.229,0.976-0.229
	c0.507,0,0.935,0.15,1.285,0.455c0.357,0.304,0.602,0.657,0.729,1.062h1.685c-0.164-0.854-0.572-1.584-1.228-2.197
	c-0.651-0.613-1.474-0.924-2.472-0.924c-0.828,0-1.524,0.202-2.087,0.607c-0.558,0.404-0.96,0.836-1.206,1.292
	c-0.176,0.31-0.294,0.646-0.361,1.015c-0.068,0.364-0.103,1.18-0.103,2.447c0,1.266,0.035,2.084,0.103,2.448
	c0.067,0.366,0.186,0.704,0.361,1.011c0.246,0.465,0.648,0.893,1.206,1.295c0.562,0.393,1.259,0.591,2.087,0.591
	c0.9,0,1.69-0.257,2.371-0.775c0.678-0.517,1.119-1.269,1.328-2.251H120.304 M105.672,33.518c1.1,0.965,2.44,1.444,4.025,1.444
	c1.126,0,2.026-0.268,2.695-0.803c0.667-0.535,1.002-1.286,1.002-2.253c0-0.716-0.234-1.373-0.706-1.966
	c-0.468-0.593-1.194-0.947-2.177-1.067c-0.254-0.03-0.482-0.058-0.678-0.081c-0.198-0.028-0.365-0.054-0.504-0.08
	c-0.537-0.08-0.919-0.251-1.148-0.511c-0.232-0.262-0.348-0.541-0.348-0.84c0-0.498,0.17-0.877,0.511-1.126
	c0.344-0.25,0.759-0.375,1.25-0.375c0.464,0,0.916,0.075,1.357,0.224c0.444,0.15,0.858,0.346,1.245,0.586l0.889-1.314
	c-0.484-0.32-1.013-0.581-1.585-0.787c-0.571-0.207-1.183-0.312-1.834-0.312c-1.089,0-1.933,0.289-2.536,0.865
	c-0.595,0.58-0.895,1.315-0.895,2.215c0,0.764,0.24,1.418,0.716,1.963c0.478,0.539,1.17,0.871,2.079,0.998
	c0.275,0.037,0.518,0.07,0.725,0.1c0.205,0.029,0.43,0.058,0.67,0.086c0.916,0.122,1.374,0.597,1.374,1.424
	c0,0.437-0.187,0.792-0.559,1.062c-0.37,0.27-0.88,0.404-1.531,0.404c-0.562,0-1.103-0.096-1.616-0.29
	c-0.514-0.192-0.971-0.447-1.365-0.767L105.672,33.518 M98.158,34.874h6.731v-1.501h-5.134v-9.021h-1.598V34.874 M89.925,34.874
	h6.729v-1.501H91.52v-9.021h-1.595V34.874 M81.689,34.874h6.73v-1.501h-5.134v-3.092h4.376v-1.422h-4.376V25.86h5.134v-1.509h-6.73
	V34.874 M72.276,33.518c1.098,0.965,2.441,1.444,4.024,1.444c1.129,0,2.023-0.268,2.694-0.803s1.003-1.286,1.003-2.253
	c0-0.716-0.236-1.373-0.708-1.966c-0.464-0.593-1.19-0.947-2.172-1.067c-0.256-0.03-0.484-0.058-0.679-0.081
	c-0.2-0.028-0.368-0.054-0.506-0.08c-0.534-0.08-0.918-0.251-1.147-0.511c-0.232-0.262-0.349-0.541-0.349-0.84
	c0-0.498,0.172-0.877,0.515-1.126c0.338-0.25,0.757-0.375,1.247-0.375c0.463,0,0.917,0.075,1.358,0.224
	c0.445,0.15,0.86,0.346,1.242,0.586l0.887-1.314c-0.479-0.32-1.006-0.581-1.58-0.787c-0.572-0.207-1.184-0.312-1.835-0.312
	c-1.087,0-1.934,0.289-2.535,0.865c-0.599,0.58-0.895,1.315-0.895,2.215c0,0.764,0.238,1.418,0.715,1.963
	c0.478,0.539,1.17,0.871,2.08,0.998c0.275,0.037,0.517,0.07,0.722,0.1c0.208,0.029,0.431,0.058,0.672,0.086
	c0.914,0.122,1.371,0.597,1.371,1.424c0,0.437-0.185,0.792-0.555,1.062c-0.37,0.27-0.883,0.404-1.531,0.404
	c-0.564,0-1.104-0.096-1.618-0.29c-0.515-0.192-0.971-0.447-1.365-0.767L72.276,33.518 M64.628,34.874h6.734v-1.501h-5.136v-3.092
	h4.377v-1.422h-4.377V25.86h5.136v-1.509h-6.734V34.874 M59.361,30.592h2.145v0.543c0,0.663-0.21,1.203-0.63,1.615
	c-0.414,0.417-0.924,0.623-1.529,0.623c-0.375,0-0.7-0.075-0.976-0.225c-0.275-0.154-0.49-0.336-0.65-0.549
	c-0.208-0.26-0.348-0.553-0.425-0.875c-0.075-0.32-0.108-1.023-0.108-2.107c0-1.078,0.034-1.779,0.108-2.104
	c0.078-0.32,0.218-0.619,0.425-0.889c0.16-0.201,0.375-0.379,0.65-0.535c0.276-0.15,0.601-0.229,0.976-0.229
	c0.506,0,0.934,0.15,1.285,0.455c0.357,0.304,0.6,0.657,0.732,1.062h1.681c-0.165-0.854-0.572-1.584-1.229-2.197
	c-0.651-0.613-1.473-0.924-2.47-0.924c-0.83,0-1.525,0.202-2.089,0.607c-0.557,0.404-0.96,0.836-1.206,1.292
	c-0.174,0.31-0.294,0.646-0.359,1.015c-0.071,0.364-0.103,1.18-0.103,2.447c0,1.266,0.034,2.084,0.103,2.448
	c0.065,0.366,0.185,0.704,0.359,1.011c0.246,0.465,0.649,0.893,1.206,1.295c0.564,0.393,1.259,0.591,2.089,0.591
	c1.05,0,1.939-0.364,2.665-1.085c0.729-0.722,1.091-1.605,1.091-2.65V29.08h-3.743V30.592 M106.241,22.302h6.731v-1.502h-5.137
	v-3.091h4.379v-1.425h-4.379v-2.998h5.137v-1.51h-6.731V22.302 M98.005,22.302h6.731v-1.502h-5.133v-9.024h-1.599V22.302
	 M90.675,18.508c0.21-0.612,0.376-1.095,0.497-1.452c0.127-0.354,0.231-0.678,0.324-0.966c0.099-0.29,0.196-0.586,0.297-0.896
	c0.101-0.311,0.236-0.729,0.405-1.248c0.157,0.499,0.286,0.895,0.384,1.19c0.096,0.292,0.189,0.583,0.28,0.866
	c0.095,0.284,0.206,0.612,0.331,0.981c0.131,0.366,0.305,0.876,0.529,1.525H90.675 M87.682,22.294h1.685l0.836-2.377h3.996
	l0.81,2.377h1.676l-3.843-10.534h-1.312L87.682,22.294 M83.514,22.302h1.598v-9.11h2.88v-1.417h-7.36v1.417h2.883V22.302
	 M77.909,22.302h1.593V11.775h-1.593V22.302z M72.31,18.017h2.146v0.542c0,0.664-0.21,1.204-0.629,1.619
	c-0.415,0.412-0.925,0.621-1.532,0.621c-0.376,0-0.7-0.073-0.973-0.225c-0.277-0.154-0.493-0.336-0.652-0.549
	c-0.207-0.26-0.352-0.551-0.426-0.874c-0.071-0.323-0.108-1.025-0.108-2.111c0-1.076,0.037-1.777,0.108-2.1
	c0.075-0.324,0.22-0.619,0.426-0.889c0.16-0.203,0.375-0.381,0.652-0.534c0.272-0.155,0.596-0.232,0.973-0.232
	c0.505,0,0.935,0.152,1.285,0.455c0.359,0.304,0.602,0.657,0.731,1.062h1.681c-0.164-0.852-0.57-1.584-1.228-2.195
	c-0.648-0.617-1.474-0.926-2.47-0.926c-0.828,0-1.526,0.204-2.088,0.607c-0.557,0.405-0.96,0.838-1.205,1.293
	c-0.174,0.309-0.295,0.642-0.363,1.011c-0.067,0.368-0.099,1.183-0.099,2.448c0,1.268,0.034,2.083,0.099,2.45
	c0.067,0.366,0.189,0.702,0.363,1.011c0.245,0.463,0.647,0.895,1.205,1.293c0.562,0.395,1.26,0.594,2.088,0.594
	c1.05,0,1.938-0.362,2.666-1.083c0.73-0.723,1.091-1.606,1.091-2.653v-2.144H72.31V18.017 M65.079,22.302h1.597V11.775h-1.597
	V22.302z M57.54,13.286h1.917c0.813,0,1.438,0.295,1.877,0.881c0.211,0.29,0.341,0.615,0.39,0.975
	c0.052,0.363,0.081,1.014,0.081,1.958c0,0.978-0.025,1.62-0.075,1.93c-0.041,0.303-0.15,0.586-0.324,0.853
	c-0.425,0.611-1.074,0.917-1.95,0.917H57.54V13.286 M55.946,22.302h3.58c0.78,0,1.445-0.165,1.989-0.5
	c0.55-0.336,0.978-0.751,1.292-1.241c0.235-0.368,0.391-0.745,0.469-1.141c0.082-0.4,0.123-1.191,0.123-2.379
	c0-1.101-0.029-1.848-0.085-2.237c-0.059-0.39-0.216-0.81-0.479-1.256c-0.696-1.18-1.768-1.771-3.207-1.771h-3.683V22.302
	 M48.045,36.034H37.126v10.768h10.919V36.034z M48.045,24.022H37.126v10.766h10.919V24.022z M48.045,12.008H37.126v10.77h10.919
	V12.008z M36.035,24.022h-10.92v10.766h10.92V24.022z M36.035,12.008h-10.92v10.77h10.92V12.008z M22.931,24.022H12.012v10.766
	h10.919V24.022z M22.931,12.008H12.012v10.77h10.919V12.008z M22.931,0H12.012v10.768h10.919V0z M10.92,24.022H0.001v10.766H10.92
	V24.022z M0,12.008h10.919v10.77H0V12.008z"/>
</svg>
