<?xml version="1.0" encoding="utf-8"?>
<!-- Generator: Adobe Illustrator 16.0.4, SVG Export Plug-In . SVG Version: 6.00 Build 0)  -->
<!DOCTYPE svg PUBLIC "-//W3C//DTD SVG 1.1//EN" "http://www.w3.org/Graphics/SVG/1.1/DTD/svg11.dtd">
<svg version="1.1"
	 id="svg2" xmlns:dc="http://purl.org/dc/elements/1.1/" xmlns:cc="http://creativecommons.org/ns#" xmlns:rdf="http://www.w3.org/1999/02/22-rdf-syntax-ns#" xmlns:svg="http://www.w3.org/2000/svg"
	 xmlns="http://www.w3.org/2000/svg" xmlns:xlink="http://www.w3.org/1999/xlink" x="0px" y="0px" width="108.75px" height="35px"
	 viewBox="0 0 108.75 35" enable-background="new 0 0 108.75 35" xml:space="preserve">
<path id="path22" fill="#6F7B8A" d="M40.088,14.799c-2.104,0-3.41,1.56-3.41,4.27c0,2.485,1.146,4.398,3.384,4.398
	c2.135,0,3.538-1.721,3.538-4.462C43.597,16.105,42.037,14.799,40.088,14.799 M102.605,26.621c-1.915,0-2.963-1.119-3.158-2.869
	c-0.826,1.465-2.293,2.869-4.618,2.869c-2.067,0-4.427-1.119-4.427-4.112c0-3.538,3.409-4.364,6.689-4.364
	c0.787-0.008,1.576,0.035,2.358,0.128v-0.478c0-1.465-0.031-3.218-2.358-3.218c-0.859,0-1.529,0.064-2.2,0.413l-0.528,2.04
	l-3.285-0.353l0.64-3.726c2.513-1.021,3.79-1.317,6.149-1.317c3.092,0,5.703,1.596,5.703,4.877v6.247c0,0.83,0.317,1.115,0.99,1.115
	c0.206-0.002,0.408-0.034,0.605-0.094l0.031,2.166 M81.189,26.303l6.216-21.914h4.049l-6.212,21.914H81.189z M72.84,26.303
	l6.221-21.914h4.046l-6.214,21.914H72.84z M70.584,17.092h-4.303v-5.161h4.303V17.092z M70.584,26.303h-4.303V21.14h4.303V26.303z
	 M62.811,26.303H50.254l-0.412-2.166l7.894-9.085h-4.493l-0.637,2.234l-2.962-0.32l0.507-5.035h12.631l0.318,2.167l-7.971,9.086
	h4.646l0.67-2.23l3.25,0.317L62.811,26.303z M39.93,26.621c-4.43,0-7.487-2.71-7.487-7.299c0-4.208,2.547-7.68,7.705-7.68
	c5.157,0,7.681,3.472,7.681,7.488C47.834,23.721,44.519,26.621,39.93,26.621 M30.785,26.303h-6.015v-8.094
	c0-2.484-0.829-3.44-2.454-3.44c-1.975,0-2.773,1.4-2.773,3.407v5.007h1.906v3.124h-6.016v-8.098c0-2.484-0.828-3.44-2.454-3.44
	c-1.976,0-2.771,1.4-2.771,3.407v5.007h2.733v3.124H4.178v-3.124h1.91v-8.128H4.019v-3.124h6.18v2.165
	c0.861-1.526,2.36-2.451,4.365-2.451c2.066,0,3.983,0.989,4.684,3.092c0.797-1.914,2.421-3.092,4.684-3.092
	c2.581,0,4.939,1.562,4.939,4.972v6.565h1.914L30.785,26.303z M0,34.875h108.75V0.001H0V34.875z M94.646,22.031
	c0,0.925,0.444,1.657,1.69,1.657c1.465,0,3.027-1.052,3.121-3.442C96.217,19.703,94.646,20.289,94.646,22.031"/>
</svg>
