<?xml version="1.0" encoding="utf-8"?>
<!-- Generator: Adobe Illustrator 16.0.4, SVG Export Plug-In . SVG Version: 6.00 Build 0)  -->
<!DOCTYPE svg PUBLIC "-//W3C//DTD SVG 1.1//EN" "http://www.w3.org/Graphics/SVG/1.1/DTD/svg11.dtd">
<svg version="1.1" id="Ebene_1" xmlns="http://www.w3.org/2000/svg" xmlns:xlink="http://www.w3.org/1999/xlink" x="0px" y="0px"
	 width="75px" height="39px" viewBox="0 0 75 39" enable-background="new 0 0 75 39" xml:space="preserve">
<path fill="#FFFFFF" d="M9.88,26.837c-0.079-0.206-0.067-0.425,0.016-0.612c0.083-0.188,0.237-0.344,0.442-0.423l2.887-0.257
	l2.316-1.752c0.205-0.078,0.424-0.067,0.609,0.018c0.186,0.083,0.341,0.237,0.421,0.444l0.258,2.908l1.744,2.337
	c0.079,0.205,0.066,0.425-0.017,0.613c-0.082,0.188-0.235,0.343-0.443,0.423l-2.886,0.256l-2.314,1.752
	c-0.207,0.079-0.424,0.067-0.609-0.018c-0.188-0.084-0.343-0.237-0.421-0.444l-0.261-2.909L9.88,26.837z M11.584,15.377l-5.47-0.468
	c-0.45-0.171-0.788-0.512-0.971-0.923c-0.181-0.41-0.204-0.892-0.028-1.348c-0.002,0,0.077-0.103,0.077-0.103l0.975,0.278
	l-4.779-1.363c-0.378,0-0.72,0.156-0.969,0.405c-0.246,0.249-0.401,0.593-0.401,0.972l1.355,4.812L0,22.455
	c0,0.379,0.151,0.723,0.397,0.973c0.247,0.247,0.59,0.401,0.968,0.398l4.783-1.38l4.781,1.364c0.376-0.002,0.719-0.155,0.967-0.406
	c0.247-0.249,0.4-0.594,0.402-0.974l-1.356-4.809L11.584,15.377z M12.316,12.808l-0.732,2.569l0,0L12.316,12.808z M24.246,5.408
	c-0.182-0.409-0.52-0.75-0.971-0.922L16.917,3.94l-5.092-3.825c-0.452-0.172-0.933-0.146-1.344,0.038
	c-0.41,0.185-0.752,0.526-0.926,0.981L8.967,7.512l-3.774,5.024l0.975,0.278l4.784-1.381c0.379-0.002,0.72,0.151,0.966,0.401
	c0.247,0.248,0.4,0.591,0.399,0.973l-0.732,2.569l-5.47-0.468l6.359,0.545l5.091,3.826c0.452,0.173,0.933,0.145,1.344-0.04
	c0.41-0.185,0.752-0.525,0.928-0.98l0.589-6.375l3.852-5.13C24.453,6.3,24.428,5.82,24.246,5.408z M5.192,12.536L5.192,12.536
	l-0.077,0.103C5.113,12.639,5.192,12.536,5.192,12.536z M30.188,16.423h1.339c0.631,0,1.141-0.511,1.141-1.14s-0.51-1.14-1.141-1.14
	h-1.339c-2.912,0-4.845,1.551-4.845,4.623v2.497H23.18c-0.63,0-1.141,0.51-1.141,1.141c0,0.63,0.511,1.14,1.141,1.14h2.195v14.255
	c0,0.699,0.567,1.266,1.267,1.266c0.7,0,1.268-0.566,1.268-1.266V23.544h3.618c0.631,0,1.141-0.51,1.141-1.14
	c0-0.631-0.51-1.141-1.141-1.141h-3.618l0.012-2.795C27.921,17.042,28.469,16.423,30.188,16.423z M56.977,16.423h1.34
	c0.63,0,1.14-0.511,1.14-1.14s-0.51-1.14-1.14-1.14h-1.34c-2.914,0-4.846,1.551-4.846,4.623v2.497h-2.163
	c-0.631,0-1.14,0.51-1.14,1.141c0,0.63,0.509,1.14,1.14,1.14h2.194v14.255c0,0.699,0.567,1.266,1.268,1.266s1.267-0.566,1.267-1.266
	V23.544h3.62c0.63,0,1.14-0.51,1.14-1.14c0-0.631-0.51-1.141-1.14-1.141h-3.62l0.013-2.795
	C54.709,17.042,55.256,16.423,56.977,16.423z M67.615,23.697c2.443,0,4.408,1.509,4.838,4.993h-10.37
	C62.588,25.593,64.569,23.697,67.615,23.697z M61.973,30.969h10.123c2.027,0,2.778-0.068,2.778-1.873
	c-0.331-4.8-3.044-7.768-7.259-7.768c-5.559,0-8.029,4.449-8.029,9.147c0,5.424,3.136,8.572,8.029,8.572
	c3.581,0,5.409-1.513,6.233-2.76c0.241-0.381,0.385-0.732,0.458-1.01c0.167-0.521-0.057-1.103-0.558-1.369
	c-0.273-0.146-0.583-0.171-0.861-0.091c-0.304,0.091-0.853,0.808-0.853,0.808c-0.445,0.576-1.625,2.039-4.374,2.039
	C65.759,36.665,62.203,36.102,61.973,30.969z M38.336,30.936l4.378,0.905c1.282,0.282,2.063,1.174,2.063,2.221
	c0,1.529-1.375,2.627-4.126,2.627c-0.796,0-1.511-0.104-2.139-0.303c-1.423-0.452-2.138-1.34-2.462-1.76
	c0,0-0.549-0.717-0.854-0.808c-0.277-0.08-0.586-0.057-0.86,0.091c-0.502,0.267-0.725,0.848-0.558,1.368
	c0.073,0.278,0.218,0.63,0.457,1.011c0.824,1.246,2.652,2.76,6.233,2.76l0.182-0.002c4.126,0,6.661-2.167,6.661-5.077
	c0-2.743-2.035-3.941-4.348-4.441l-4.253-0.906c-1.345-0.28-2.127-1.176-2.127-2.283c0-1.544,1.471-2.555,3.941-2.555
	c0.77,0,1.418,0.098,1.995,0.282c1.334,0.449,2.006,1.316,2.312,1.728c0,0,0.519,0.707,0.809,0.797
	c0.263,0.079,0.556,0.054,0.818-0.09c0.474-0.263,0.687-0.836,0.528-1.353c-0.069-0.272-0.207-0.62-0.436-0.997
	c-0.781-1.229-2.517-2.722-5.933-2.721h-0.094c-3.973,0-6.443,2.191-6.443,4.972C34.083,29.076,36.021,30.466,38.336,30.936z"/>
</svg>
