<?xml version="1.0" encoding="utf-8"?>
<!-- Generator: Adobe Illustrator 16.0.4, SVG Export Plug-In . SVG Version: 6.00 Build 0)  -->
<!DOCTYPE svg PUBLIC "-//W3C//DTD SVG 1.1//EN" "http://www.w3.org/Graphics/SVG/1.1/DTD/svg11.dtd">
<svg version="1.1"
	 id="svg2" xmlns:dc="http://purl.org/dc/elements/1.1/" xmlns:cc="http://creativecommons.org/ns#" xmlns:rdf="http://www.w3.org/1999/02/22-rdf-syntax-ns#" xmlns:svg="http://www.w3.org/2000/svg"
	 xmlns="http://www.w3.org/2000/svg" xmlns:xlink="http://www.w3.org/1999/xlink" x="0px" y="0px" width="108.75px" height="35px"
	 viewBox="0 0 108.75 35" enable-background="new 0 0 108.75 35" xml:space="preserve">
<path id="path22" fill="#FFFFFF" d="M40.088,14.799c-2.104,0-3.41,1.56-3.41,4.269c0,2.486,1.147,4.399,3.385,4.399
	c2.134,0,3.538-1.721,3.538-4.463C43.598,16.104,42.037,14.799,40.088,14.799 M102.605,26.621c-1.916,0-2.964-1.119-3.158-2.869
	c-0.826,1.465-2.295,2.869-4.619,2.869c-2.065,0-4.426-1.119-4.426-4.112c0-3.536,3.409-4.364,6.688-4.364
	c0.789-0.008,1.576,0.034,2.36,0.127v-0.477c0-1.465-0.032-3.218-2.36-3.218c-0.858,0-1.528,0.064-2.198,0.412l-0.53,2.041
	l-3.285-0.353l0.642-3.726c2.514-1.021,3.79-1.317,6.149-1.317c3.092,0,5.703,1.596,5.703,4.876v6.248
	c0,0.83,0.317,1.115,0.99,1.115c0.206-0.002,0.408-0.034,0.605-0.094l0.031,2.166 M81.188,26.301l6.218-21.912h4.049l-6.212,21.912
	H81.188z M72.842,26.301l6.219-21.912h4.047l-6.215,21.912H72.842z M70.584,17.092H66.28v-5.161h4.304V17.092z M70.584,26.301H66.28
	V21.14h4.304V26.301z M62.811,26.301H50.253l-0.41-2.166l7.894-9.085h-4.494l-0.636,2.234l-2.963-0.319l0.507-5.035h12.63
	l0.319,2.167l-7.971,9.086h4.646l0.67-2.23l3.252,0.317L62.811,26.301z M39.932,26.621c-4.431,0-7.487-2.71-7.487-7.299
	c0-4.208,2.547-7.68,7.705-7.68c5.158,0,7.68,3.472,7.68,7.488C47.834,23.721,44.519,26.621,39.932,26.621 M30.785,26.301h-6.014
	v-8.092c0-2.485-0.829-3.44-2.455-3.44c-1.974,0-2.773,1.399-2.773,3.407v5.007h1.906v3.122h-6.016v-8.096
	c0-2.485-0.827-3.44-2.455-3.44c-1.974,0-2.77,1.399-2.77,3.407v5.007h2.732v3.122H4.179v-3.122h1.91v-8.129H4.021v-3.123h6.18
	v2.165c0.86-1.526,2.36-2.451,4.365-2.451c2.065,0,3.981,0.989,4.683,3.092c0.797-1.914,2.421-3.092,4.685-3.092
	c2.581,0,4.938,1.561,4.938,4.971v6.566h1.912L30.785,26.301L30.785,26.301z M0,34.875h108.75V0.001H0V34.875z M94.646,22.031
	c0,0.925,0.444,1.657,1.688,1.657c1.465,0,3.027-1.052,3.124-3.442C96.217,19.705,94.646,20.287,94.646,22.031"/>
</svg>
