<?xml version="1.0" encoding="utf-8"?>
<!-- Generator: Adobe Illustrator 16.0.4, SVG Export Plug-In . SVG Version: 6.00 Build 0)  -->
<!DOCTYPE svg PUBLIC "-//W3C//DTD SVG 1.1//EN" "http://www.w3.org/Graphics/SVG/1.1/DTD/svg11.dtd">
<svg version="1.1" id="Ebene_1" xmlns="http://www.w3.org/2000/svg" xmlns:xlink="http://www.w3.org/1999/xlink" x="0px" y="0px"
	 width="124px" height="54px" viewBox="0 0 124 54" enable-background="new 0 0 124 54" xml:space="preserve">
<path fill="#6F7B8A" d="M63.653,17.479c-1.393,0-2.327-0.996-2.327-2.29c0-1.291,0.935-2.283,2.327-2.283
	c1.392,0,2.321,0.998,2.321,2.283C65.975,16.482,65.045,17.479,63.653,17.479z M63.653,13.763c-0.797,0-1.266,0.539-1.266,1.426
	c0,0.897,0.469,1.426,1.266,1.426c0.792,0,1.258-0.529,1.258-1.426C64.911,14.302,64.445,13.763,63.653,13.763z M68.854,15.933
	v1.493h-1.037v-4.47h1.576c1.258,0,1.798,0.635,1.798,1.459c0,0.893-0.562,1.518-1.798,1.518H68.854L68.854,15.933z M68.854,15.15
	h0.539c0.541,0,0.763-0.271,0.763-0.734c0-0.406-0.24-0.684-0.763-0.684h-0.539V15.15z M75.959,12.956h-2.877v4.47h2.877v-0.797
	h-1.835v-1.065h1.406v-0.768h-1.406v-1.043h1.835V12.956L75.959,12.956z M78.686,12.956h-0.547v4.47h0.912v-2.395
	c0-0.133-0.008-0.283-0.02-0.439l2.108,2.665c0.102,0.131,0.2,0.17,0.364,0.17h0.538v-4.47h-0.916v2.366
	c0,0.145,0.01,0.309,0.024,0.48l-2.122-2.686C78.916,12.978,78.863,12.956,78.686,12.956z M62.598,21.248h-1.037v4.471h1.037v-1.902
	h0.253c0.193,0,0.294,0.043,0.367,0.156l1.015,1.557c0.081,0.123,0.168,0.189,0.404,0.189h0.924l-1.348-2.074
	c-0.107-0.168-0.232-0.26-0.39-0.318c0.106-0.059,0.206-0.137,0.305-0.27l1.324-1.809h-0.904c-0.204,0-0.335,0.047-0.446,0.205
	l-1.005,1.461c-0.069,0.096-0.18,0.143-0.333,0.143h-0.166V21.248z M68.078,21.248h-0.545v4.471h0.914v-2.396
	c0-0.131-0.01-0.283-0.021-0.438l2.107,2.662c0.101,0.133,0.203,0.172,0.363,0.172h0.539v-4.471h-0.915v2.365
	c0,0.146,0.011,0.309,0.024,0.479l-2.121-2.684C68.309,21.27,68.256,21.248,68.078,21.248z M75.738,25.768
	c-1.393,0-2.327-0.994-2.327-2.285c0-1.293,0.935-2.283,2.327-2.283c1.389,0,2.319,0.998,2.319,2.283
	C78.058,24.773,77.127,25.768,75.738,25.768z M75.738,22.057c-0.797,0-1.266,0.539-1.266,1.426c0,0.896,0.469,1.426,1.266,1.426
	c0.791,0,1.258-0.529,1.258-1.426C76.996,22.596,76.529,22.057,75.738,22.057z M80.575,25.719h0.938l0.854-2.771
	c0.028-0.086,0.062-0.189,0.089-0.305c0.028,0.115,0.062,0.219,0.089,0.305l0.842,2.771h0.938l1.379-4.471h-0.815
	c-0.172,0-0.303,0.104-0.336,0.225l-0.615,2.332c-0.036,0.143-0.07,0.307-0.103,0.488c-0.038-0.184-0.091-0.346-0.138-0.488
	l-0.717-2.332c-0.046-0.139-0.163-0.225-0.345-0.225h-0.305c-0.172,0-0.303,0.111-0.337,0.225l-0.725,2.332
	c-0.047,0.15-0.1,0.318-0.138,0.512c-0.024-0.186-0.068-0.361-0.108-0.512l-0.614-2.332c-0.036-0.135-0.163-0.225-0.343-0.225
	h-0.872L80.575,25.719z M88.614,24.891v-3.643h-1.037v4.471h2.694v-0.828H88.614L88.614,24.891z M95.354,21.248h-2.878v4.471h2.878
	V24.92H93.52v-1.064h1.402V23.09H93.52v-1.045h1.835V21.248L95.354,21.248z M99.271,25.719h-1.738v-4.471h1.738
	c1.389,0,2.319,0.949,2.319,2.234C101.59,24.773,100.659,25.719,99.271,25.719z M99.271,22.045h-0.694v2.875h0.694
	c0.791,0,1.259-0.543,1.259-1.438C100.529,22.596,100.062,22.045,99.271,22.045z M105.542,24.971c-0.747,0-1.3-0.543-1.3-1.488
	c0-0.855,0.49-1.426,1.264-1.426c0.418,0,0.646,0.08,0.975,0.277c0.064,0.041,0.129,0.062,0.189,0.062
	c0.095,0,0.176-0.053,0.234-0.139l0.301-0.457c-0.359-0.344-0.914-0.602-1.663-0.602c-1.439,0-2.362,0.947-2.362,2.283
	c0,1.311,0.976,2.285,2.283,2.285c0.73,0,1.256-0.143,1.714-0.477v-1.889h-1.593v0.57c0,0.109,0.079,0.186,0.208,0.186h0.444v0.678
	C106.04,24.918,105.828,24.971,105.542,24.971z M112.152,21.248h-2.879v4.471h2.879V24.92h-1.835v-1.064h1.405V23.09h-1.405v-1.045
	h1.835V21.248L112.152,21.248z M64.439,29.539h-2.879v4.471h1.043v-1.738h1.528v-0.803h-1.528v-1.133h1.836V29.539L64.439,29.539z
	 M71.233,31.773c0,0.322-0.057,0.625-0.166,0.902c-0.11,0.277-0.271,0.52-0.472,0.727c-0.202,0.205-0.446,0.365-0.731,0.482
	c-0.286,0.115-0.604,0.174-0.95,0.174c-0.348,0-0.664-0.059-0.951-0.174c-0.286-0.117-0.53-0.277-0.736-0.482
	c-0.202-0.207-0.359-0.449-0.473-0.727c-0.111-0.277-0.168-0.58-0.168-0.902c0-0.324,0.057-0.625,0.168-0.902
	c0.113-0.279,0.271-0.52,0.473-0.723c0.206-0.207,0.45-0.367,0.736-0.482c0.287-0.117,0.604-0.178,0.951-0.178
	c0.347,0,0.664,0.061,0.95,0.178c0.285,0.119,0.529,0.281,0.731,0.484c0.201,0.205,0.361,0.445,0.472,0.723
	C71.177,31.152,71.233,31.453,71.233,31.773z M70.172,31.773c0-0.221-0.031-0.422-0.087-0.598C70.028,31,69.947,30.85,69.84,30.727
	c-0.108-0.121-0.242-0.217-0.395-0.281c-0.156-0.064-0.334-0.1-0.531-0.1c-0.202,0-0.38,0.035-0.535,0.1
	c-0.157,0.064-0.289,0.16-0.396,0.281c-0.109,0.123-0.189,0.273-0.248,0.449c-0.057,0.18-0.085,0.377-0.085,0.598
	c0,0.223,0.028,0.422,0.085,0.6c0.059,0.178,0.139,0.328,0.248,0.449c0.106,0.123,0.238,0.219,0.396,0.281
	c0.155,0.064,0.333,0.096,0.535,0.096c0.197,0,0.375-0.031,0.531-0.096c0.152-0.062,0.286-0.158,0.395-0.281
	c0.107-0.121,0.188-0.271,0.245-0.449C70.143,32.195,70.172,31.996,70.172,31.773z M75.059,33.121
	c-0.109-0.045-0.202-0.111-0.277-0.197c-0.076-0.09-0.133-0.193-0.173-0.316c-0.041-0.125-0.061-0.268-0.061-0.422v-2.646H73.51
	v2.65c0,0.273,0.045,0.525,0.134,0.754c0.087,0.229,0.214,0.426,0.379,0.59c0.166,0.166,0.368,0.297,0.605,0.387
	c0.236,0.094,0.505,0.139,0.806,0.139c0.295,0,0.563-0.045,0.799-0.139c0.238-0.09,0.438-0.221,0.604-0.387
	c0.166-0.164,0.295-0.363,0.382-0.59c0.091-0.229,0.136-0.48,0.136-0.754v-2.65h-1.038v2.65c0,0.156-0.02,0.297-0.061,0.422
	c-0.038,0.123-0.097,0.229-0.173,0.312c-0.075,0.088-0.168,0.152-0.277,0.197c-0.108,0.047-0.233,0.07-0.371,0.07
	C75.295,33.191,75.169,33.168,75.059,33.121z M80.415,29.539h-0.547v4.471h0.917v-2.395c0-0.066-0.002-0.137-0.006-0.213
	c-0.007-0.072-0.011-0.148-0.019-0.227l2.111,2.664c0.05,0.064,0.104,0.107,0.157,0.135c0.057,0.023,0.123,0.035,0.204,0.035h0.539
	v-4.471h-0.913v2.367c0,0.07,0,0.146,0.004,0.229c0.007,0.08,0.013,0.164,0.019,0.25l-2.121-2.686
	c-0.03-0.035-0.055-0.062-0.079-0.084c-0.021-0.02-0.046-0.035-0.068-0.045c-0.026-0.014-0.053-0.02-0.085-0.023
	C80.5,29.541,80.46,29.539,80.415,29.539z M90.407,31.773c0,0.322-0.055,0.623-0.168,0.896c-0.11,0.271-0.267,0.51-0.47,0.707
	c-0.202,0.199-0.448,0.355-0.731,0.467c-0.286,0.111-0.604,0.166-0.95,0.166H86.35v-4.471h1.738c0.347,0,0.664,0.059,0.95,0.168
	c0.283,0.113,0.529,0.268,0.731,0.467c0.203,0.199,0.359,0.436,0.47,0.709C90.353,31.154,90.407,31.453,90.407,31.773z
	 M89.346,31.773c0-0.221-0.029-0.422-0.085-0.598c-0.059-0.178-0.14-0.33-0.247-0.453c-0.108-0.125-0.24-0.219-0.395-0.285
	c-0.156-0.064-0.334-0.102-0.531-0.102h-0.694v2.877h0.694c0.197,0,0.375-0.033,0.531-0.098c0.154-0.07,0.286-0.164,0.395-0.289
	c0.107-0.121,0.188-0.273,0.247-0.451C89.316,32.197,89.346,31.996,89.346,31.773z M96.908,34.01h-0.805
	c-0.091,0-0.166-0.021-0.223-0.062c-0.059-0.041-0.099-0.096-0.123-0.16l-0.264-0.781h-1.698l-0.265,0.781
	c-0.02,0.057-0.061,0.107-0.121,0.154c-0.059,0.045-0.131,0.068-0.216,0.068h-0.812l1.732-4.471h1.062L96.908,34.01z M94.036,32.301
	h1.22l-0.41-1.223c-0.026-0.08-0.059-0.172-0.095-0.275c-0.034-0.107-0.071-0.219-0.105-0.344c-0.034,0.125-0.066,0.242-0.101,0.348
	c-0.036,0.105-0.068,0.201-0.099,0.275L94.036,32.301z M98.804,29.539v0.824h1.26v3.646h1.036v-3.646h1.257v-0.824H98.804z
	 M105.764,29.539h-1.043v4.471h1.043V29.539z M112.847,31.773c0,0.322-0.057,0.625-0.167,0.902c-0.111,0.277-0.269,0.52-0.473,0.727
	c-0.202,0.205-0.444,0.365-0.73,0.482c-0.285,0.115-0.602,0.174-0.951,0.174c-0.348,0-0.666-0.059-0.951-0.174
	c-0.286-0.117-0.532-0.277-0.734-0.482c-0.203-0.207-0.361-0.449-0.471-0.727c-0.112-0.277-0.167-0.58-0.167-0.902
	c0-0.324,0.055-0.625,0.167-0.902c0.109-0.279,0.268-0.52,0.471-0.723c0.202-0.207,0.448-0.367,0.734-0.482
	c0.285-0.117,0.604-0.178,0.951-0.178c0.35,0,0.666,0.061,0.951,0.178c0.286,0.119,0.528,0.281,0.73,0.484
	c0.204,0.205,0.361,0.445,0.473,0.723C112.79,31.152,112.847,31.453,112.847,31.773z M111.783,31.773
	c0-0.221-0.026-0.422-0.085-0.598c-0.057-0.176-0.14-0.326-0.246-0.449c-0.109-0.121-0.24-0.217-0.396-0.281
	c-0.153-0.064-0.331-0.1-0.531-0.1c-0.199,0-0.377,0.035-0.533,0.1c-0.157,0.064-0.29,0.16-0.397,0.281
	c-0.106,0.123-0.189,0.273-0.246,0.449c-0.059,0.18-0.087,0.377-0.087,0.598c0,0.223,0.028,0.422,0.087,0.6
	c0.057,0.178,0.14,0.328,0.246,0.449c0.107,0.123,0.24,0.219,0.397,0.281c0.156,0.064,0.334,0.096,0.533,0.096
	c0.2,0,0.378-0.031,0.531-0.096c0.157-0.062,0.286-0.158,0.396-0.281c0.106-0.121,0.189-0.271,0.246-0.449
	C111.757,32.195,111.783,31.996,111.783,31.773z M115.729,29.539h-0.545v4.471h0.914v-2.395c0-0.066,0-0.137-0.008-0.213
	c-0.002-0.072-0.009-0.148-0.015-0.227l2.109,2.664c0.051,0.064,0.105,0.107,0.16,0.135c0.054,0.023,0.123,0.035,0.201,0.035h0.541
	v-4.471h-0.914v2.367c0,0.07,0.002,0.146,0.006,0.229c0.004,0.08,0.01,0.164,0.018,0.25l-2.123-2.686
	c-0.028-0.035-0.055-0.062-0.076-0.084c-0.022-0.02-0.047-0.035-0.071-0.045c-0.024-0.014-0.052-0.02-0.083-0.023
	C115.814,29.541,115.777,29.539,115.729,29.539z M48.959,2.519L47.57,1.481l-8.589,11.496l1.389,1.038L48.959,2.519z M40.843,6.034
	L39.29,5.261l-3.084,6.188l1.552,0.772L40.843,6.034z M37.899,0.485L36.234,0l-3.032,10.438l1.665,0.483L37.899,0.485z M32.5,3.287
	l-1.724-0.178l-0.711,6.873l1.724,0.18L32.5,3.287z M28.627,9.962l-0.592-7.721l-1.729,0.133l0.592,7.722L28.627,9.962z
	 M25.476,10.333l-1.341-5.129l-1.679,0.439l1.344,5.127L25.476,10.333z M22.443,11.256l-1.5-3.218l-1.57,0.731l1.5,3.22
	L22.443,11.256z M19.628,12.71l-0.806-1.139l-1.415,1.001l0.806,1.138L19.628,12.71z M17.113,14.64l-4.067-3.992l-1.214,1.237
	l4.067,3.995L17.113,14.64z M14.985,16.992l-6.292-4.315l-0.975,1.434l6.292,4.315L14.985,16.992z M13.312,19.684L9.35,17.928
	l-0.704,1.584l3.964,1.754L13.312,19.684z M0,21.473l11.737,2.844l0.406-1.686L0.408,19.787L0,21.473z M11.523,25.738l-8.754-0.51
	l-0.104,1.732l8.757,0.508L11.523,25.738z M11.675,30.629l-0.21-1.721l-8.485,1.033l0.21,1.721L11.675,30.629z M12.49,33.693
	l-0.515-1.656l-1.897,0.59l0.515,1.654L12.49,33.693z M13.837,36.561l-0.802-1.537l-6.38,3.322l0.801,1.537L13.837,36.561z
	 M15.674,39.143l-1.062-1.369l-6.128,4.754l1.063,1.369L15.674,39.143z M17.946,41.357l-1.29-1.158l-5.048,5.629l1.29,1.156
	L17.946,41.357z M20.57,43.129l-1.476-0.908l-1.826,2.969l1.476,0.91L20.57,43.129z M23.478,44.402l-1.615-0.629L19.392,50.1
	l1.613,0.631L23.478,44.402z M26.562,45.137l-1.702-0.33l-1.192,6.117l1.699,0.334L26.562,45.137z M29.727,45.311l-1.734-0.023
	l-0.059,4.336l1.734,0.023L29.727,45.311z M34.258,53.184l-1.387-8.27l-1.709,0.285l1.387,8.271L34.258,53.184z M37.615,48.732
	l-1.718-4.766l-1.632,0.588l1.719,4.764L37.615,48.732z M37.201,43.359l6.287,10.725l1.5-0.869l-6.287-10.727L37.201,43.359z
	 M42.124,41.482L41.163,40.5l-1.253,1.197l0.959,0.984L42.124,41.482z M47.629,41.713l-4.322-3.543l-1.1,1.342l4.323,3.541
	L47.629,41.713z M49.373,37.916l-4.415-2.453l-0.84,1.516l4.415,2.455L49.373,37.916z M48.232,33.232l-2.132-0.727l-0.56,1.643
	l2.134,0.725L48.232,33.232z M53.377,30.393l-6.681-0.998l-0.257,1.715l6.684,0.996L53.377,30.393z M51.07,27.822l-0.055-1.734
	l-4.289,0.135l0.055,1.734L51.07,27.822z M51.854,23.658l-0.363-1.695L46.188,23.1l0.365,1.693L51.854,23.658z M49.188,20.314
	l-0.662-1.602l-3.42,1.408l0.662,1.602L49.188,20.314z M53.496,13.036l-0.937-1.459l-9.055,5.808l0.938,1.459L53.496,13.036z
	 M43.991,14.972l-1.179-1.268l-1.369,1.273l1.182,1.268L43.991,14.972z M27.769,26.32c-0.138-0.158-0.309-0.281-0.509-0.367
	c-0.201-0.086-0.43-0.129-0.687-0.129h-0.896v3.713h0.896c0.257,0,0.485-0.043,0.687-0.129c0.2-0.088,0.371-0.209,0.509-0.369
	c0.14-0.16,0.244-0.355,0.319-0.584c0.072-0.23,0.108-0.488,0.108-0.777c0-0.285-0.036-0.543-0.108-0.77
	C28.013,26.676,27.908,26.482,27.769,26.32z M40.001,27.986l-0.038-1.271l-3.852,0.119l3.771-0.805l-0.267-1.242l-3.771,0.803
	l3.568-1.463l-0.484-1.176l-3.562,1.461l3.246-2.072l-0.687-1.072l-3.246,2.076l2.824-2.621l-0.866-0.934l-2.825,2.625l2.312-3.086
	l-1.02-0.762l-2.309,3.082l1.724-3.445l-1.137-0.566l-1.724,3.445l1.082-3.697l-1.221-0.357l-1.08,3.697l0.401-3.832l-1.264-0.131
	l-0.416,3.967l-0.312-3.979l-1.268,0.1l0.303,3.84l-0.983-3.723l-1.227,0.322l0.98,3.727l-1.631-3.49l-1.152,0.537l1.631,3.49
	l-2.227-3.145l-1.037,0.734l2.229,3.146l-2.756-2.697L20.822,20.5l2.754,2.695l-3.189-2.162l-0.713,1.055l3.191,2.16l-3.525-1.557
	l-0.514,1.162l3.524,1.557l-3.746-0.902l-0.299,1.234l3.747,0.904l-3.846-0.221l-0.075,1.27l3.85,0.221l-3.827,0.469l0.155,1.262
	l3.827-0.471l-3.682,1.146l0.377,1.213l3.681-1.145l-3.418,1.783l0.59,1.127l3.415-1.783l-3.044,2.363l0.781,1.004l3.044-2.365
	l-2.573,2.869l0.946,0.85l2.572-2.867l-2.02,3.279l1.082,0.666l2.021-3.283l-1.402,3.592l1.185,0.463l1.4-3.592l-0.738,3.783
	l1.25,0.244l0.736-3.781l-0.053,3.852l1.271,0.018l0.051-3.854l0.638,3.801l1.254-0.211l-0.636-3.799l1.302,3.625l1.196-0.43
	l-1.304-3.627l1.93,3.336l1.103-0.639l-1.93-3.334l2.492,2.938l0.97-0.824l-2.497-2.938l2.979,2.445l0.806-0.982l-2.979-2.445
	l3.37,1.873l0.616-1.111l-3.365-1.871l3.646,1.242l0.412-1.205l-3.649-1.242l3.811,0.572l0.19-1.258l-3.813-0.57L40.001,27.986z
	 M29.352,28.832c-0.144,0.354-0.346,0.656-0.608,0.916c-0.26,0.256-0.575,0.457-0.942,0.602c-0.369,0.145-0.779,0.217-1.228,0.217
	h-2.242v-5.773h2.242c0.448,0,0.858,0.074,1.228,0.221c0.367,0.145,0.683,0.344,0.942,0.602c0.263,0.256,0.465,0.561,0.608,0.912
	c0.145,0.354,0.216,0.734,0.216,1.15C29.567,28.096,29.496,28.48,29.352,28.832z M33.925,25.824h-2.37v1.348h1.815v0.99h-1.815
	v1.375h2.37v1.027h-3.716v-5.771h3.716V25.824z M65.261,39.096c0,0.326-0.053,0.625-0.155,0.893c-0.104,0.27-0.251,0.498-0.44,0.691
	c-0.188,0.191-0.416,0.34-0.681,0.443c-0.264,0.105-0.557,0.156-0.88,0.156H61.47v-4.375h1.635c0.323,0,0.616,0.053,0.88,0.158
	c0.265,0.105,0.493,0.254,0.681,0.445c0.189,0.191,0.337,0.424,0.44,0.693C65.208,38.469,65.261,38.768,65.261,39.096z
	 M64.652,39.096c0-0.27-0.036-0.51-0.108-0.721c-0.073-0.213-0.178-0.393-0.312-0.539c-0.135-0.146-0.298-0.258-0.49-0.334
	c-0.189-0.08-0.403-0.117-0.638-0.117h-1.042v3.416h1.042c0.234,0,0.448-0.039,0.638-0.115c0.192-0.078,0.355-0.189,0.49-0.334
	c0.134-0.146,0.238-0.324,0.312-0.535C64.616,39.604,64.652,39.363,64.652,39.096z M70.571,36.904h-2.697v4.375h2.697v-0.48H68.47
	v-1.494h1.7v-0.463h-1.7v-1.455h2.102V36.904L70.571,36.904z M74.442,40.717c-0.144-0.062-0.265-0.146-0.363-0.258
	c-0.099-0.109-0.173-0.24-0.226-0.393c-0.053-0.154-0.077-0.32-0.077-0.506v-2.656h-0.589v2.66c0,0.252,0.038,0.486,0.119,0.703
	c0.08,0.215,0.195,0.402,0.347,0.561s0.333,0.281,0.549,0.369c0.218,0.09,0.458,0.135,0.727,0.135c0.271,0,0.511-0.045,0.729-0.135
	c0.213-0.088,0.396-0.211,0.547-0.369c0.148-0.158,0.264-0.346,0.345-0.561c0.081-0.217,0.121-0.451,0.121-0.703v-2.66h-0.589v2.66
	c0,0.184-0.028,0.352-0.077,0.504c-0.055,0.152-0.129,0.285-0.228,0.393c-0.1,0.113-0.219,0.195-0.361,0.258
	c-0.144,0.061-0.305,0.092-0.487,0.092C74.747,40.811,74.586,40.779,74.442,40.717z M82.473,36.904h-3.426v0.498h1.421v3.877h0.592
	v-3.877h1.413V36.904L82.473,36.904z M87.288,37.311c-0.149-0.148-0.327-0.26-0.526-0.338c-0.204-0.076-0.426-0.115-0.668-0.115
	c-0.221,0-0.414,0.033-0.582,0.1c-0.167,0.068-0.307,0.156-0.422,0.27c-0.112,0.111-0.201,0.238-0.26,0.385
	c-0.061,0.145-0.091,0.293-0.091,0.447c0,0.193,0.03,0.355,0.091,0.488c0.059,0.131,0.139,0.24,0.236,0.328
	c0.097,0.086,0.207,0.158,0.333,0.215c0.125,0.053,0.254,0.102,0.386,0.143c0.131,0.043,0.26,0.084,0.385,0.123
	s0.238,0.088,0.335,0.145s0.174,0.127,0.234,0.211c0.061,0.086,0.091,0.195,0.091,0.326c0,0.121-0.02,0.229-0.061,0.328
	c-0.04,0.096-0.099,0.182-0.176,0.252c-0.076,0.068-0.169,0.123-0.28,0.162c-0.109,0.039-0.234,0.059-0.376,0.059
	c-0.167,0-0.311-0.023-0.428-0.068c-0.117-0.047-0.218-0.096-0.299-0.152c-0.082-0.055-0.153-0.104-0.207-0.15
	c-0.055-0.047-0.104-0.068-0.146-0.068c-0.028,0-0.055,0.006-0.079,0.021c-0.022,0.018-0.042,0.035-0.059,0.059l-0.172,0.279
	c0.166,0.176,0.365,0.314,0.598,0.418c0.232,0.102,0.49,0.152,0.775,0.152c0.23,0,0.438-0.033,0.619-0.105
	c0.185-0.072,0.336-0.17,0.461-0.293c0.127-0.125,0.222-0.271,0.286-0.439c0.065-0.166,0.097-0.348,0.097-0.537
	c0-0.184-0.029-0.334-0.09-0.459c-0.057-0.123-0.138-0.229-0.236-0.314c-0.1-0.084-0.212-0.156-0.336-0.213
	c-0.125-0.055-0.256-0.105-0.385-0.15c-0.131-0.045-0.259-0.088-0.386-0.131c-0.125-0.039-0.236-0.09-0.335-0.146
	c-0.097-0.057-0.178-0.125-0.238-0.207c-0.061-0.08-0.091-0.182-0.091-0.305c0-0.096,0.019-0.186,0.053-0.266
	c0.034-0.082,0.087-0.154,0.155-0.217c0.066-0.061,0.153-0.107,0.254-0.145c0.102-0.035,0.219-0.053,0.352-0.053
	c0.139,0,0.258,0.018,0.359,0.053c0.097,0.033,0.182,0.072,0.252,0.113c0.068,0.043,0.127,0.08,0.174,0.115s0.087,0.053,0.121,0.053
	c0.032,0,0.059-0.008,0.078-0.023c0.021-0.016,0.039-0.037,0.059-0.068L87.288,37.311z M92.93,40.422
	c-0.076,0.068-0.153,0.129-0.228,0.18c-0.079,0.049-0.159,0.09-0.248,0.123s-0.187,0.057-0.289,0.072
	c-0.104,0.016-0.222,0.023-0.351,0.023c-0.215,0-0.414-0.039-0.6-0.117c-0.186-0.076-0.346-0.189-0.48-0.338
	c-0.136-0.146-0.242-0.328-0.321-0.541s-0.117-0.457-0.117-0.729c0-0.266,0.038-0.504,0.117-0.719
	c0.079-0.213,0.189-0.395,0.329-0.545c0.139-0.148,0.309-0.262,0.502-0.342c0.194-0.08,0.408-0.121,0.643-0.121
	c0.129,0,0.244,0.01,0.345,0.029c0.099,0.02,0.188,0.043,0.263,0.072c0.074,0.027,0.142,0.057,0.195,0.09
	c0.057,0.033,0.104,0.064,0.144,0.094s0.075,0.051,0.105,0.07c0.028,0.021,0.056,0.029,0.085,0.029c0.034,0,0.061-0.008,0.076-0.018
	c0.021-0.016,0.036-0.031,0.051-0.053l0.191-0.271c-0.18-0.172-0.39-0.307-0.619-0.406c-0.234-0.1-0.514-0.148-0.834-0.148
	c-0.325,0-0.622,0.053-0.893,0.162c-0.271,0.111-0.502,0.262-0.694,0.459c-0.193,0.199-0.343,0.436-0.45,0.709
	c-0.106,0.275-0.159,0.576-0.159,0.908c0,0.328,0.049,0.631,0.149,0.904c0.099,0.275,0.24,0.512,0.422,0.707
	c0.178,0.197,0.397,0.35,0.654,0.459c0.258,0.109,0.545,0.162,0.857,0.162c0.361,0,0.67-0.057,0.927-0.172
	c0.254-0.119,0.47-0.279,0.649-0.486l-0.231-0.252c-0.026-0.027-0.057-0.043-0.089-0.043S92.965,40.393,92.93,40.422z
	 M99.486,36.904h-0.598v1.953h-2.355v-1.953h-0.596v4.375h0.596v-1.99h2.355v1.99h0.598V36.904z M102.954,36.904h-0.592v4.375h2.485
	v-0.498h-1.894V36.904z M110.907,41.279h-0.458c-0.053,0-0.096-0.012-0.128-0.039c-0.032-0.025-0.058-0.061-0.072-0.1l-0.41-1.057
	h-1.964l-0.41,1.057c-0.012,0.037-0.038,0.068-0.072,0.098c-0.034,0.027-0.076,0.041-0.127,0.041h-0.46l1.75-4.375h0.602
	L110.907,41.279z M108.041,39.656h1.633l-0.687-1.781c-0.044-0.109-0.089-0.246-0.133-0.41c-0.022,0.084-0.043,0.16-0.065,0.229
	c-0.02,0.07-0.042,0.133-0.062,0.186L108.041,39.656z M113.573,36.904h-0.307v4.375h0.519v-3.115c0-0.041,0-0.088-0.002-0.137
	c-0.002-0.047-0.006-0.098-0.01-0.148l2.533,3.295c0.03,0.037,0.061,0.066,0.091,0.082c0.032,0.018,0.07,0.023,0.117,0.023h0.301
	v-4.375h-0.519v3.1c0,0.047,0,0.096,0.002,0.146c0.002,0.047,0.008,0.1,0.012,0.152l-2.533-3.297
	c-0.032-0.041-0.062-0.066-0.087-0.08C113.664,36.91,113.626,36.904,113.573,36.904z M123.482,39.096
	c0,0.326-0.053,0.625-0.155,0.893c-0.104,0.27-0.251,0.498-0.44,0.691c-0.188,0.191-0.416,0.34-0.68,0.443
	c-0.265,0.105-0.558,0.156-0.881,0.156h-1.637v-4.375h1.637c0.323,0,0.616,0.053,0.881,0.158c0.264,0.105,0.492,0.254,0.68,0.445
	c0.189,0.191,0.337,0.424,0.44,0.693C123.43,38.469,123.482,38.768,123.482,39.096z M122.877,39.096c0-0.27-0.039-0.51-0.111-0.721
	c-0.072-0.213-0.178-0.393-0.312-0.539c-0.134-0.146-0.297-0.258-0.488-0.334c-0.19-0.08-0.404-0.117-0.637-0.117h-1.043v3.416
	h1.043c0.232,0,0.446-0.039,0.637-0.115c0.191-0.078,0.354-0.189,0.488-0.334c0.135-0.146,0.24-0.324,0.312-0.535
	C122.838,39.604,122.877,39.363,122.877,39.096z"/>
</svg>
