<?xml version="1.0" encoding="utf-8"?>
<!-- Generator: Adobe Illustrator 16.0.4, SVG Export Plug-In . SVG Version: 6.00 Build 0)  -->
<!DOCTYPE svg PUBLIC "-//W3C//DTD SVG 1.1//EN" "http://www.w3.org/Graphics/SVG/1.1/DTD/svg11.dtd">
<svg version="1.1" id="Ebene_1" xmlns="http://www.w3.org/2000/svg" xmlns:xlink="http://www.w3.org/1999/xlink" x="0px" y="0px"
	 width="120px" height="53px" viewBox="0 0 120 53" enable-background="new 0 0 120 53" xml:space="preserve">
<path fill="#FFFFFF" d="M61.592,16.912c-1.348,0-2.252-0.963-2.252-2.215c0-1.248,0.904-2.209,2.252-2.209
	c1.346,0,2.246,0.965,2.246,2.209C63.838,15.949,62.938,16.912,61.592,16.912z M61.592,13.316c-0.771,0-1.225,0.523-1.225,1.381
	c0,0.867,0.453,1.381,1.225,1.381c0.766,0,1.217-0.514,1.217-1.381C62.809,13.839,62.357,13.316,61.592,13.316z M66.623,15.416
	v1.446h-1.004v-4.325h1.525c1.217,0,1.74,0.613,1.74,1.412c0,0.863-0.545,1.467-1.74,1.467H66.623L66.623,15.416z M66.623,14.66
	h0.521c0.523,0,0.738-0.264,0.738-0.711c0-0.395-0.232-0.662-0.738-0.662h-0.521V14.66z M73.498,12.537h-2.783v4.325h2.783V16.09
	h-1.775v-1.03h1.361v-0.742h-1.361v-1.01h1.775V12.537L73.498,12.537z M76.137,12.537h-0.529v4.325h0.883v-2.317
	c0-0.129-0.008-0.275-0.02-0.426l2.041,2.579c0.098,0.127,0.193,0.164,0.352,0.164h0.521v-4.325h-0.887v2.289
	c0,0.139,0.01,0.297,0.023,0.465l-2.053-2.6C76.359,12.558,76.309,12.537,76.137,12.537z M60.57,20.561h-1.004v4.326h1.004v-1.842
	h0.244c0.188,0,0.285,0.041,0.355,0.152l0.982,1.506c0.078,0.117,0.162,0.184,0.391,0.184h0.895l-1.305-2.008
	c-0.104-0.162-0.225-0.252-0.377-0.309c0.104-0.057,0.199-0.133,0.295-0.262l1.281-1.748h-0.875c-0.197,0-0.324,0.045-0.432,0.197
	l-0.973,1.414c-0.066,0.092-0.174,0.139-0.322,0.139h-0.16V20.561z M65.873,20.561h-0.527v4.326h0.885v-2.32
	c0-0.127-0.01-0.273-0.021-0.424l2.039,2.576c0.098,0.129,0.197,0.168,0.352,0.168h0.521v-4.326h-0.885v2.287
	c0,0.143,0.01,0.299,0.023,0.465l-2.053-2.598C66.096,20.58,66.045,20.561,65.873,20.561z M73.285,24.934
	c-1.348,0-2.252-0.963-2.252-2.213s0.904-2.207,2.252-2.207c1.344,0,2.244,0.965,2.244,2.207
	C75.529,23.971,74.629,24.934,73.285,24.934z M73.285,21.342c-0.771,0-1.225,0.521-1.225,1.379c0,0.869,0.453,1.381,1.225,1.381
	c0.766,0,1.217-0.512,1.217-1.381C74.502,21.863,74.051,21.342,73.285,21.342z M77.965,24.887h0.908l0.826-2.682
	c0.027-0.084,0.061-0.186,0.086-0.295c0.027,0.109,0.061,0.211,0.086,0.295l0.814,2.682h0.908l1.334-4.326h-0.789
	c-0.166,0-0.293,0.1-0.324,0.217l-0.596,2.256c-0.035,0.139-0.068,0.297-0.1,0.473c-0.037-0.178-0.088-0.334-0.133-0.473
	l-0.693-2.256c-0.045-0.135-0.158-0.217-0.334-0.217h-0.295c-0.166,0-0.293,0.105-0.326,0.217l-0.701,2.256
	c-0.045,0.145-0.096,0.309-0.133,0.496c-0.023-0.18-0.066-0.352-0.105-0.496l-0.594-2.256c-0.035-0.131-0.158-0.217-0.332-0.217
	h-0.844L77.965,24.887z M85.744,24.084v-3.523H84.74v4.326h2.607v-0.803H85.744L85.744,24.084z M92.266,20.561H89.48v4.326h2.785
	v-0.773H90.49v-1.029h1.357v-0.742H90.49v-1.01h1.775V20.561L92.266,20.561z M96.055,24.887h-1.682v-4.326h1.682
	c1.344,0,2.244,0.918,2.244,2.16C98.299,23.971,97.398,24.887,96.055,24.887z M96.055,21.332h-0.672v2.781h0.672
	c0.766,0,1.219-0.527,1.219-1.393C97.273,21.863,96.82,21.332,96.055,21.332z M102.123,24.162c-0.723,0-1.258-0.525-1.258-1.441
	c0-0.826,0.475-1.379,1.223-1.379c0.404,0,0.625,0.078,0.943,0.268c0.062,0.041,0.125,0.062,0.184,0.062
	c0.092,0,0.17-0.053,0.227-0.135l0.291-0.441c-0.348-0.334-0.885-0.582-1.609-0.582c-1.393,0-2.285,0.916-2.285,2.207
	c0,1.27,0.943,2.213,2.209,2.213c0.707,0,1.215-0.139,1.658-0.463v-1.826h-1.541v0.553c0,0.104,0.076,0.178,0.201,0.178h0.43v0.656
	C102.605,24.111,102.4,24.162,102.123,24.162z M108.52,20.561h-2.785v4.326h2.785v-0.773h-1.775v-1.029h1.359v-0.742h-1.359v-1.01
	h1.775V20.561L108.52,20.561z M62.352,28.582h-2.785v4.326h1.01v-1.682h1.479v-0.777h-1.479v-1.096h1.775V28.582L62.352,28.582z
	 M68.926,30.744c0,0.312-0.055,0.604-0.16,0.873c-0.107,0.27-0.262,0.504-0.457,0.703c-0.195,0.197-0.432,0.354-0.707,0.467
	c-0.277,0.111-0.584,0.168-0.92,0.168s-0.643-0.057-0.92-0.168c-0.277-0.113-0.514-0.27-0.713-0.467
	c-0.195-0.199-0.348-0.434-0.457-0.703c-0.107-0.27-0.162-0.561-0.162-0.873s0.055-0.604,0.162-0.873
	c0.109-0.27,0.262-0.504,0.457-0.699c0.199-0.199,0.436-0.355,0.713-0.467c0.277-0.113,0.584-0.172,0.92-0.172
	s0.643,0.059,0.92,0.172c0.275,0.115,0.512,0.271,0.707,0.469s0.35,0.432,0.457,0.699C68.871,30.145,68.926,30.434,68.926,30.744z
	 M67.898,30.744c0-0.215-0.029-0.408-0.084-0.578s-0.133-0.316-0.236-0.436c-0.105-0.117-0.234-0.209-0.383-0.271
	c-0.15-0.062-0.322-0.096-0.514-0.096c-0.195,0-0.367,0.033-0.518,0.096c-0.152,0.062-0.279,0.154-0.383,0.271
	c-0.105,0.119-0.184,0.266-0.24,0.436c-0.055,0.174-0.082,0.363-0.082,0.578s0.027,0.408,0.082,0.58
	c0.057,0.172,0.135,0.318,0.24,0.436c0.104,0.119,0.23,0.211,0.383,0.271c0.15,0.062,0.322,0.094,0.518,0.094
	c0.191,0,0.363-0.031,0.514-0.094c0.148-0.061,0.277-0.152,0.383-0.271c0.104-0.117,0.182-0.264,0.236-0.436
	C67.871,31.152,67.898,30.959,67.898,30.744z M72.627,32.049c-0.105-0.043-0.195-0.107-0.268-0.191
	c-0.074-0.086-0.129-0.188-0.168-0.307c-0.039-0.121-0.059-0.258-0.059-0.408v-2.561h-1.004v2.564c0,0.264,0.043,0.508,0.129,0.729
	c0.084,0.223,0.207,0.414,0.367,0.572c0.16,0.16,0.355,0.287,0.586,0.375c0.229,0.09,0.488,0.133,0.779,0.133
	c0.285,0,0.545-0.043,0.773-0.133c0.23-0.088,0.424-0.215,0.584-0.375c0.16-0.158,0.285-0.352,0.369-0.572
	c0.088-0.221,0.131-0.465,0.131-0.729v-2.564h-1.004v2.564c0,0.15-0.02,0.287-0.059,0.408c-0.037,0.119-0.094,0.221-0.168,0.303
	c-0.072,0.084-0.162,0.148-0.268,0.191c-0.105,0.045-0.227,0.068-0.359,0.068C72.855,32.117,72.734,32.094,72.627,32.049z
	 M77.811,28.582h-0.529v4.326h0.887V30.59c0-0.064-0.002-0.131-0.006-0.205c-0.006-0.07-0.01-0.143-0.018-0.219l2.043,2.576
	c0.049,0.064,0.102,0.105,0.152,0.131c0.055,0.023,0.119,0.035,0.197,0.035h0.521v-4.326h-0.883v2.291c0,0.068,0,0.141,0.004,0.221
	c0.006,0.078,0.012,0.16,0.018,0.242l-2.053-2.6c-0.029-0.033-0.053-0.059-0.076-0.08c-0.021-0.02-0.045-0.035-0.066-0.045
	c-0.025-0.012-0.051-0.018-0.082-0.021C77.893,28.584,77.854,28.582,77.811,28.582z M87.479,30.744c0,0.312-0.053,0.602-0.162,0.867
	c-0.107,0.262-0.258,0.492-0.455,0.686c-0.195,0.191-0.434,0.342-0.707,0.449c-0.277,0.109-0.584,0.162-0.92,0.162h-1.682v-4.326
	h1.682c0.336,0,0.643,0.057,0.92,0.164c0.273,0.109,0.512,0.258,0.707,0.451c0.197,0.191,0.348,0.42,0.455,0.686
	C87.426,30.146,87.479,30.434,87.479,30.744z M86.451,30.744c0-0.215-0.027-0.408-0.082-0.578c-0.057-0.172-0.135-0.318-0.238-0.439
	c-0.105-0.119-0.232-0.211-0.383-0.275c-0.15-0.062-0.322-0.098-0.514-0.098h-0.672v2.783h0.672c0.191,0,0.363-0.031,0.514-0.094
	c0.15-0.068,0.277-0.16,0.383-0.279c0.104-0.119,0.182-0.266,0.238-0.438C86.424,31.154,86.451,30.959,86.451,30.744z M93.77,32.908
	H92.99c-0.088,0-0.16-0.02-0.215-0.061c-0.057-0.039-0.096-0.092-0.119-0.156L92.4,31.938h-1.643l-0.256,0.754
	c-0.02,0.055-0.059,0.105-0.117,0.15c-0.057,0.045-0.127,0.066-0.209,0.066h-0.785l1.676-4.326h1.027L93.77,32.908z M90.99,31.254
	h1.18l-0.396-1.184c-0.025-0.076-0.057-0.164-0.092-0.266c-0.033-0.104-0.068-0.213-0.102-0.332
	c-0.033,0.121-0.064,0.234-0.098,0.336c-0.035,0.104-0.066,0.193-0.096,0.268L90.99,31.254z M95.604,28.582v0.797h1.219v3.529h1.002
	v-3.529h1.217v-0.797H95.604z M102.338,28.582h-1.01v4.326h1.01V28.582z M109.191,30.744c0,0.312-0.055,0.604-0.162,0.873
	s-0.26,0.504-0.457,0.703c-0.195,0.197-0.43,0.354-0.707,0.467c-0.275,0.111-0.582,0.168-0.92,0.168
	c-0.336,0-0.645-0.057-0.92-0.168c-0.277-0.113-0.516-0.27-0.711-0.467c-0.197-0.199-0.35-0.434-0.455-0.703
	c-0.109-0.27-0.162-0.561-0.162-0.873s0.053-0.604,0.162-0.873c0.105-0.27,0.258-0.504,0.455-0.699
	c0.195-0.199,0.434-0.355,0.711-0.467c0.275-0.113,0.584-0.172,0.92-0.172c0.338,0,0.645,0.059,0.92,0.172
	c0.277,0.115,0.512,0.271,0.707,0.469c0.197,0.197,0.35,0.432,0.457,0.699C109.137,30.145,109.191,30.434,109.191,30.744z
	 M108.162,30.744c0-0.215-0.025-0.408-0.082-0.578c-0.055-0.17-0.135-0.316-0.238-0.436c-0.105-0.117-0.232-0.209-0.383-0.271
	c-0.148-0.062-0.32-0.096-0.514-0.096s-0.365,0.033-0.516,0.096c-0.152,0.062-0.281,0.154-0.385,0.271
	c-0.104,0.119-0.184,0.266-0.238,0.436c-0.057,0.174-0.084,0.363-0.084,0.578s0.027,0.408,0.084,0.58
	c0.055,0.172,0.135,0.318,0.238,0.436c0.104,0.119,0.232,0.211,0.385,0.271c0.15,0.062,0.322,0.094,0.516,0.094
	s0.365-0.031,0.514-0.094c0.152-0.061,0.277-0.152,0.383-0.271c0.104-0.117,0.184-0.264,0.238-0.436
	C108.137,31.152,108.162,30.959,108.162,30.744z M111.98,28.582h-0.527v4.326h0.885V30.59c0-0.064,0-0.131-0.008-0.205
	c-0.002-0.07-0.008-0.143-0.014-0.219l2.041,2.576c0.049,0.064,0.102,0.105,0.154,0.131c0.053,0.023,0.119,0.035,0.195,0.035h0.523
	v-4.326h-0.885v2.291c0,0.068,0.002,0.141,0.006,0.221c0.004,0.078,0.01,0.16,0.018,0.242l-2.055-2.6
	c-0.027-0.033-0.053-0.059-0.074-0.08c-0.021-0.02-0.045-0.035-0.068-0.045c-0.023-0.012-0.051-0.018-0.08-0.021
	C112.062,28.584,112.027,28.582,111.98,28.582z M47.373,2.438l-1.344-1.004l-8.311,11.125l1.344,1.004L47.373,2.438z M39.52,5.839
	l-1.502-0.748l-2.984,5.986l1.502,0.748L39.52,5.839z M36.672,0.47L35.061,0l-2.934,10.101l1.611,0.468L36.672,0.47z M31.447,3.181
	l-1.668-0.172l-0.688,6.65l1.668,0.174L31.447,3.181z M27.699,9.64l-0.572-7.471l-1.672,0.128l0.572,7.472L27.699,9.64z
	 M24.65,9.998l-1.297-4.962l-1.625,0.425l1.301,4.961L24.65,9.998z M21.717,10.892l-1.451-3.114l-1.52,0.708l1.451,3.115
	L21.717,10.892z M18.992,12.298l-0.779-1.102l-1.369,0.969l0.779,1.1L18.992,12.298z M16.559,14.166l-3.936-3.862l-1.174,1.197
	l3.936,3.864L16.559,14.166z M14.5,16.441l-6.088-4.174l-0.943,1.387l6.088,4.174L14.5,16.441z M12.881,19.045l-3.834-1.699
	l-0.682,1.535l3.836,1.697L12.881,19.045z M0,20.777l11.357,2.75l0.393-1.629L0.395,19.146L0,20.777z M11.15,24.904L2.68,24.412
	l-0.1,1.676l8.473,0.49L11.15,24.904z M11.297,29.637l-0.203-1.664l-8.211,1l0.203,1.664L11.297,29.637z M12.086,32.602L11.588,31
	l-1.836,0.57l0.498,1.602L12.086,32.602z M13.389,35.377l-0.775-1.488l-6.174,3.215l0.775,1.488L13.389,35.377z M15.166,37.875
	l-1.027-1.324l-5.93,4.6l1.029,1.324L15.166,37.875z M17.365,40.018l-1.248-1.121l-4.885,5.447l1.248,1.117L17.365,40.018z
	 M19.904,41.73l-1.428-0.879l-1.768,2.875l1.428,0.879L19.904,41.73z M22.717,42.965l-1.562-0.609l-2.391,6.121l1.561,0.609
	L22.717,42.965z M25.701,43.676l-1.646-0.32l-1.154,5.92l1.645,0.322L25.701,43.676z M28.764,43.842l-1.678-0.021l-0.057,4.195
	l1.678,0.023L28.764,43.842z M33.148,51.461l-1.342-8.002l-1.654,0.277l1.342,8.002L33.148,51.461z M36.396,47.152l-1.662-4.609
	l-1.578,0.568l1.662,4.609L36.396,47.152z M35.996,41.955l6.084,10.377l1.451-0.842l-6.084-10.377L35.996,41.955z M40.76,40.139
	l-0.93-0.951l-1.213,1.16l0.928,0.951L40.76,40.139z M46.086,40.361l-4.182-3.428L40.84,38.23l4.184,3.428L46.086,40.361z
	 M47.773,36.688l-4.271-2.373l-0.812,1.467l4.271,2.375L47.773,36.688z M46.67,32.156l-2.062-0.703l-0.541,1.59l2.064,0.701
	L46.67,32.156z M51.648,29.408l-6.465-0.965l-0.248,1.658l6.467,0.963L51.648,29.408z M49.416,26.922l-0.053-1.68l-4.15,0.131
	l0.053,1.678L49.416,26.922z M50.174,22.893l-0.352-1.641l-5.131,1.1l0.354,1.639L50.174,22.893z M47.594,19.656l-0.641-1.549
	l-3.309,1.361l0.641,1.551L47.594,19.656z M51.764,12.615l-0.906-1.413l-8.762,5.618l0.908,1.414L51.764,12.615z M42.566,14.488
	l-1.141-1.227l-1.324,1.23l1.143,1.229L42.566,14.488z M26.869,25.469c-0.133-0.154-0.299-0.273-0.492-0.355
	c-0.195-0.084-0.416-0.125-0.664-0.125h-0.867v3.592h0.867c0.248,0,0.469-0.041,0.664-0.125c0.193-0.086,0.359-0.203,0.492-0.355
	c0.135-0.156,0.236-0.346,0.309-0.566c0.07-0.223,0.105-0.473,0.105-0.752c0-0.275-0.035-0.525-0.105-0.746
	C27.105,25.812,27.004,25.625,26.869,25.469z M38.705,27.08l-0.037-1.23l-3.727,0.115l3.648-0.777l-0.258-1.203l-3.648,0.777
	l3.453-1.416l-0.469-1.137l-3.447,1.412l3.141-2.004l-0.664-1.039l-3.141,2.01l2.732-2.537l-0.838-0.902l-2.734,2.539l2.238-2.984
	l-0.986-0.738l-2.234,2.982l1.668-3.334l-1.1-0.549l-1.668,3.334l1.047-3.578L30.5,16.475l-1.045,3.578l0.389-3.707l-1.223-0.127
	l-0.402,3.838l-0.303-3.85l-1.227,0.096l0.293,3.717l-0.951-3.604l-1.188,0.312l0.949,3.607l-1.578-3.379l-1.115,0.52l1.578,3.379
	l-2.154-3.043l-1.004,0.711l2.156,3.043l-2.666-2.609l-0.861,0.879l2.664,2.607l-3.086-2.092l-0.689,1.02l3.088,2.092l-3.412-1.508
	l-0.496,1.127l3.41,1.504l-3.625-0.873l-0.289,1.195l3.625,0.875l-3.721-0.215l-0.072,1.229l3.725,0.215l-3.703,0.453l0.15,1.221
	l3.703-0.455l-3.562,1.109l0.365,1.174l3.561-1.107l-3.307,1.725l0.57,1.09l3.305-1.725l-2.945,2.287l0.756,0.971l2.945-2.287
	l-2.49,2.775l0.916,0.822l2.488-2.775l-1.953,3.174l1.047,0.645l1.955-3.176l-1.357,3.475l1.146,0.447l1.355-3.475l-0.715,3.66
	l1.209,0.236l0.713-3.658l-0.051,3.727l1.23,0.018l0.049-3.73l0.617,3.68l1.213-0.205l-0.615-3.676l1.26,3.508l1.158-0.416
	l-1.262-3.51l1.867,3.229l1.066-0.617l-1.867-3.227l2.412,2.842l0.938-0.797L33.021,31.6l2.883,2.365l0.779-0.951l-2.883-2.365
	l3.262,1.812l0.596-1.076l-3.256-1.811l3.527,1.203l0.398-1.166l-3.531-1.203l3.688,0.555l0.184-1.217l-3.689-0.553L38.705,27.08z
	 M28.4,27.898c-0.139,0.342-0.334,0.635-0.588,0.887c-0.252,0.248-0.557,0.441-0.912,0.582c-0.357,0.139-0.754,0.209-1.188,0.209
	h-2.17V23.99h2.17c0.434,0,0.83,0.07,1.188,0.213c0.355,0.141,0.66,0.332,0.912,0.582c0.254,0.248,0.449,0.543,0.588,0.883
	c0.141,0.342,0.209,0.711,0.209,1.113C28.609,27.186,28.541,27.557,28.4,27.898z M32.826,24.988h-2.293v1.303h1.756v0.959h-1.756
	v1.33h2.293v0.994H29.23V23.99h3.596V24.988z M63.146,37.828c0,0.316-0.051,0.605-0.15,0.865c-0.1,0.262-0.242,0.48-0.426,0.668
	c-0.182,0.186-0.402,0.328-0.658,0.43s-0.539,0.152-0.852,0.152h-1.582v-4.234h1.582c0.312,0,0.596,0.051,0.852,0.152
	s0.477,0.246,0.658,0.432c0.184,0.186,0.326,0.41,0.426,0.672C63.096,37.223,63.146,37.512,63.146,37.828z M62.559,37.828
	c0-0.26-0.035-0.492-0.105-0.697s-0.172-0.379-0.301-0.52c-0.131-0.143-0.289-0.25-0.475-0.324
	c-0.184-0.076-0.391-0.113-0.617-0.113h-1.008v3.305h1.008c0.227,0,0.434-0.037,0.617-0.111c0.186-0.074,0.344-0.182,0.475-0.322
	c0.129-0.143,0.23-0.314,0.301-0.52S62.559,38.088,62.559,37.828z M68.285,35.709h-2.609v4.234h2.609v-0.467h-2.033v-1.445h1.645
	v-0.447h-1.645v-1.408h2.033V35.709L68.285,35.709z M72.031,39.398c-0.139-0.062-0.256-0.143-0.352-0.25
	c-0.096-0.105-0.168-0.232-0.219-0.381s-0.074-0.309-0.074-0.488v-2.57h-0.57v2.574c0,0.244,0.037,0.471,0.115,0.68
	c0.078,0.207,0.189,0.389,0.336,0.543c0.146,0.152,0.322,0.271,0.531,0.357c0.211,0.086,0.443,0.131,0.703,0.131
	c0.262,0,0.494-0.045,0.705-0.131c0.207-0.086,0.383-0.205,0.529-0.357c0.145-0.154,0.256-0.336,0.334-0.543
	c0.078-0.209,0.117-0.436,0.117-0.68v-2.574h-0.57v2.574c0,0.178-0.027,0.34-0.074,0.486c-0.053,0.148-0.125,0.275-0.221,0.381
	c-0.096,0.109-0.211,0.189-0.35,0.248c-0.139,0.061-0.295,0.09-0.471,0.09S72.17,39.459,72.031,39.398z M79.801,35.709h-3.314v0.482
	h1.375v3.752h0.572v-3.752h1.367V35.709L79.801,35.709z M84.461,36.102c-0.145-0.143-0.316-0.252-0.51-0.326
	c-0.197-0.074-0.412-0.111-0.646-0.111c-0.213,0-0.4,0.031-0.562,0.096c-0.162,0.066-0.297,0.152-0.408,0.26
	c-0.109,0.109-0.195,0.232-0.252,0.373c-0.059,0.141-0.088,0.283-0.088,0.434c0,0.188,0.029,0.344,0.088,0.471
	c0.057,0.127,0.135,0.232,0.229,0.318c0.094,0.084,0.201,0.154,0.322,0.209c0.121,0.051,0.246,0.098,0.373,0.139
	s0.252,0.08,0.373,0.117c0.121,0.039,0.23,0.086,0.324,0.141s0.168,0.123,0.227,0.205s0.088,0.188,0.088,0.314
	c0,0.117-0.02,0.221-0.059,0.316c-0.039,0.094-0.096,0.176-0.17,0.244c-0.074,0.066-0.164,0.119-0.271,0.158
	c-0.105,0.037-0.227,0.057-0.363,0.057c-0.162,0-0.301-0.023-0.414-0.066c-0.113-0.045-0.211-0.094-0.289-0.146
	c-0.08-0.055-0.148-0.102-0.201-0.146c-0.053-0.047-0.1-0.066-0.141-0.066c-0.027,0-0.053,0.006-0.076,0.02
	c-0.021,0.018-0.041,0.035-0.057,0.059l-0.166,0.27c0.16,0.17,0.354,0.305,0.578,0.404c0.225,0.098,0.475,0.148,0.75,0.148
	c0.223,0,0.424-0.033,0.6-0.102c0.178-0.07,0.324-0.166,0.445-0.285c0.123-0.121,0.215-0.262,0.277-0.426
	c0.062-0.16,0.094-0.336,0.094-0.52c0-0.176-0.029-0.322-0.088-0.443c-0.055-0.119-0.133-0.221-0.229-0.305
	c-0.096-0.082-0.205-0.15-0.324-0.205c-0.121-0.055-0.248-0.102-0.373-0.146c-0.127-0.043-0.25-0.084-0.373-0.125
	c-0.121-0.039-0.229-0.088-0.324-0.143c-0.094-0.057-0.172-0.121-0.23-0.201c-0.059-0.076-0.088-0.176-0.088-0.295
	c0-0.092,0.018-0.178,0.051-0.258c0.033-0.078,0.084-0.148,0.15-0.207c0.064-0.061,0.148-0.105,0.246-0.141s0.211-0.051,0.34-0.051
	c0.135,0,0.25,0.016,0.348,0.051c0.094,0.031,0.176,0.07,0.244,0.109c0.066,0.041,0.123,0.076,0.168,0.111
	c0.045,0.033,0.084,0.051,0.117,0.051c0.031,0,0.057-0.008,0.076-0.021c0.02-0.018,0.037-0.037,0.057-0.068L84.461,36.102z
	 M89.92,39.113c-0.074,0.066-0.148,0.125-0.221,0.174c-0.076,0.047-0.154,0.086-0.24,0.119c-0.086,0.031-0.18,0.053-0.279,0.068
	c-0.102,0.016-0.215,0.023-0.34,0.023c-0.207,0-0.4-0.039-0.58-0.113s-0.334-0.184-0.465-0.326s-0.234-0.318-0.311-0.523
	c-0.076-0.207-0.113-0.443-0.113-0.707c0-0.256,0.037-0.486,0.113-0.695c0.076-0.205,0.184-0.381,0.318-0.525
	s0.299-0.254,0.486-0.332s0.395-0.117,0.621-0.117c0.125,0,0.236,0.01,0.334,0.027c0.096,0.02,0.182,0.043,0.254,0.07
	s0.137,0.057,0.189,0.088c0.055,0.031,0.1,0.062,0.139,0.09c0.039,0.029,0.072,0.049,0.102,0.07c0.027,0.02,0.055,0.027,0.082,0.027
	c0.033,0,0.059-0.008,0.074-0.018c0.02-0.016,0.035-0.031,0.049-0.051l0.186-0.264c-0.174-0.166-0.377-0.295-0.6-0.393
	c-0.227-0.096-0.496-0.143-0.807-0.143c-0.314,0-0.602,0.051-0.863,0.156c-0.262,0.107-0.486,0.254-0.672,0.445
	c-0.188,0.191-0.332,0.42-0.436,0.686s-0.154,0.557-0.154,0.877c0,0.318,0.047,0.611,0.145,0.877
	c0.096,0.266,0.232,0.494,0.408,0.684c0.172,0.191,0.385,0.338,0.633,0.443c0.25,0.107,0.527,0.158,0.83,0.158
	c0.35,0,0.648-0.055,0.896-0.168c0.246-0.113,0.455-0.27,0.629-0.469l-0.225-0.246c-0.025-0.025-0.055-0.039-0.086-0.039
	S89.953,39.084,89.92,39.113z M96.264,35.709h-0.578v1.889h-2.279v-1.889H92.83v4.234h0.576v-1.926h2.279v1.926h0.578V35.709z
	 M99.619,35.709h-0.572v4.234h2.404v-0.482h-1.832V35.709z M107.314,39.943h-0.443c-0.051,0-0.092-0.014-0.123-0.039
	s-0.057-0.059-0.07-0.098l-0.396-1.021h-1.9l-0.396,1.021c-0.012,0.037-0.037,0.068-0.07,0.096s-0.074,0.041-0.123,0.041h-0.445
	l1.693-4.234h0.582L107.314,39.943z M104.541,38.371h1.58l-0.664-1.723c-0.043-0.105-0.086-0.238-0.129-0.398
	c-0.021,0.082-0.041,0.156-0.062,0.223c-0.02,0.068-0.041,0.129-0.061,0.18L104.541,38.371z M109.895,35.709h-0.297v4.234h0.502
	v-3.016c0-0.041,0-0.084-0.002-0.133c-0.002-0.045-0.006-0.094-0.01-0.143l2.451,3.188c0.029,0.037,0.059,0.064,0.088,0.08
	c0.031,0.016,0.068,0.023,0.113,0.023h0.291v-4.234h-0.502v2.998c0,0.047,0,0.094,0.002,0.143c0.002,0.047,0.008,0.098,0.012,0.148
	l-2.451-3.191c-0.031-0.039-0.061-0.064-0.084-0.078C109.982,35.715,109.945,35.709,109.895,35.709z M119.482,37.828
	c0,0.316-0.051,0.605-0.15,0.865c-0.1,0.262-0.242,0.48-0.426,0.668c-0.182,0.186-0.402,0.328-0.658,0.43s-0.539,0.152-0.852,0.152
	h-1.584v-4.234h1.584c0.312,0,0.596,0.051,0.852,0.152s0.477,0.246,0.658,0.432c0.184,0.186,0.326,0.41,0.426,0.672
	C119.432,37.223,119.482,37.512,119.482,37.828z M118.896,37.828c0-0.26-0.037-0.492-0.107-0.697s-0.172-0.379-0.303-0.52
	c-0.129-0.143-0.287-0.25-0.473-0.324c-0.184-0.076-0.391-0.113-0.615-0.113h-1.01v3.305h1.01c0.225,0,0.432-0.037,0.615-0.111
	c0.186-0.074,0.344-0.182,0.473-0.322c0.131-0.143,0.232-0.314,0.303-0.52S118.896,38.088,118.896,37.828z"/>
</svg>
