<?xml version="1.0" encoding="utf-8"?>
<!-- Generator: Adobe Illustrator 16.0.4, SVG Export Plug-In . SVG Version: 6.00 Build 0)  -->
<!DOCTYPE svg PUBLIC "-//W3C//DTD SVG 1.1//EN" "http://www.w3.org/Graphics/SVG/1.1/DTD/svg11.dtd">
<svg version="1.1" id="Ebene_1" xmlns="http://www.w3.org/2000/svg" xmlns:xlink="http://www.w3.org/1999/xlink" x="0px" y="0px"
	 width="69px" height="50px" viewBox="0 0 69 50" enable-background="new 0 0 69 50" xml:space="preserve">
<path fill="#FFFFFF" d="M38.719,4.57c0,2.526-2.047,4.573-4.573,4.573c-2.524,0-4.571-2.047-4.571-4.573
	c0-2.523,2.047-4.57,4.571-4.57C36.672,0,38.719,2.047,38.719,4.57z M41.981,6.902c2.097,2.089,3.244,4.877,3.244,7.835
	s-1.156,5.747-3.244,7.836c-2.089,2.089-4.878,3.243-7.836,3.243c-2.957,0-5.745-1.154-7.836-3.243
	c-2.088-2.089-3.244-4.878-3.244-7.836s1.156-5.746,3.244-7.835c0.181-0.18,0.369-0.349,0.557-0.521l-2.528-2.528
	c-0.188,0.171-0.368,0.343-0.546,0.521c-1.345,1.345-2.402,2.913-3.138,4.662c-0.762,1.812-1.156,3.729-1.156,5.701
	c0,1.981,0.386,3.899,1.156,5.701c0.735,1.749,1.793,3.317,3.138,4.661c1.345,1.346,2.914,2.403,4.662,3.139
	c1.81,0.762,3.729,1.156,5.701,1.156c1.98,0,3.899-0.386,5.702-1.156c1.747-0.735,3.315-1.793,4.661-3.139
	c1.344-1.344,2.402-2.912,3.136-4.661c0.763-1.811,1.158-3.729,1.158-5.701c0-1.981-0.385-3.898-1.158-5.701
	c-0.733-1.749-1.792-3.317-3.136-4.662c-0.18-0.178-0.359-0.35-0.548-0.521l-2.528,2.528C41.623,6.554,41.802,6.723,41.981,6.902z
	 M32.873,23.676V12.398l-4.546-4.546c-1.953,1.659-3.2,4.124-3.2,6.894C25.127,19.292,28.499,23.056,32.873,23.676L32.873,23.676z
	 M35.418,23.676c4.375-0.62,7.746-4.384,7.746-8.93c0-2.761-1.245-5.234-3.2-6.894l-4.546,4.546V23.676z M63.72,46.857
	c0.331,0.297,0.493,0.708,0.493,1.237c0,0.528-0.162,0.95-0.475,1.255c-0.322,0.305-0.808,0.466-1.461,0.466h-1.131v-3.406h1.175
	C62.923,46.409,63.397,46.562,63.72,46.857z M63.639,48.112c0-0.78-0.447-1.174-1.344-1.174h-0.573v2.331h0.636
	c0.412,0,0.727-0.1,0.95-0.296C63.523,48.785,63.639,48.498,63.639,48.112L63.639,48.112z M57.4,46.409h0.573v3.406h-0.627
	l-1.928-2.483v2.483h-0.573v-3.406h0.573l1.981,2.547V46.409z M49.484,49.045l-0.341,0.771h-0.618l1.496-3.406h0.619l1.498,3.406
	H51.52l-0.341-0.771H49.484z M50.954,48.516l-0.619-1.408l-0.617,1.408H50.954z M44.008,49.815v-3.406h0.573v2.86h1.55v0.546H44.008
	z M37.992,49.815v-3.406h0.573v1.479h1.694v-1.479h0.574v3.406H40.26v-1.398h-1.694v1.398H37.992z M33.734,49.296
	c0.197,0,0.367-0.036,0.51-0.098c0.145-0.064,0.295-0.171,0.448-0.323l0.368,0.376c-0.359,0.403-0.798,0.601-1.318,0.601
	c-0.511,0-0.94-0.161-1.28-0.494c-0.343-0.33-0.512-0.752-0.512-1.254c0-0.501,0.169-0.933,0.52-1.264
	c0.35-0.332,0.78-0.513,1.31-0.513c0.528,0,0.967,0.198,1.326,0.584l-0.369,0.404c-0.159-0.153-0.312-0.27-0.456-0.323
	s-0.313-0.09-0.511-0.09c-0.342,0-0.637,0.107-0.869,0.332c-0.233,0.224-0.35,0.512-0.35,0.852c0,0.349,0.116,0.637,0.35,0.87
	C33.142,49.18,33.42,49.296,33.734,49.296L33.734,49.296z M27.916,46.857c-0.171,0-0.305,0.037-0.413,0.099
	c-0.106,0.071-0.161,0.171-0.161,0.313c0,0.134,0.055,0.242,0.161,0.314c0.108,0.071,0.332,0.152,0.682,0.232
	c0.351,0.08,0.61,0.207,0.788,0.359c0.18,0.152,0.27,0.375,0.27,0.672c0,0.295-0.115,0.537-0.341,0.726
	c-0.225,0.188-0.521,0.278-0.878,0.278c-0.529,0-1.005-0.179-1.417-0.547l0.359-0.43c0.34,0.295,0.698,0.447,1.075,0.447
	c0.189,0,0.332-0.036,0.439-0.115c0.108-0.082,0.162-0.188,0.162-0.314c0-0.135-0.054-0.233-0.153-0.305
	c-0.098-0.072-0.277-0.145-0.529-0.197c-0.25-0.062-0.438-0.117-0.573-0.161c-0.135-0.054-0.242-0.117-0.35-0.198
	c-0.196-0.152-0.305-0.385-0.305-0.699c0-0.313,0.116-0.556,0.34-0.727c0.233-0.169,0.511-0.259,0.853-0.259
	c0.215,0,0.43,0.036,0.646,0.106c0.215,0.072,0.402,0.17,0.557,0.306l-0.308,0.431c-0.096-0.09-0.23-0.162-0.411-0.225
	C28.246,46.895,28.077,46.857,27.916,46.857L27.916,46.857z M22.994,46.938v2.877H22.42v-2.877h-1.03v-0.529h2.646v0.529H22.994z
	 M16.504,49.036c0.152,0.179,0.367,0.269,0.637,0.269c0.269,0,0.475-0.09,0.636-0.269c0.162-0.179,0.233-0.431,0.233-0.744v-1.883
	h0.573v1.91c0,0.492-0.134,0.868-0.403,1.129c-0.268,0.269-0.617,0.394-1.039,0.394s-0.771-0.135-1.04-0.394
	c-0.269-0.269-0.404-0.646-0.404-1.129v-1.91h0.574v1.883C16.271,48.614,16.343,48.857,16.504,49.036z M12.712,46.409v0.537h-1.819
	v0.905h1.631v0.512h-1.631v0.915h1.873v0.537H10.31v-3.406H12.712z M6.857,46.857c0.332,0.297,0.494,0.708,0.494,1.237
	c0,0.528-0.162,0.95-0.475,1.255c-0.323,0.305-0.808,0.466-1.462,0.466h-1.13v-3.406h1.174C6.061,46.409,6.536,46.562,6.857,46.857z
	 M6.769,48.112c0-0.78-0.449-1.174-1.345-1.174H4.858v2.331h0.638c0.411,0,0.726-0.1,0.95-0.296
	C6.66,48.785,6.769,48.498,6.769,48.112L6.769,48.112z M66.4,42.016l-0.762-1.765h-3.425l-0.762,1.765h-1.945l3.532-8.175h1.766
	l3.532,8.175H66.4z M63.926,36.279l-1.03,2.375h2.044L63.926,36.279z M56.736,33.841h1.82v8.175h-1.828v-8.175H56.736z
	 M53.985,34.916c0.779,0.718,1.175,1.705,1.175,2.978s-0.378,2.276-1.14,3.021c-0.763,0.744-1.919,1.111-3.479,1.111h-2.797V33.85
	h2.887C52.084,33.841,53.204,34.199,53.985,34.916L53.985,34.916z M52.641,39.776c0.448-0.423,0.672-1.031,0.672-1.838
	c0-0.808-0.224-1.427-0.672-1.856c-0.448-0.431-1.14-0.645-2.062-0.645h-1.021v4.974h1.155
	C51.555,40.402,52.192,40.197,52.641,39.776z M45.979,33.841v1.624h-4.071v1.685h3.659v1.56h-3.659v1.693h4.205v1.613H40.09v-8.175
	H45.979z M36.244,36.871l-2.215,4.473h-1.085l-2.195-4.473v5.145H28.92v-8.175h2.475l2.105,4.491l2.115-4.491h2.457v8.175h-1.828
	V36.871z M25.083,33.841h1.829v8.175h-1.829V33.841z M16.781,33.841h1.83v3.361l3.091-3.361h2.251l-3.254,3.612
	c0.277,0.396,0.798,1.121,1.559,2.179c0.754,1.066,1.319,1.856,1.695,2.384H21.82l-2.402-3.226l-0.816,0.914v2.312h-1.82V33.841z
	 M12.945,33.841h1.828v8.175h-1.828V33.841z M3.568,38.548l1.451-4.707h1.911l1.442,4.707l1.621-4.707h1.982l-2.851,8.175H7.771
	l-1.792-5.684l-1.775,5.684H2.85L0,33.841h1.98L3.568,38.548z"/>
</svg>
