<?xml version="1.0" encoding="utf-8"?>
<!-- Generator: Adobe Illustrator 16.0.4, SVG Export Plug-In . SVG Version: 6.00 Build 0)  -->
<!DOCTYPE svg PUBLIC "-//W3C//DTD SVG 1.1//EN" "http://www.w3.org/Graphics/SVG/1.1/DTD/svg11.dtd">
<svg version="1.1"
	 id="svg2" xmlns:dc="http://purl.org/dc/elements/1.1/" xmlns:cc="http://creativecommons.org/ns#" xmlns:rdf="http://www.w3.org/1999/02/22-rdf-syntax-ns#" xmlns:svg="http://www.w3.org/2000/svg"
	 xmlns="http://www.w3.org/2000/svg" xmlns:xlink="http://www.w3.org/1999/xlink" x="0px" y="0px" width="82.5px" height="71.25px"
	 viewBox="0 0 82.5 71.25" enable-background="new 0 0 82.5 71.25" xml:space="preserve">
<path id="path22" fill="#FFFFFF" d="M56.073,60.806h1.746v5.559l2.571-2.874h2.188l-2.993,3.343l3.359,3.621h-2.168l-2.958-3.206
	v3.206h-1.746V60.806z M48.573,63.49h1.739v0.714c0.396-0.335,0.757-0.565,1.079-0.696c0.323-0.131,0.65-0.195,0.987-0.195
	c0.693,0,1.277,0.242,1.762,0.726c0.402,0.407,0.607,1.015,0.607,1.816v4.6h-1.728v-3.052c0-0.833-0.038-1.385-0.111-1.658
	c-0.076-0.271-0.205-0.48-0.393-0.622c-0.184-0.144-0.413-0.216-0.688-0.216c-0.353,0-0.657,0.121-0.909,0.354
	c-0.256,0.237-0.432,0.565-0.531,0.985c-0.049,0.213-0.076,0.688-0.076,1.412v2.796h-1.739V63.49z M41.033,63.49h1.766v3.355
	c0,0.652,0.044,1.105,0.135,1.359c0.09,0.254,0.233,0.449,0.432,0.592c0.197,0.144,0.441,0.211,0.732,0.211s0.538-0.067,0.74-0.207
	c0.204-0.139,0.353-0.342,0.45-0.613c0.072-0.199,0.11-0.627,0.11-1.285V63.49h1.752v2.955c0,1.213-0.098,2.045-0.287,2.495
	c-0.236,0.544-0.582,0.962-1.039,1.255c-0.455,0.293-1.035,0.439-1.74,0.439c-0.761,0-1.38-0.17-1.852-0.51
	c-0.469-0.344-0.804-0.818-0.995-1.43c-0.137-0.421-0.205-1.191-0.205-2.304V63.49z M36.279,63.49H36.9
	c0.004-0.91,0.019-1.449,0.042-1.615c0.048-0.386,0.209-0.688,0.486-0.913c0.274-0.226,0.661-0.337,1.167-0.337
	c0.362,0,0.772,0.086,1.228,0.252v1.33c-0.25-0.074-0.457-0.11-0.619-0.11c-0.205,0-0.355,0.044-0.449,0.13
	c-0.066,0.062-0.104,0.195-0.104,0.396l-0.004,0.868h1.106v1.488h-1.106v5.476H36.9v-5.476h-0.621V63.49z M33.342,63.49h1.752v6.963
	h-1.752V63.49z M34.273,60.625c0.306,0,0.571,0.109,0.789,0.334c0.219,0.223,0.33,0.492,0.33,0.807c0,0.311-0.108,0.576-0.327,0.797
	c-0.215,0.219-0.475,0.33-0.78,0.33c-0.31,0-0.575-0.114-0.795-0.34c-0.22-0.224-0.33-0.492-0.33-0.812
	c0-0.307,0.11-0.57,0.328-0.789C33.703,60.734,33.964,60.625,34.273,60.625 M30.094,66.104c-0.116-0.388-0.344-0.703-0.683-0.945
	c-0.341-0.246-0.732-0.366-1.181-0.366c-0.486,0-0.913,0.138-1.28,0.409c-0.229,0.17-0.443,0.473-0.639,0.902H30.094z M32.168,67.48
	h-5.612c0.08,0.492,0.297,0.889,0.65,1.179c0.351,0.294,0.799,0.44,1.345,0.44c0.654,0,1.215-0.228,1.684-0.687l1.472,0.691
	c-0.366,0.521-0.806,0.905-1.318,1.153c-0.511,0.253-1.119,0.377-1.824,0.377c-1.091,0-1.981-0.347-2.667-1.033
	c-0.688-0.691-1.033-1.553-1.033-2.59c0-1.062,0.345-1.943,1.027-2.644c0.685-0.704,1.544-1.056,2.578-1.056
	c1.096,0,1.987,0.352,2.675,1.056c0.687,0.7,1.03,1.625,1.03,2.777L32.168,67.48z M21.17,63.49h1.497v0.881
	c0.161-0.346,0.376-0.609,0.646-0.787c0.269-0.181,0.565-0.271,0.884-0.271c0.226,0,0.464,0.062,0.71,0.178l-0.542,1.508
	c-0.206-0.104-0.374-0.154-0.506-0.154c-0.269,0-0.496,0.166-0.683,0.498c-0.185,0.332-0.278,0.986-0.278,1.96l0.007,0.34v2.812
	H21.17V63.49z M16.396,63.49h0.62c0.005-0.91,0.02-1.449,0.046-1.615c0.045-0.386,0.208-0.688,0.483-0.913
	c0.273-0.226,0.664-0.337,1.168-0.337c0.361,0,0.771,0.086,1.229,0.252v1.33c-0.252-0.074-0.46-0.11-0.623-0.11
	c-0.204,0-0.354,0.044-0.449,0.13c-0.065,0.062-0.102,0.195-0.102,0.396l-0.007,0.868h1.107v1.488h-1.107v5.476h-1.746v-5.476h-0.62
	V63.49z M15.518,28.377c0.376,0.043,0.563,0.444,0.836,0.676c1.347,1.427,2.71,2.841,4.046,4.281
	c0.245,0.384-0.152,0.676-0.382,0.924c-1.419,1.479-2.819,2.976-4.246,4.445c-0.358,0.145-0.764,0.045-1.145,0.076
	c-0.771-0.008-1.542,0.016-2.315-0.01c-0.53-0.11-0.409-0.767-0.041-0.996c0.783-0.822,1.564-1.641,2.345-2.463
	c-2.265-0.002-4.535,0.08-6.795-0.007c-0.365-0.013-0.39-0.445-0.385-0.776c0-0.737-0.006-1.475-0.006-2.21
	c0.014-0.236,0.106-0.32,0.235-0.391c0.129-0.073,0.13-0.078,0.439-0.103c2.104,0,4.409,0.045,6.513,0.045
	c-0.843-0.889-1.687-1.772-2.53-2.659c-0.366-0.343-0.166-0.833,0.42-0.833H15.518L15.518,28.377z M57.732,25.632
	c0.938-0.002,1.262,0.75,0.674,1.272c-1.354,1.355-2.707,2.708-4.06,4.06c3.375,0,7.071-0.064,10.446-0.064
	c0.496,0.035,0.499,0.044,0.705,0.154c0.205,0.113,0.354,0.238,0.377,0.599c0,1.125-0.008,2.251-0.008,3.376
	c0.004,0.51-0.034,1.168-0.621,1.189c-3.625,0.129-7.266,0.004-10.899,0.012c1.254,1.255,2.507,2.508,3.761,3.763
	c0.59,0.354,0.784,1.353-0.065,1.522c-1.236,0.035-2.476,0.005-3.713,0.018c-0.61-0.047-1.261,0.105-1.836-0.123
	c-2.29-2.24-4.538-4.528-6.812-6.788c-0.366-0.379-1.006-0.823-0.613-1.417c2.144-2.195,4.33-4.355,6.492-6.54
	c0.436-0.355,0.734-0.972,1.339-1.034H57.732z M53.482,5.306c12.717,0,22.984,10.268,22.984,22.982
	c0,12.718-10.268,22.986-22.984,22.986c-12.716,0-22.984-10.269-22.984-22.986C30.498,15.573,40.767,5.306,53.482,5.306 M53.482,0
	c-15.587,0-28.29,12.702-28.29,28.289c0,15.587,12.703,28.291,28.29,28.291c15.586,0,28.289-12.704,28.289-28.291
	C81.771,12.702,69.068,0,53.482,0 M53.482,9.282c10.497,0,19.008,8.51,19.008,19.006s-8.511,19.007-19.008,19.007
	c-10.498,0-19.007-8.511-19.007-19.007S42.984,9.282,53.482,9.282 M53.482,8.4c-10.975,0-19.891,8.914-19.891,19.888
	c0,10.976,8.916,19.89,19.891,19.89s19.891-8.914,19.891-19.89C73.373,17.314,64.457,8.4,53.482,8.4 M19.889,18.123
	c10.497,0,19.008,8.51,19.008,19.006c0,10.498-8.511,19.004-19.008,19.004c-10.498,0-19.006-8.506-19.006-19.004
	C0.883,26.633,9.392,18.123,19.889,18.123 M19.889,17.238C8.913,17.238,0,26.154,0,37.129S8.913,57.02,19.889,57.02
	c10.974,0,19.891-8.916,19.891-19.891S30.863,17.238,19.889,17.238"/>
</svg>
