<?xml version="1.0" encoding="UTF-8" standalone="no"?>
<!-- Created with Inkscape (http://www.inkscape.org/) -->

<svg
   xmlns:dc="http://purl.org/dc/elements/1.1/"
   xmlns:cc="http://creativecommons.org/ns#"
   xmlns:rdf="http://www.w3.org/1999/02/22-rdf-syntax-ns#"
   xmlns:svg="http://www.w3.org/2000/svg"
   xmlns="http://www.w3.org/2000/svg"
   xmlns:sodipodi="http://sodipodi.sourceforge.net/DTD/sodipodi-0.dtd"
   xmlns:inkscape="http://www.inkscape.org/namespaces/inkscape"
   version="1.1"
   id="svg10"
   xml:space="preserve"
   width="465.93353"
   height="72.26757"
   viewBox="0 0 465.93351 72.267567"
   sodipodi:docname="logo_digitalomat-mobil.svg"
   inkscape:version="0.91 r13725"><metadata
     id="metadata16"><rdf:RDF><cc:Work
         rdf:about=""><dc:format>image/svg+xml</dc:format><dc:type
           rdf:resource="http://purl.org/dc/dcmitype/StillImage" /><dc:title></dc:title></cc:Work></rdf:RDF></metadata><defs
     id="defs14"><clipPath
       clipPathUnits="userSpaceOnUse"
       id="clipPath26"><path
         d="M 0,800 800,800 800,0 0,0 Z"
         id="path24"
         inkscape:connector-curvature="0" /></clipPath></defs><sodipodi:namedview
     pagecolor="#ffffff"
     bordercolor="#666666"
     borderopacity="1"
     objecttolerance="10"
     gridtolerance="10"
     guidetolerance="10"
     inkscape:pageopacity="0"
     inkscape:pageshadow="2"
     inkscape:window-width="1242"
     inkscape:window-height="755"
     id="namedview12"
     showgrid="false"
     inkscape:zoom="1.2562499"
     inkscape:cx="319.98784"
     inkscape:cy="56.299611"
     inkscape:window-x="38"
     inkscape:window-y="1"
     inkscape:window-maximized="1"
     inkscape:current-layer="g22"
     fit-margin-top="10"
     fit-margin-left="48"
     fit-margin-right="10"
     fit-margin-bottom="10" /><g
     id="g18"
     inkscape:groupmode="layer"
     inkscape:label="681734"
     transform="matrix(1.3333333,0,0,-1.3333333,-10.572364,510.73792)"><g
       id="g20"><g
         id="g22"
         clip-path="url(#clipPath26)"><path
           style="font-style:normal;font-variant:normal;font-weight:normal;font-stretch:normal;font-size:85.33333588px;line-height:1.25;font-family:'Liquid Crystal';-inkscape-font-specification:'Liquid Crystal';letter-spacing:0px;word-spacing:0px;fill:#ffffff;fill-opacity:1;stroke:none"
           d="m 0.68359375,0 7.08203125,7.1679688 22.527344,0 L 33.876953,3.5839844 30.292969,0 0.68359375,0 Z m 46.14843725,0 -3.498047,3.5839844 0,18.3671876 3.498047,3.5 3.583985,-3.5 0,-18.3671876 L 46.832031,0 Z m 16.513672,0 -3.498047,3.5839844 3.583985,3.5839844 22.443359,0 L 89.458984,3.5839844 85.875,0 63.345703,0 Z m 38.986327,0 -3.498046,3.5839844 0,18.3671876 3.498046,3.5 3.58399,-3.5 0,-18.3671876 L 102.33203,0 Z m 12.33399,0 -3.5,3.5839844 3.5,3.5839844 10.41015,0 4.18164,-4.1816407 4.18164,4.1816407 10.41016,0 3.58398,-3.5839844 L 143.84961,0 114.66602,0 Z m 45.76953,0 -3.58399,3.5839844 3.58399,3.5839844 22.44336,0 3.58398,-3.5839844 L 182.87891,0 160.43555,0 Z M 199.49805,0 196,3.5839844 l 0.0859,22.1230466 3.24218,0 3.75391,-3.755859 0,-18.3671876 L 199.49805,0 Z m 89,0 L 285,3.5839844 l 0.0176,4.6171875 c 0.27506,-0.1681523 0.53817,-0.3371415 0.82031,-0.5039063 l 0.94531,-0.5566406 0.48438,0.8203125 c 0.13093,0.043867 0.29084,0.041499 0.5332,0.4492187 0.15739,0.2644268 0.20739,0.6727117 0.13672,0.953125 -0.0685,0.2722268 -0.18962,0.4400644 -0.30469,0.5839844 -0.22618,0.2935064 -0.48362,0.5122674 -0.87109,0.8066404 l -0.0391,0.0293 -0.041,0.02539 c -0.54944,0.34497 -1.09983,0.689637 -1.65039,1.035156 l 0.0547,13.863281 3.24218,0 3.75391,-3.755859 0,-18.3671876 L 288.49805,0 Z m 30.89062,0 -3.58398,3.5839844 0,18.3671876 3.83984,3.755859 3.32813,0 0,-22.1230466 L 319.38867,0 Z m 16.71485,0 -3.58399,3.5839844 3.58399,3.5839844 22.4414,0 3.58399,-3.5839844 L 358.54492,0 336.10352,0 Z m 39.0625,0 -3.5,3.5839844 3.5,3.5839844 10.41015,0 4.18164,-4.1816407 4.18164,4.1816407 10.41016,0 3.58398,-3.5839844 L 404.34961,0 375.16602,0 Z M 0,0.68359375 0.0859375,25.707031 l 3.2421875,0 3.7539062,-3.755859 0,-14.185547 L 0,0.68359375 Z m 34.474609,3.49804685 -3.498047,3.5839844 -0.08594,14.185547 3.839844,3.755859 3.414062,0 -0.08594,-17.941406 -3.583985,-3.5839844 z m 24.691407,0 -3.5,3.5839844 0.08594,17.941406 3.242188,0 3.755859,-3.755859 0,-14.185547 -3.583984,-3.5839844 z m 70.005864,0 -3.49805,3.5839844 -0.0859,14.185547 3.58399,3.5 3.58398,-3.5 0,-14.185547 -3.58398,-3.5839844 z m 26.9121,0 -3.58398,3.6699219 0.0859,17.8554685 3.41211,0 3.66992,-3.755859 0,-14.185547 -3.58399,-3.5839844 z m 30.97657,0 -3.5,3.5839844 -0.084,14.185547 3.83985,3.755859 3.49804,0 -0.0859,-17.8554685 -3.66797,-3.6699219 z m 144.68945,0 -3.58398,3.6699219 0.0859,17.8554685 3.41407,0 3.66796,-3.755859 0,-14.185547 L 331.75,4.1816406 Z m 30.97656,0 -3.49804,3.5839844 -0.0859,14.185547 3.83984,3.755859 3.49805,0 -0.084,-17.8554685 -3.66992,-3.6699219 z m 26.94532,0 -3.49805,3.5839844 -0.0859,14.185547 3.58399,3.5 3.58398,-3.5 0,-14.185547 -3.58398,-3.5839844 z m -96.73633,3.4121094 0,4.800781 7.2539,13.3125 3.32813,0 -0.0859,-7.679687 -9.64258,-10.433594 -0.85351,0 z m 21.16406,0 -9.72852,10.433594 0,7.679687 3.32813,0 7.25195,-13.3125 0,-4.800781 -0.85156,0 z m -27.70313,1.0507812 c -3.06897,1.8139868 -5.9279,3.9710278 -8.32617,5.2421878 -0.73032,0.527653 0.31367,-1.1102 -0.625,-0.875 -0.36721,0.2652 -0.91783,0.662733 -1.46875,1.060547 -0.55133,0.3972 -1.0871,0.816984 -1.45117,1.08789 -1.04961,0.120574 0.0799,-1.409242 -0.97266,-1.287109 -1.06732,0.110693 -3.7382,2.662449 -4.66601,2.974609 -1.18076,0.737 -0.91319,0.341963 -0.0781,-0.458984 0.41339,-0.405107 0.98787,-0.888825 1.58399,-1.390625 0.59848,-0.498627 1.22069,-1.013368 1.77734,-1.425781 -0.95386,0.272306 1.47229,-1.115224 1.25781,-1.402344 -0.21429,-0.287093 -0.42657,-0.575833 -1,-0.5625 -0.2867,0.0063 -0.66294,0.08844 -1.17578,0.283203 -0.25652,0.09748 -0.54683,0.221806 -0.87695,0.380859 -0.32775,0.161814 -0.69191,0.363023 -1.10156,0.59961 -0.84691,0.43964 -0.44209,-0.56293 -0.66211,-0.845703 -6.18756,4.382133 -12.85866,11.69077 -15.78516,15.277343 -1.17169,1.370801 -2.36014,2.760577 -3.51172,4.158204 -0.2362,0.264613 -0.46817,0.535579 -0.67773,0.820312 -0.003,0.0053 -0.005,0.0085 -0.008,0.0098 l -0.01,-0.0098 -0.0176,-0.01953 -0.0352,-0.04102 -0.0703,-0.07617 -0.14257,-0.152343 c -0.0969,-0.09945 -0.19749,-0.195903 -0.30469,-0.292969 -0.0558,-0.04936 -0.11082,-0.09964 -0.16602,-0.148438 -0.0175,-0.016 -0.0221,-0.01639 -0.0508,-0.04492 l -0.17383,-0.189453 c -0.11642,-0.125493 -0.23219,-0.250333 -0.34765,-0.375 -0.46331,-0.497453 -0.92618,-0.983271 -1.38672,-1.457031 -1.92212,-1.977187 -1.68718,-2.674721 -3.5586,-3.488281 l 1.78516,2.091797 c -2.19384,-1.743147 -3.57065,-4.185736 -5.49219,-6.16211 -0.27289,0.23284 -0.40817,0.347745 -1.14062,-0.234375 1.19045,1.39568 3.11132,3.373826 4.16601,4.886719 l -0.4082,0.347656 c -1.3278,-1.279853 -2.84157,-3.605112 -4.16797,-4.884765 -0.13674,0.116626 -0.40859,0.348443 -0.54492,0.464843 -0.13616,0.116214 -0.73164,-0.582163 -1.32617,-1.279297 0.59453,0.697134 1.78632,2.093883 2.38086,2.791016 -0.13615,0.116027 -0.40896,0.348711 -0.54492,0.464844 -0.13675,0.1166 -0.73221,-0.580577 -1.32813,-1.279297 -0.27231,0.23244 -1.14081,-0.231929 -0.68164,0.582031 0.59572,0.69872 1.19199,1.395804 1.78711,2.09375 -2.51745,-2.67512 -4.38978,-3.489505 -4.79883,-3.140625 0.73227,0.582307 0.32361,0.930999 1.05469,1.511719 -2.1942,-1.743933 -4.5254,-3.371617 -2.28125,-0.464844 2.81009,3.408561 2.98488,3.557297 5.84766,6.960938 1.43493,1.698747 2.87166,3.400235 4.31054,5.103515 2.65934,3.121281 5.32303,6.247027 7.98828,9.375 0.90887,-1.213146 1.8173,-2.426891 2.72657,-3.640625 l 0.68164,-0.908203 0.68359,-0.890625 0.68359,-0.890625 0.69141,-0.871093 0.69141,-0.871094 0.58789,-0.734375 0.67968,-0.841797 1.37305,-1.675781 c 1.7144,-2.201054 8.85963,-9.435641 14.58203,-14.048829 2.2112,-1.81084 4.44912,-3.578486 6.74024,-5.248046 0.5671,-0.427387 1.15333,-0.820409 1.72851,-1.232422 0.57738,-0.407667 1.15084,-0.819339 1.74024,-1.203125 0.58585,-0.391107 1.17254,-0.783335 1.75781,-1.173828 0.59415,-0.372947 1.1879,-0.744641 1.78125,-1.1171879 0.354,-0.2689467 0.56125,-0.4615956 0.66992,-0.6035156 0.1152,-0.1428533 0.12594,-0.2355344 0.0859,-0.3027344 -0.0801,-0.1347733 -0.36779,-0.1718518 -0.45899,-0.3261719 z m -42.63086,4.4550778 -3.49804,3.583985 3.58398,3.583984 13.8086,0 c 2.33072,-2.410874 4.99889,-4.95986 7.73046,-7.167969 l -21.625,0 z m -4.69335,4.777344 -2.82813,2.828125 c 0.10521,0.119306 0.21141,0.241426 0.31445,0.357422 l 0.59766,-0.507812 0.67969,0.65625 0.10156,-0.109376 c -0.0788,0.04347 -0.0606,0.04446 0.008,-0.01367 l 0.0508,-0.04297 0.20703,-0.214844 c 0.0352,0.02813 -0.0127,2.84e-4 0.0176,0.02148 l 0.50782,-0.43164 0.71875,0.738281 c 1.21799,1.252747 2.20444,2.415062 3.20898,3.601563 l 0,-3.382813 -3.58398,-3.5 z m 34.48046,2.421875 c -0.16731,0.136267 -0.33682,0.267462 -0.5039,0.404297 l -0.004,0.0039 -0.002,0 c -1.77087,1.427603 -3.69259,3.138345 -5.55469,4.869141 l 0,18.328125 3.58399,3.583984 3.58398,-3.583984 0,-22.527344 -1.10352,-1.078125 z m -194.845699,2.25 -3.498047,3.583984 3.583985,3.583985 6.996093,0 7.167969,-7.167969 -14.25,0 z m 81.558589,0 -3.49804,3.583984 3.58398,3.583985 22.52735,0 3.58398,-3.583985 -3.58398,-3.583984 -22.61329,0 z m 175.66602,0 -3.49805,3.583984 3.58399,3.583985 22.52734,0 3.58399,-3.583985 -3.58399,-3.583984 -22.61328,0 z m -242.291015,0.683594 -7.167969,7.082031 0.08398,14.1875 3.5,3.583985 3.583984,-3.583985 0,-21.269531 z M 0,26.560547 l 0,25.023437 7.0820312,-7.082031 0,-14.1875 -3.7539062,-3.753906 -3.328125,0 z m 34.644531,0 -3.753906,3.753906 0.08594,14.1875 3.583985,3.583985 3.498047,-3.583985 0,-17.941406 -3.414063,0 z m 21.021485,0 0.08594,17.941406 3.498047,3.583985 3.5,-3.583985 0,-14.1875 -3.755859,-3.753906 -3.328125,0 z m 96.833984,0 0.0859,22.123047 3.49804,3.583984 3.49805,-3.583984 0,-18.369141 -3.75391,-3.753906 -3.32812,0 z m 34.90039,0 -3.75391,3.753906 0,18.369141 3.58399,3.583984 3.58398,-3.583984 -0.0859,-22.123047 -3.32813,0 z m 8.59961,0 0.0859,17.941406 3.49804,3.583985 3.49805,-3.583985 0,-14.1875 -3.75391,-3.753906 -3.32812,0 z m 89,0 0.0859,22.123047 3.49804,3.583984 3.49805,-3.583984 0,-18.369141 -3.75391,-3.753906 -3.32812,0 z m 34.56055,0 -3.75586,3.753906 0.0859,18.369141 3.58399,3.583984 3.49805,-3.583984 0,-22.123047 -3.41211,0 z m 8.60547,0 0.0859,22.123047 3.49805,3.583984 3.5,-3.583984 0,-18.369141 -3.75586,-3.753906 -3.32812,0 z m 34.90234,0 -3.75586,3.753906 0,18.369141 3.58398,3.583984 3.58399,-3.583984 -0.084,-22.123047 -3.32812,0 z m -316.236329,0.255859 -3.498047,3.498047 0.08398,18.369141 3.5,3.583984 3.498047,-3.583984 0,-18.369141 -3.583985,-3.498047 z m 55.499999,0 -3.498046,3.498047 0.08398,18.369141 3.499996,3.583984 3.49805,-3.583984 0,-18.369141 -3.58399,-3.498047 z m 26.83985,0 -3.58399,3.498047 0.0859,18.369141 3.58398,3.583984 3.58399,-3.583984 -0.0859,-18.369141 -3.58398,-3.498047 z m 260.5,0 -3.58399,3.498047 0.0859,18.369141 3.58398,3.583984 3.58399,-3.583984 -0.0859,-18.369141 -3.58398,-3.498047 z m -154.1836,4.226563 0,12.861328 3.58399,3.583984 3.58398,-3.583984 0,-4.398438 c -0.83608,-0.981529 -1.67419,-1.96459 -2.50977,-2.945312 -1.4389,-1.70332 -2.87756,-3.404769 -4.3125,-5.103516 l 0,-0.0059 c -0.16775,-0.199449 -0.19529,-0.22976 -0.3457,-0.408203 z m -227.722655,14.05664 -7.16796875,7.167969 29.69531275,0 3.583984,-3.583984 -3.583984,-3.583985 -22.527344,0 z m 55.666016,0 -3.583985,3.583985 3.583985,3.583984 22.443359,0 3.583984,-3.583984 -3.583984,-3.583985 -22.443359,0 z m 140.333979,0 -3.58398,3.583985 3.58398,3.583984 22.44336,0 3.58399,-3.583984 -3.58399,-3.583985 -22.44336,0 z m 40,0 -3.49804,3.583985 3.58398,3.583984 22.44141,0 3.58398,-3.583984 -3.58398,-3.583985 -15.85742,0 c -0.19525,0.26041 -0.39083,0.52082 -0.58594,0.78125 l -0.82617,1.101563 -0.89063,-1.046875 c -0.23776,-0.279041 -0.47518,-0.556934 -0.71289,-0.835938 l -3.6543,0 z"
           transform="matrix(0.74999993,0,0,-0.74999993,43.929263,375.55345)"
           id="path191"
           inkscape:connector-curvature="0" /></g></g></g></svg>