<?xml version="1.0" encoding="UTF-8" standalone="no"?>
<!-- Created with Inkscape (http://www.inkscape.org/) -->

<svg
   xmlns:dc="http://purl.org/dc/elements/1.1/"
   xmlns:cc="http://creativecommons.org/ns#"
   xmlns:rdf="http://www.w3.org/1999/02/22-rdf-syntax-ns#"
   xmlns:svg="http://www.w3.org/2000/svg"
   xmlns="http://www.w3.org/2000/svg"
   xmlns:sodipodi="http://sodipodi.sourceforge.net/DTD/sodipodi-0.dtd"
   xmlns:inkscape="http://www.inkscape.org/namespaces/inkscape"
   version="1.1"
   id="svg10"
   xml:space="preserve"
   width="407.93335"
   height="52.26667"
   viewBox="0 0 407.93333 52.266668"
   sodipodi:docname="logo_digitalomat.svg"
   inkscape:version="0.91 r13725"><metadata
     id="metadata16"><rdf:RDF><cc:Work
         rdf:about=""><dc:format>image/svg+xml</dc:format><dc:type
           rdf:resource="http://purl.org/dc/dcmitype/StillImage" /><dc:title></dc:title></cc:Work></rdf:RDF></metadata><defs
     id="defs14"><clipPath
       clipPathUnits="userSpaceOnUse"
       id="clipPath26"><path
         d="M 0,800 H 800 V 0 H 0 Z"
         id="path24"
         inkscape:connector-curvature="0" /></clipPath></defs><sodipodi:namedview
     pagecolor="#ffffff"
     bordercolor="#666666"
     borderopacity="1"
     objecttolerance="10"
     gridtolerance="10"
     guidetolerance="10"
     inkscape:pageopacity="0"
     inkscape:pageshadow="2"
     inkscape:window-width="1242"
     inkscape:window-height="755"
     id="namedview12"
     showgrid="false"
     inkscape:zoom="1.2562499"
     inkscape:cx="271.98786"
     inkscape:cy="46.298711"
     inkscape:window-x="38"
     inkscape:window-y="1"
     inkscape:window-maximized="1"
     inkscape:current-layer="g22" /><g
     id="g18"
     inkscape:groupmode="layer"
     inkscape:label="681734"
     transform="matrix(1.3333333,0,0,-1.3333333,-58.572349,500.73792)"><g
       id="g20"><g
         id="g22"
         clip-path="url(#clipPath26)"><path
           style="font-style:normal;font-variant:normal;font-weight:normal;font-stretch:normal;font-size:85.33333588px;line-height:1.25;font-family:'Liquid Crystal';-inkscape-font-specification:'Liquid Crystal';letter-spacing:0px;word-spacing:0px;fill:#6f7b8a;fill-opacity:1;stroke:none"
           d="M 0.68359375 0 L 7.765625 7.1679688 L 30.292969 7.1679688 L 33.876953 3.5839844 L 30.292969 0 L 0.68359375 0 z M 46.832031 0 L 43.333984 3.5839844 L 43.333984 21.951172 L 46.832031 25.451172 L 50.416016 21.951172 L 50.416016 3.5839844 L 46.832031 0 z M 63.345703 0 L 59.847656 3.5839844 L 63.431641 7.1679688 L 85.875 7.1679688 L 89.458984 3.5839844 L 85.875 0 L 63.345703 0 z M 102.33203 0 L 98.833984 3.5839844 L 98.833984 21.951172 L 102.33203 25.451172 L 105.91602 21.951172 L 105.91602 3.5839844 L 102.33203 0 z M 114.66602 0 L 111.16602 3.5839844 L 114.66602 7.1679688 L 125.07617 7.1679688 L 129.25781 2.9863281 L 133.43945 7.1679688 L 143.84961 7.1679688 L 147.43359 3.5839844 L 143.84961 0 L 114.66602 0 z M 160.43555 0 L 156.85156 3.5839844 L 160.43555 7.1679688 L 182.87891 7.1679688 L 186.46289 3.5839844 L 182.87891 0 L 160.43555 0 z M 199.49805 0 L 196 3.5839844 L 196.08594 25.707031 L 199.32812 25.707031 L 203.08203 21.951172 L 203.08203 3.5839844 L 199.49805 0 z M 288.49805 0 L 285 3.5839844 L 285.08594 25.707031 L 288.32812 25.707031 L 292.08203 21.951172 L 292.08203 3.5839844 L 288.49805 0 z M 319.38867 0 L 315.80469 3.5839844 L 315.80469 21.951172 L 319.64453 25.707031 L 322.97266 25.707031 L 322.97266 3.5839844 L 319.38867 0 z M 336.10352 0 L 332.51953 3.5839844 L 336.10352 7.1679688 L 358.54492 7.1679688 L 362.12891 3.5839844 L 358.54492 0 L 336.10352 0 z M 375.16602 0 L 371.66602 3.5839844 L 375.16602 7.1679688 L 385.57617 7.1679688 L 389.75781 2.9863281 L 393.93945 7.1679688 L 404.34961 7.1679688 L 407.93359 3.5839844 L 404.34961 0 L 375.16602 0 z M 0 0.68359375 L 0.0859375 25.707031 L 3.328125 25.707031 L 7.0820312 21.951172 L 7.0820312 7.765625 L 0 0.68359375 z M 34.474609 4.1816406 L 30.976562 7.765625 L 30.890625 21.951172 L 34.730469 25.707031 L 38.144531 25.707031 L 38.058594 7.765625 L 34.474609 4.1816406 z M 59.166016 4.1816406 L 55.666016 7.765625 L 55.751953 25.707031 L 58.994141 25.707031 L 62.75 21.951172 L 62.75 7.765625 L 59.166016 4.1816406 z M 129.17188 4.1816406 L 125.67383 7.765625 L 125.58789 21.951172 L 129.17188 25.451172 L 132.75586 21.951172 L 132.75586 7.765625 L 129.17188 4.1816406 z M 156.08398 4.1816406 L 152.5 7.8515625 L 152.58594 25.707031 L 155.99805 25.707031 L 159.66797 21.951172 L 159.66797 7.765625 L 156.08398 4.1816406 z M 187.06055 4.1816406 L 183.56055 7.765625 L 183.47656 21.951172 L 187.31641 25.707031 L 190.81445 25.707031 L 190.72852 7.8515625 L 187.06055 4.1816406 z M 331.75 4.1816406 L 328.16602 7.8515625 L 328.25195 25.707031 L 331.66602 25.707031 L 335.33398 21.951172 L 335.33398 7.765625 L 331.75 4.1816406 z M 362.72656 4.1816406 L 359.22852 7.765625 L 359.14258 21.951172 L 362.98242 25.707031 L 366.48047 25.707031 L 366.39648 7.8515625 L 362.72656 4.1816406 z M 389.67188 4.1816406 L 386.17383 7.765625 L 386.08789 21.951172 L 389.67188 25.451172 L 393.25586 21.951172 L 393.25586 7.765625 L 389.67188 4.1816406 z M 292.93555 7.59375 L 292.93555 12.394531 L 300.18945 25.707031 L 303.51758 25.707031 L 303.43164 18.027344 L 293.78906 7.59375 L 292.93555 7.59375 z M 314.09961 7.59375 L 304.37109 18.027344 L 304.37109 25.707031 L 307.69922 25.707031 L 314.95117 12.394531 L 314.95117 7.59375 L 314.09961 7.59375 z M 243.76562 13.099609 L 240.26758 16.683594 L 243.85156 20.267578 L 259.19727 20.267578 C 261.50178 17.931237 264.08894 15.52657 266.67969 13.486328 L 266.29297 13.099609 L 243.76562 13.099609 z M 269.2207 16.027344 C 269.09399 16.142258 268.91608 16.283334 268.80859 16.388672 C 267.97353 17.189619 267.70596 17.584656 268.88672 16.847656 C 269.0686 16.786463 269.32842 16.623845 269.61914 16.425781 L 269.2207 16.027344 z M 239.07227 17.876953 L 235.48828 21.460938 L 235.48828 21.511719 C 235.9845 22.088217 236.44687 22.604551 236.5625 22.505859 C 236.69883 22.389459 236.97068 22.157642 237.10742 22.041016 C 238.43382 23.320669 239.94759 25.645928 241.27539 26.925781 L 241.68359 26.578125 C 240.6289 25.065232 238.70803 23.087086 237.51758 21.691406 C 238.25003 22.273526 238.38531 22.158621 238.6582 21.925781 C 240.10577 23.414658 241.24491 25.167783 242.65625 26.6875 L 242.65625 26.337891 L 242.36523 25.996094 C 242.4765 26.044465 242.55898 26.090828 242.65625 26.138672 L 242.65625 21.376953 L 239.07227 17.876953 z M 272.75977 19.525391 C 272.62458 19.635605 272.48655 19.741015 272.35156 19.851562 C 270.78859 21.111574 269.12385 22.569494 267.48828 24.064453 L 267.48828 43.904297 L 271.07227 47.488281 L 274.65625 43.904297 L 274.65625 21.376953 L 272.75977 19.525391 z M 235.48828 21.521484 L 235.48828 23.275391 C 235.58912 23.271411 235.68227 23.255936 235.74414 23.203125 C 236.34006 23.901845 236.93552 24.599022 237.07227 24.482422 C 237.20823 24.366289 237.48104 24.133605 237.61719 24.017578 C 237.08552 23.394155 236.12086 22.263174 235.48828 21.521484 z M 78.707031 22.548828 L 75.208984 26.132812 L 78.792969 29.716797 L 85.789062 29.716797 L 92.957031 22.548828 L 78.707031 22.548828 z M 160.26562 22.548828 L 156.76758 26.132812 L 160.35156 29.716797 L 182.87891 29.716797 L 186.46289 26.132812 L 182.87891 22.548828 L 160.26562 22.548828 z M 335.93164 22.548828 L 332.43359 26.132812 L 336.01758 29.716797 L 358.54492 29.716797 L 362.12891 26.132812 L 358.54492 22.548828 L 335.93164 22.548828 z M 93.640625 23.232422 L 86.472656 30.314453 L 86.556641 44.501953 L 90.056641 48.085938 L 93.640625 44.501953 L 93.640625 23.232422 z M 235.48828 24.283203 L 235.48828 24.5625 C 235.91726 24.94319 236.36755 25.366655 236.84961 25.878906 C 236.39615 25.347094 235.9419 24.815078 235.48828 24.283203 z M 0 26.560547 L 0 51.583984 L 7.0820312 44.501953 L 7.0820312 30.314453 L 3.328125 26.560547 L 0 26.560547 z M 34.644531 26.560547 L 30.890625 30.314453 L 30.976562 44.501953 L 34.560547 48.085938 L 38.058594 44.501953 L 38.058594 26.560547 L 34.644531 26.560547 z M 55.666016 26.560547 L 55.751953 44.501953 L 59.25 48.085938 L 62.75 44.501953 L 62.75 30.314453 L 58.994141 26.560547 L 55.666016 26.560547 z M 152.5 26.560547 L 152.58594 48.683594 L 156.08398 52.267578 L 159.58203 48.683594 L 159.58203 30.314453 L 155.82812 26.560547 L 152.5 26.560547 z M 187.40039 26.560547 L 183.64648 30.314453 L 183.64648 48.683594 L 187.23047 52.267578 L 190.81445 48.683594 L 190.72852 26.560547 L 187.40039 26.560547 z M 196 26.560547 L 196.08594 44.501953 L 199.58398 48.085938 L 203.08203 44.501953 L 203.08203 30.314453 L 199.32812 26.560547 L 196 26.560547 z M 285 26.560547 L 285.08594 48.683594 L 288.58398 52.267578 L 292.08203 48.683594 L 292.08203 30.314453 L 288.32812 26.560547 L 285 26.560547 z M 319.56055 26.560547 L 315.80469 30.314453 L 315.89062 48.683594 L 319.47461 52.267578 L 322.97266 48.683594 L 322.97266 26.560547 L 319.56055 26.560547 z M 328.16602 26.560547 L 328.25195 48.683594 L 331.75 52.267578 L 335.25 48.683594 L 335.25 30.314453 L 331.49414 26.560547 L 328.16602 26.560547 z M 363.06836 26.560547 L 359.3125 30.314453 L 359.3125 48.683594 L 362.89648 52.267578 L 366.48047 48.683594 L 366.39648 26.560547 L 363.06836 26.560547 z M 46.832031 26.816406 L 43.333984 30.314453 L 43.417969 48.683594 L 46.917969 52.267578 L 50.416016 48.683594 L 50.416016 30.314453 L 46.832031 26.816406 z M 102.33203 26.816406 L 98.833984 30.314453 L 98.917969 48.683594 L 102.41797 52.267578 L 105.91602 48.683594 L 105.91602 30.314453 L 102.33203 26.816406 z M 129.17188 26.816406 L 125.58789 30.314453 L 125.67383 48.683594 L 129.25781 52.267578 L 132.8418 48.683594 L 132.75586 30.314453 L 129.17188 26.816406 z M 389.67188 26.816406 L 386.08789 30.314453 L 386.17383 48.683594 L 389.75781 52.267578 L 393.3418 48.683594 L 393.25586 30.314453 L 389.67188 26.816406 z M 235.48828 29.347656 L 235.48828 43.904297 L 239.07227 47.488281 L 242.65625 43.904297 L 242.65625 37.814453 C 242.09868 37.160028 241.53972 36.503715 240.98242 35.849609 C 239.54354 34.146329 238.10681 32.444841 236.67188 30.746094 C 236.09636 30.061853 235.88982 29.821856 235.48828 29.347656 z M 7.765625 45.099609 L 0.59765625 52.267578 L 30.292969 52.267578 L 33.876953 48.683594 L 30.292969 45.099609 L 7.765625 45.099609 z M 63.431641 45.099609 L 59.847656 48.683594 L 63.431641 52.267578 L 85.875 52.267578 L 89.458984 48.683594 L 85.875 45.099609 L 63.431641 45.099609 z M 203.76562 45.099609 L 200.18164 48.683594 L 203.76562 52.267578 L 226.20898 52.267578 L 229.79297 48.683594 L 226.20898 45.099609 L 203.76562 45.099609 z M 243.76562 45.099609 L 240.26758 48.683594 L 243.85156 52.267578 L 266.29297 52.267578 L 269.87695 48.683594 L 266.29297 45.099609 L 249.06445 45.099609 C 249.03323 45.141285 249.00192 45.182935 248.9707 45.224609 C 248.93504 45.182753 248.89894 45.141465 248.86328 45.099609 L 243.76562 45.099609 z "
           transform="matrix(0.74999993,0,0,-0.74999993,43.929263,375.55345)"
           id="path191" /><path
           d="m 228.37239,353.44052 c 0.34541,-0.35532 0.69201,-0.72028 1.03949,-1.09337 0.0866,-0.0935 0.17345,-0.18736 0.26077,-0.28148 l 0.13053,-0.14177 c 0.0215,-0.0214 0.0249,-0.022 0.038,-0.034 0.0414,-0.0366 0.0832,-0.0734 0.12506,-0.11042 0.0804,-0.0728 0.15509,-0.14532 0.22775,-0.21991 l 0.10745,-0.1138 0.0531,-0.0585 0.0265,-0.0298 0.0132,-0.0149 0.007,-0.008 c 0.002,9.3e-4 0.004,0.004 0.006,0.008 0.15717,0.21355 0.33106,0.416 0.50821,0.61446 0.86368,1.04822 1.75401,2.09187 2.63278,3.11997 2.19487,2.68993 7.19814,8.17099 11.83881,11.45759 0.16502,-0.21208 -0.13748,-0.96418 0.4977,-0.63445 0.30724,0.17744 0.57925,0.32765 0.82506,0.44901 0.24759,0.11929 0.46544,0.2137 0.65783,0.28681 0.38463,0.14607 0.6673,0.20719 0.88233,0.21192 0.43007,0.01 0.59005,-0.20689 0.75077,-0.42221 0.16086,-0.21534 -1.65974,-1.25543 -0.94434,-1.0512 -0.41749,-0.30931 -0.88411,-0.69601 -1.33297,-1.06998 -0.44709,-0.37635 -0.87716,-0.73922 -1.1872,-1.04305 -0.6263,-0.60071 -0.82817,-0.89654 0.0574,-0.34379 0.69586,0.23412 2.69998,2.14796 3.50047,2.23098 0.78939,0.0916 -0.0585,-1.05533 0.72871,-0.9649 0.27305,0.20318 0.67514,0.51812 1.08864,0.81602 0.41319,0.29836 0.82624,0.59671 1.10165,0.79561 0.704,0.1764 -0.0786,-1.05208 0.46914,-0.65634 1.7987,0.95337 3.94222,2.57019 6.24395,3.93068 0.0684,-0.11574 0.28518,-0.1437 0.34527,-0.24478 0.03,-0.0504 0.021,-0.11929 -0.0654,-0.22643 -0.0815,-0.10644 -0.23694,-0.2507 -0.50244,-0.45241 -0.44501,-0.27941 -0.89017,-0.55912 -1.33578,-0.83883 -0.43895,-0.29287 -0.87819,-0.58604 -1.31758,-0.87937 -0.44205,-0.28784 -0.8733,-0.597 -1.30633,-0.90275 -0.43139,-0.30901 -0.87064,-0.60426 -1.29597,-0.9248 -1.71834,-1.25217 -3.39628,-2.57804 -5.05468,-3.93617 -4.2918,-3.45989 -9.6504,-8.88449 -10.9362,-10.53528 l -1.03063,-1.25735 -0.50983,-0.63163 -0.44013,-0.55023 -0.51842,-0.65385 -0.51871,-0.65383 -0.51279,-0.66758 -0.51294,-0.66804 -0.51132,-0.68092 c -0.68195,-0.9103 -1.3639,-1.82045 -2.04555,-2.73031 -1.99894,2.34598 -3.9958,4.68973 -5.9903,7.03069 -1.07916,1.27746 -2.15684,2.55331 -3.23304,3.82737 -2.14708,2.55273 -2.27864,2.66564 -4.38621,5.22206 -1.68311,2.18008 0.065,0.9587 1.71065,-0.34925 -0.54831,0.43554 -0.24152,0.69718 -0.79072,1.13391 0.30679,0.26166 1.71064,-0.34911 3.59873,-2.35545 -0.44634,0.52346 -0.89239,1.04616 -1.33918,1.5702 -0.34438,0.61047 0.30678,0.26166 0.51101,0.43599 0.44694,-0.52404 0.89284,-1.04689 0.9954,-0.95944 0.10197,0.0871 0.30665,0.26166 0.40876,0.34868 -0.4459,0.52285 -1.33933,1.5702 -1.78523,2.09305 0.4459,-0.52285 0.89239,-1.0463 0.99451,-0.95914 0.10225,0.0873 0.30679,0.26165 0.40935,0.34912 0.9948,-0.95974 2.12901,-2.70382 3.12486,-3.66371 l 0.30649,0.26136 c -0.79102,1.13467 -2.23217,2.61695 -3.12501,3.66371 0.54934,-0.43659 0.65146,-0.34957 0.85613,-0.17494 1.44115,-1.48228 2.4734,-3.31429 4.11878,-4.62165 l -1.33844,1.56916 c 1.40356,-0.61017 1.2276,-1.13332 2.66919,-2.61621"
           style="fill:#00aad0;fill-opacity:1;fill-rule:nonzero;stroke:none;stroke-width:0.14799251"
           id="path4780"
           inkscape:connector-curvature="0"
           sodipodi:nodetypes="ccccccccccccccccccccccccccccccccccccccccccccccccccccccccccccccccccccc" /></g></g></g></svg>