<?xml version="1.0" encoding="UTF-8" standalone="no"?>
<!-- Generator: Adobe Illustrator 16.0.4, SVG Export Plug-In . SVG Version: 6.00 Build 0)  -->

<svg
   xmlns:dc="http://purl.org/dc/elements/1.1/"
   xmlns:cc="http://creativecommons.org/ns#"
   xmlns:rdf="http://www.w3.org/1999/02/22-rdf-syntax-ns#"
   xmlns:svg="http://www.w3.org/2000/svg"
   xmlns="http://www.w3.org/2000/svg"
   xmlns:sodipodi="http://sodipodi.sourceforge.net/DTD/sodipodi-0.dtd"
   xmlns:inkscape="http://www.inkscape.org/namespaces/inkscape"
   version="1.1"
   id="Ebene_1"
   x="0px"
   y="0px"
   width="431px"
   height="456px"
   viewBox="0 0 431 456"
   enable-background="new 0 0 431 456"
   xml:space="preserve"
   inkscape:version="0.91 r13725"
   sodipodi:docname="wahlblume.svg"><metadata
     id="metadata103"><rdf:RDF><cc:Work
         rdf:about=""><dc:format>image/svg+xml</dc:format><dc:type
           rdf:resource="http://purl.org/dc/dcmitype/StillImage" /><dc:title></dc:title></cc:Work></rdf:RDF></metadata><defs
     id="defs101" /><sodipodi:namedview
     pagecolor="#ffffff"
     bordercolor="#666666"
     borderopacity="1"
     objecttolerance="10"
     gridtolerance="10"
     guidetolerance="10"
     inkscape:pageopacity="0"
     inkscape:pageshadow="2"
     inkscape:window-width="1242"
     inkscape:window-height="755"
     id="namedview99"
     showgrid="false"
     inkscape:zoom="1"
     inkscape:cx="199.5"
     inkscape:cy="215.93472"
     inkscape:window-x="38"
     inkscape:window-y="1"
     inkscape:window-maximized="1"
     inkscape:current-layer="Ebene_1" /><circle
     style="opacity:0.3;fill:#88c84b"
     id="circle5"
     r="110.702"
     cy="345.00601"
     cx="296.82901" /><path
     style="opacity:0.3;fill:#00abd0"
     inkscape:connector-curvature="0"
     id="path7"
     d="m 247.735,259.495 c 0,68.41 -55.455,123.867 -123.866,123.867 C 55.456,383.362 0,327.905 0,259.495 0,191.083 55.456,135.624 123.869,135.624 c 68.411,0 123.866,55.459 123.866,123.871 z" /><path
     style="opacity:0.4;fill:#a3c0dd"
     inkscape:connector-curvature="0"
     id="path9"
     d="m 430.609,155.376 c 0,85.812 -69.562,155.375 -155.375,155.375 -85.813,0 -155.377,-69.563 -155.377,-155.375 C 119.857,69.562 189.421,0 275.234,0 361.047,0 430.609,69.562 430.609,155.376 Z" /><circle
     style="fill:#00abd0"
     id="circle11"
     r="75.919998"
     cy="258.655"
     cx="236.74001" /><g
     id="g45" /><path
     style="fill:#ffffff"
     d="M 284.96484 235.97656 C 284.83723 235.98123 284.70586 235.99528 284.56836 236.01953 C 283.82936 236.15053 283.29675 236.46856 282.96875 236.97656 C 282.64075 237.48356 282.54006 238.09183 282.66406 238.79883 C 282.76706 239.37883 283.02255 239.77252 283.43555 239.97852 C 283.84655 240.18452 284.32595 240.23958 284.87695 240.14258 C 285.55095 240.02358 286.05939 239.71384 286.40039 239.21484 C 286.73939 238.71484 286.84484 238.09833 286.71484 237.36133 C 286.61684 236.80033 286.37147 236.41227 285.98047 236.19727 C 285.68722 236.03677 285.34767 235.96255 284.96484 235.97656 z M 258.94336 241.63281 L 253.58594 242.57422 L 247.30273 262.13672 L 247.20898 262.15234 L 242.35547 244.55469 L 237.32422 245.44141 L 236.52539 269.0625 L 239.9375 268.46094 L 240.40234 254.34375 C 240.47234 251.95375 240.44722 250.13848 240.32422 248.89648 L 240.41992 248.87891 L 245.54492 267.47266 L 248.73633 266.91211 L 255.41992 246.23633 L 255.51172 246.2207 C 255.30972 247.9257 255.17533 249.77925 255.11133 251.78125 L 254.67383 265.86328 L 258.20703 265.24023 L 258.94336 241.63281 z M 286.33984 242.51758 L 282.67969 243.16406 L 282.03906 261.03906 L 285.7168 260.39062 L 286.33984 242.51758 z M 277.72656 244.03711 L 274.92188 244.53125 L 274.39062 247.16211 L 274.23438 247.18945 C 273.66938 246.35745 272.98383 245.76983 272.17383 245.42383 C 271.36283 245.08183 270.45231 244.99778 269.44531 245.17578 C 267.92831 245.44378 266.63173 246.21881 265.55273 247.50781 C 264.47273 248.79681 263.73298 250.41809 263.33398 252.37109 C 262.93498 254.32609 262.91906 256.35317 263.28906 258.45117 C 263.62606 260.36117 264.31456 261.76688 265.35156 262.67188 C 266.38856 263.57687 267.63952 263.89862 269.10352 263.64062 C 271.08752 263.29062 272.72191 261.95586 274.00391 259.63086 L 274.09766 259.61328 L 274.25391 262.41211 L 277.08789 261.91211 L 277.72656 244.03711 z M 271.07617 248.02539 C 271.62977 248.03533 272.12616 248.21616 272.56641 248.56641 C 273.15141 249.03741 273.5265 249.72858 273.6875 250.64258 C 273.9695 252.24158 273.96483 253.76403 273.67383 255.20703 C 273.38183 256.64903 272.89675 257.84592 272.21875 258.79492 C 271.53975 259.74592 270.77583 260.29531 269.92383 260.44531 C 269.17583 260.57631 268.5452 260.4187 268.0332 259.9707 C 267.5202 259.5187 267.16942 258.76213 266.98242 257.70312 C 266.72242 256.22912 266.70469 254.76364 266.92969 253.30664 C 267.15469 251.84764 267.58761 250.65089 268.22461 249.71289 C 268.86161 248.77489 269.62091 248.22827 270.50391 248.07227 C 270.70116 248.03752 270.89164 248.02208 271.07617 248.02539 z M 216.37305 249.07227 L 212.41602 249.76953 L 202.52344 266.80469 L 202.48828 269.97461 L 212.17578 268.26562 L 211.97266 273.39258 L 215.53711 272.76367 L 215.72656 267.64062 L 218.85742 267.08789 L 218.98633 263.90039 L 215.85547 264.45312 L 216.37305 249.07227 z M 196.60156 252.62305 L 193.51758 253.16797 L 186.47461 259.50195 L 188.59375 261.85742 L 191.18359 259.52148 C 191.90659 258.89048 192.51681 258.23655 193.00781 257.56055 C 192.76581 259.46655 192.63514 261.22498 192.61914 262.83398 L 192.06445 276.90234 L 195.77148 276.25 L 196.60156 252.62305 z M 213.00586 253.9375 C 212.73086 256.5675 212.55442 258.61498 212.48242 260.08398 L 212.27148 265.08594 L 206.08789 266.17578 L 211.28711 257.22852 C 211.97711 256.03452 212.50886 254.94694 212.88086 253.96094 L 213.00586 253.9375 z M 223.9375 266.88281 C 223.80316 266.88531 223.66283 266.89833 223.51758 266.92383 C 222.64558 267.07783 222.01028 267.45464 221.61328 268.05664 C 221.21628 268.65564 221.09409 269.387 221.24609 270.25 C 221.34109 270.789 221.58461 271.21439 221.97461 271.52539 C 222.36661 271.83539 222.9058 271.93155 223.5918 271.81055 C 224.3908 271.66955 224.99067 271.28902 225.38867 270.66602 C 225.78867 270.04502 225.91744 269.32858 225.77344 268.51758 C 225.66244 267.88458 225.40405 267.43592 224.99805 267.16992 C 224.6943 266.97042 224.34053 266.87531 223.9375 266.88281 z "
     id="path87" /><path
     style="font-style:italic;font-variant:normal;font-weight:300;font-stretch:normal;font-size:medium;line-height:125%;font-family:'Open Sans';-inkscape-font-specification:'Open Sans Light Italic';letter-spacing:0px;word-spacing:0px;fill:#8891ae;fill-opacity:1;stroke:none;stroke-width:1px;stroke-linecap:butt;stroke-linejoin:miter;stroke-opacity:1"
     d="M 353.86328 87.974609 L 353.00781 88.123047 L 352.1875 92.443359 L 349.36914 93.214844 L 349.33398 94.328125 L 352.16797 93.833984 L 351.8125 103.91797 C 351.75308 105.39224 351.78933 106.51841 351.92188 107.29883 C 352.11071 108.41065 352.53515 109.21278 353.19531 109.70312 C 353.85366 110.18277 354.69739 110.3333 355.72461 110.1543 C 356.44055 110.02954 357.29584 109.7261 358.29297 109.24414 L 358.05859 107.86523 C 357.23423 108.29507 356.46924 108.57041 355.76367 108.69336 C 354.45631 108.92119 353.67816 108.29263 353.42578 106.80664 C 353.30774 106.11175 353.27178 105.21533 353.32031 104.11719 L 353.69141 93.568359 L 358.09766 92.800781 L 358.15625 91.453125 L 353.70508 92.228516 L 353.86328 87.974609 z M 319.43359 91.595703 C 319.03931 91.664413 318.7582 91.8965 318.58984 92.289062 C 318.42149 92.681634 318.38647 93.171785 318.48633 93.759766 C 318.54988 94.133938 318.67914 94.412923 318.87109 94.599609 C 319.07161 94.773801 319.32214 94.835636 319.62305 94.783203 C 319.9862 94.719919 320.25157 94.49218 320.41992 94.099609 C 320.58828 93.707039 320.62107 93.205064 320.51758 92.595703 C 320.38684 91.825984 320.02502 91.492639 319.43359 91.595703 z M 347.7207 93.015625 C 347.39529 93.033809 347.05524 93.074338 346.69727 93.136719 C 346.00207 93.257865 345.37779 93.492846 344.82812 93.841797 C 344.28884 94.188933 343.79801 94.632463 343.35547 95.171875 C 342.91112 95.700597 342.39731 96.533021 341.81055 97.669922 L 341.7168 97.685547 L 341.61133 94.335938 L 340.36719 94.552734 L 339.73242 112.60938 L 341.25781 112.34375 L 341.50391 104.35938 C 341.5654 102.70862 341.83349 101.13783 342.30664 99.646484 C 342.77979 98.155135 343.39831 96.990231 344.16406 96.152344 C 344.92982 95.314457 345.80005 94.81059 346.77539 94.640625 C 347.4602 94.521291 348.06127 94.500798 348.57617 94.576172 L 348.64844 93.027344 C 348.35558 93.00133 348.04612 92.997441 347.7207 93.015625 z M 332.02148 95.789062 C 331.74868 95.794638 331.46564 95.823468 331.16992 95.875 C 329.61354 96.146221 328.2753 96.917713 327.15625 98.191406 C 326.04758 99.463293 325.27514 101.05206 324.83984 102.95508 C 324.40456 104.85808 324.35105 106.77594 324.67969 108.71094 C 325.03556 110.80628 325.81724 112.3549 327.02344 113.35547 C 328.22781 114.34535 329.72645 114.6839 331.52148 114.37109 C 333.17126 114.08359 334.66093 113.44391 335.98828 112.45312 L 335.73242 110.94727 C 334.37083 111.98805 333.00439 112.62655 331.63477 112.86523 C 330.19252 113.11656 329.00991 112.85004 328.08594 112.06445 C 327.16016 111.26818 326.54763 109.98855 326.24805 108.22461 C 326.14997 107.64732 326.09182 107.11795 326.07422 106.63672 L 326.58789 106.54688 C 329.92894 105.96466 332.35817 105.01736 333.87695 103.70703 C 335.40611 102.39489 336.00637 100.77288 335.67773 98.837891 C 335.48709 97.715381 334.98429 96.888552 334.16797 96.359375 C 333.55573 95.962498 332.8399 95.772335 332.02148 95.789062 z M 331.76367 97.236328 C 332.28837 97.235701 332.74803 97.383257 333.14258 97.677734 C 333.67719 98.057871 334.0053 98.605999 334.12695 99.322266 C 334.61719 102.20872 332.17881 104.11988 326.81445 105.05469 L 326.05273 105.1875 C 326.2211 103.03381 326.78107 101.24052 327.73438 99.808594 C 328.69623 98.36417 329.85755 97.523976 331.2168 97.287109 C 331.40616 97.254111 331.58877 97.236537 331.76367 97.236328 z M 320.07227 98.089844 L 318.57812 98.349609 L 317.94336 116.4082 L 319.46875 116.14062 L 320.07227 98.089844 z M 308.86523 99.826172 C 308.58842 99.831758 308.29764 99.861175 307.99414 99.914062 C 306.76978 100.12742 305.6801 100.68552 304.72266 101.58984 C 303.76339 102.48346 303.00027 103.68872 302.43555 105.20703 L 302.3418 105.22461 C 302.07826 103.86164 301.59003 102.87297 300.87695 102.25977 C 300.16387 101.64656 299.25805 101.43529 298.1582 101.62695 C 297.00648 101.82766 295.9529 102.32535 294.99805 103.11914 C 294.05357 103.91112 293.26944 104.98324 292.64453 106.33594 L 292.55078 106.35156 L 292.49219 102.89453 L 291.24805 103.11328 L 290.61328 121.16992 L 292.13867 120.9043 L 292.40039 113.01562 C 292.46214 111.17771 292.72104 109.55366 293.17578 108.14258 C 293.63051 106.73148 294.28498 105.58349 295.13867 104.69727 C 295.99054 103.80034 296.96655 103.25611 298.06641 103.06445 C 299.66429 102.786 300.62658 103.61877 300.95703 105.56445 C 301.02416 105.96001 301.04217 106.84895 301.00977 108.23047 L 300.55859 119.4375 L 302.14453 119.16016 L 302.43164 110.55859 C 302.52116 108.06643 303.06419 105.97845 304.06055 104.29688 C 305.06547 102.60279 306.3827 101.61396 308.01172 101.33008 C 308.80029 101.19266 309.45622 101.31532 309.98047 101.69727 C 310.50289 102.06852 310.83285 102.66511 310.97266 103.48828 C 311.07432 104.08695 311.10599 105.05084 311.06445 106.37891 L 310.5957 117.6875 L 312.15234 117.41602 L 312.63867 105.93945 C 312.64801 104.92518 312.63959 104.27078 312.61133 103.97852 C 312.59163 103.67375 312.55462 103.36666 312.50195 103.05664 C 312.29315 101.82723 311.79166 100.94686 310.99609 100.41406 C 310.40583 100.0051 309.69566 99.809415 308.86523 99.826172 z M 259.36328 100.87109 C 258.91861 100.86328 258.50567 100.89299 258.12695 100.95898 C 256.61207 101.22298 255.498 101.83612 254.78516 102.79688 C 254.08271 103.75581 253.70266 105.16414 253.64453 107.02344 L 253.53516 109.68359 L 250.38281 110.46484 L 250.34766 111.57617 L 253.53906 111.02148 L 252.88477 130.38672 C 252.82535 131.86099 252.60567 132.92249 252.22461 133.57227 C 251.84355 134.22204 251.19629 134.62604 250.2832 134.78516 C 249.79554 134.87018 249.26258 134.876 248.68359 134.80078 L 248.92969 136.24414 C 249.52449 136.34959 250.07032 136.35827 250.56836 136.27148 C 251.85497 136.04727 252.80001 135.47612 253.40234 134.55664 C 254.0065 133.64785 254.33275 132.30233 254.38281 130.52148 L 255.06445 110.75586 L 258.92383 110.08203 L 258.95312 108.74023 L 255.0918 109.41211 L 255.19141 106.6875 C 255.2446 105.30236 255.51848 104.27513 256.01367 103.60547 C 256.51743 102.9233 257.26759 102.49585 258.26367 102.32227 C 258.88623 102.2138 259.67327 102.22609 260.625 102.35742 L 260.79492 101.00586 C 260.2843 100.92423 259.80795 100.87891 259.36328 100.87109 z M 286.89844 103.61523 C 286.57302 103.63342 286.23102 103.672 285.87305 103.73438 C 285.17786 103.85552 284.55553 104.0905 284.00586 104.43945 C 283.46657 104.78659 282.97574 105.23012 282.5332 105.76953 C 282.08885 106.29825 281.57309 107.13262 280.98633 108.26953 L 280.89258 108.28516 L 280.78906 104.93555 L 279.54297 105.15234 L 278.9082 123.20898 L 280.43359 122.94336 L 280.67969 114.95898 C 280.74118 113.30822 281.00927 111.73743 281.48242 110.24609 C 281.95558 108.75474 282.57409 107.58984 283.33984 106.75195 C 284.1056 105.91407 284.97584 105.4102 285.95117 105.24023 C 286.63599 105.12093 287.23705 105.09845 287.75195 105.17383 L 287.82617 103.62695 C 287.53331 103.60094 287.22385 103.59705 286.89844 103.61523 z M 268.7168 106.80469 C 268.29069 106.80396 267.84387 106.84442 267.37695 106.92578 C 265.74793 107.20966 264.37321 107.94449 263.25 109.13086 C 262.1268 110.31722 261.33705 111.86979 260.88281 113.78711 C 260.42859 115.70442 260.37586 117.68271 260.72266 119.72461 C 261.09306 121.90549 261.86925 123.49777 263.05469 124.50195 C 264.24869 125.49364 265.80176 125.82293 267.71094 125.49023 C 269.39183 125.19731 270.7928 124.45785 271.91602 123.27148 C 273.03922 122.08512 273.81402 120.51505 274.24023 118.55859 C 274.675 116.58963 274.71316 114.55135 274.35547 112.44531 C 274.00868 110.40341 273.22527 108.8955 272.00195 107.91992 C 271.09089 107.17887 269.99512 106.80688 268.7168 106.80469 z M 229.57422 107.66797 L 228.04883 107.93359 L 227.20508 132.21875 L 228.74609 131.95117 L 229.57422 107.66797 z M 268.50586 108.23438 C 269.47573 108.23666 270.30131 108.52141 270.98242 109.08789 C 271.89057 109.84322 272.48406 111.04311 272.76367 112.68945 C 273.09048 114.61375 273.0841 116.43724 272.74609 118.1582 C 272.41664 119.86666 271.80942 121.22736 270.92383 122.24023 C 270.04679 123.24061 268.94861 123.85435 267.63086 124.08398 C 264.70485 124.59388 262.93151 123.0214 262.31055 119.36523 C 262.01279 117.61197 262.03767 115.90187 262.38477 114.23438 C 262.73004 112.55618 263.34683 111.21014 264.23242 110.19727 C 265.1162 109.17371 266.19971 108.55038 267.48633 108.32617 C 267.8417 108.26424 268.18257 108.23361 268.50586 108.23438 z M 243.46094 111.22461 C 243.15861 111.23327 242.83917 111.26741 242.50195 111.32617 C 239.88722 111.78183 237.9453 113.4306 236.67578 116.27148 L 236.58203 116.28711 L 236.55664 112.64258 L 235.2793 112.86523 L 234.64453 130.92383 L 236.16992 130.6582 L 236.45898 122.73242 C 236.53112 120.8927 236.8059 119.26924 237.2832 117.86523 C 237.76908 116.44871 238.45832 115.29386 239.35352 114.40039 C 240.25908 113.50512 241.29298 112.95641 242.45508 112.75391 C 243.39928 112.58937 244.13619 112.70995 244.66406 113.11328 C 245.20231 113.51479 245.5442 114.1428 245.68945 114.99805 C 245.80565 115.68224 245.83798 116.53513 245.78711 117.55664 L 245.35352 129.05664 L 246.87891 128.79102 L 247.3457 117.58203 C 247.39137 116.34129 247.35171 115.34599 247.22461 114.59766 C 247.00673 113.31479 246.50158 112.39089 245.71094 111.82422 C 245.11796 111.39922 244.36792 111.19864 243.46094 111.22461 z M 330.08594 122.51758 L 328.23438 122.83984 L 328.0293 140.78906 L 328.99414 140.62109 L 330.08594 122.51758 z M 303.62109 126.7168 C 303.22681 126.7855 302.9457 127.01563 302.77734 127.4082 C 302.60899 127.80076 302.57592 128.29093 302.67578 128.87891 C 302.73933 129.25308 302.86664 129.53401 303.05859 129.7207 C 303.25911 129.89486 303.50965 129.95474 303.81055 129.90234 C 304.17371 129.83906 304.43908 129.61132 304.60742 129.21875 C 304.77578 128.82618 304.80857 128.32616 304.70508 127.7168 C 304.57434 126.94707 304.21252 126.61373 303.62109 126.7168 z M 318.35547 130.53906 C 318.05314 130.54772 317.7337 130.58186 317.39648 130.64062 C 314.78175 131.09628 312.83983 132.7431 311.57031 135.58398 L 311.47656 135.60156 L 311.45117 131.95703 L 310.17383 132.17969 L 309.53906 150.23633 L 311.06445 149.9707 L 311.35352 142.04492 C 311.42564 140.20519 311.70043 138.5837 312.17773 137.17969 C 312.6636 135.76318 313.35286 134.60832 314.24805 133.71484 C 315.15361 132.81957 316.1875 132.27087 317.34961 132.06836 C 318.29382 131.90382 319.03072 132.02245 319.55859 132.42578 C 320.09683 132.8273 320.43872 133.45531 320.58398 134.31055 C 320.70018 134.99475 320.73251 135.84764 320.68164 136.86914 L 320.24805 148.37109 L 321.77148 148.10547 L 322.24023 136.89453 C 322.28589 135.65379 322.24428 134.66046 322.11719 133.91211 C 321.8993 132.62924 321.3961 131.70339 320.60547 131.13672 C 320.01249 130.71172 319.26245 130.51309 318.35547 130.53906 z M 304.25977 133.20898 L 302.76562 133.4707 L 302.13086 151.52734 L 303.65625 151.26172 L 304.25977 133.20898 z M 294.35742 134.7168 C 294.08462 134.72237 293.80157 134.7512 293.50586 134.80273 C 291.94947 135.07395 290.61124 135.84741 289.49219 137.12109 C 288.38351 138.39298 287.61107 139.9798 287.17578 141.88281 C 286.74049 143.78583 286.68699 145.70564 287.01562 147.64062 C 287.3715 149.73598 288.15319 151.28263 289.35938 152.2832 C 290.56376 153.27308 292.06434 153.61163 293.85938 153.29883 C 295.50915 153.01133 296.99688 152.37165 298.32422 151.38086 L 298.06836 149.875 C 296.70677 150.91579 295.34032 151.5543 293.9707 151.79297 C 292.52845 152.0443 291.34584 151.77777 290.42188 150.99219 C 289.49609 150.19591 288.88357 148.91628 288.58398 147.15234 C 288.48592 146.57505 288.42776 146.04569 288.41016 145.56445 L 288.92383 145.47461 C 292.26487 144.89239 294.6941 143.9451 296.21289 142.63477 C 297.74206 141.32263 298.34231 139.70062 298.01367 137.76562 C 297.82303 136.64312 297.32023 135.81628 296.50391 135.28711 C 295.89167 134.89023 295.17584 134.70007 294.35742 134.7168 z M 294.09961 136.16406 C 294.6243 136.16344 295.08398 136.31099 295.47852 136.60547 C 296.01314 136.9856 296.34124 137.53373 296.46289 138.25 C 296.95312 141.13645 294.51474 143.04762 289.15039 143.98242 L 288.38867 144.11523 C 288.55704 141.96155 289.11701 140.16826 290.07031 138.73633 C 291.03217 137.2919 292.19348 136.45171 293.55273 136.21484 C 293.74209 136.18185 293.92471 136.16427 294.09961 136.16406 z M 281.18164 137.24805 C 280.28775 137.20569 279.45202 137.25111 278.67383 137.38672 C 277.0033 137.67783 275.72794 138.35257 274.84961 139.4082 C 273.97984 140.45134 273.66212 141.657 273.89453 143.02539 C 274.0652 144.03031 274.47929 144.83767 275.13867 145.44922 C 275.79624 146.05008 276.9656 146.64478 278.64648 147.23242 C 279.765 147.6539 280.52829 147.99467 280.93555 148.25391 C 281.35136 148.50065 281.66517 148.78073 281.87891 149.0957 C 282.10302 149.40887 282.25382 149.79123 282.33008 150.24023 C 282.52254 151.37343 282.29275 152.31436 281.64062 153.06641 C 280.98667 153.80776 279.94359 154.30321 278.51172 154.55273 C 277.79578 154.67749 277.00572 154.67911 276.14062 154.55469 C 275.27553 154.43027 274.41774 154.18804 273.56641 153.83008 L 273.85742 155.54688 C 275.36323 156.10999 277.01356 156.23469 278.80859 155.92188 C 280.64513 155.60184 282.02116 154.89376 282.93555 153.79883 C 283.84812 152.6932 284.17357 151.37148 283.91211 149.83203 C 283.80136 149.17991 283.58389 148.62791 283.26172 148.17773 C 282.94993 147.72575 282.50817 147.32911 281.9375 146.98828 C 281.37539 146.63495 280.44568 146.22519 279.14844 145.75781 C 278.28542 145.45692 277.59431 145.15985 277.07422 144.86523 C 276.56269 144.55812 276.18943 144.24392 275.95312 143.92188 C 275.71682 143.59982 275.54908 143.14462 275.44922 142.55664 C 275.29489 141.64794 275.53203 140.84551 276.16211 140.15234 C 276.79219 139.45917 277.7085 139.00857 278.91211 138.79883 C 280.24022 138.56739 281.66798 138.67109 283.19531 139.10938 L 283.5 137.60352 C 282.85592 137.39656 282.08408 137.27791 281.18164 137.24805 z M 328.8457 144.00781 C 328.70913 143.98208 328.55597 143.98384 328.38477 144.01367 C 327.92823 144.09323 327.59988 144.33248 327.40039 144.73047 C 327.1991 145.11778 327.15027 145.61031 327.25195 146.20898 C 327.3845 146.98939 327.79701 147.31841 328.49219 147.19727 C 328.93835 147.11952 329.26132 146.87744 329.45898 146.46875 C 329.65484 146.04938 329.70366 145.55488 329.60742 144.98828 C 329.50937 144.41099 329.25542 144.08501 328.8457 144.00781 z "
     id="path4334" /><path
     style="font-style:italic;font-variant:normal;font-weight:300;font-stretch:normal;font-size:medium;line-height:125%;font-family:'Open Sans';-inkscape-font-specification:'Open Sans Light Italic';letter-spacing:0px;word-spacing:0px;fill:#00abd0;fill-opacity:1;stroke:none;stroke-width:1px;stroke-linecap:butt;stroke-linejoin:miter;stroke-opacity:1"
     d="M 91.167969 237.38281 L 89.705078 237.63672 L 88.744141 263.49609 L 90.207031 263.24023 L 91.167969 237.38281 z M 119.41211 239.99023 C 119.10978 239.99889 118.79034 240.03108 118.45312 240.08984 C 115.83839 240.5455 113.89647 242.19426 112.62695 245.03516 L 112.5332 245.05078 L 112.50781 241.4082 L 111.23047 241.62891 L 110.5957 259.6875 L 112.12109 259.42188 L 112.41016 251.49609 C 112.48228 249.65637 112.75707 248.03487 113.23438 246.63086 C 113.72024 245.21435 114.41145 244.05948 115.30664 243.16602 C 116.21221 242.27074 117.2461 241.72204 118.4082 241.51953 C 119.35242 241.35499 120.08737 241.47363 120.61523 241.87695 C 121.15348 242.27847 121.49537 242.90647 121.64062 243.76172 C 121.75683 244.44591 121.78915 245.29881 121.73828 246.32031 L 121.30469 257.82227 L 122.83008 257.55469 L 123.29688 246.3457 C 123.34254 245.10497 123.30288 244.11162 123.17578 243.36328 C 122.9579 242.08041 122.45275 241.15456 121.66211 240.58789 C 121.06913 240.16289 120.31909 239.96426 119.41211 239.99023 z M 73.363281 240.48633 L 71.869141 240.74609 L 70.939453 266.59766 L 72.464844 266.33203 L 72.753906 258.40625 C 72.827852 256.57722 73.102636 254.95572 73.578125 253.54102 C 74.06399 252.1245 74.753248 250.96963 75.648438 250.07617 C 76.554004 249.1809 77.587896 248.6322 78.75 248.42969 C 79.694209 248.26515 80.431114 248.38379 80.958984 248.78711 C 81.49723 249.18863 81.83912 249.81663 81.984375 250.67188 C 82.100582 251.35607 82.132885 252.20896 82.082031 253.23047 L 81.648438 264.73242 L 83.173828 264.4668 L 83.640625 253.25586 C 83.68629 252.01512 83.646629 251.02178 83.519531 250.27344 C 83.305279 249.01194 82.78452 248.09536 81.960938 247.52344 C 81.137355 246.9515 80.08349 246.77775 78.796875 247.00195 C 77.541388 247.22074 76.40526 247.76417 75.388672 248.63477 C 74.380643 249.49286 73.574852 250.59624 72.970703 251.94531 L 72.876953 251.96289 C 72.961784 251.07856 73.051127 249.52627 73.144531 247.30859 L 73.363281 240.48633 z M 102.82422 242.87695 C 102.55141 242.88253 102.26642 242.91136 101.9707 242.96289 C 100.41431 243.23411 99.078038 244.0056 97.958984 245.2793 C 96.850306 246.55118 96.077866 248.13996 95.642578 250.04297 C 95.20729 251.94598 95.153783 253.86383 95.482422 255.79883 C 95.838295 257.89417 96.619981 259.44279 97.826172 260.44336 C 99.030547 261.43325 100.52919 261.77179 102.32422 261.45898 C 103.97399 261.17149 105.46367 260.53181 106.79102 259.54102 L 106.5332 258.03516 C 105.17162 259.07594 103.80712 259.71444 102.4375 259.95312 C 100.99525 260.20445 99.812643 259.93793 98.888672 259.15234 C 97.962889 258.35607 97.35037 257.07645 97.050781 255.3125 C 96.952733 254.73521 96.894586 254.20584 96.876953 253.72461 L 97.390625 253.63477 C 100.73168 253.05255 103.1609 252.10525 104.67969 250.79492 C 106.20885 249.48278 106.80911 247.86078 106.48047 245.92578 C 106.28982 244.80327 105.78702 243.97644 104.9707 243.44727 C 104.35846 243.05039 103.64263 242.86023 102.82422 242.87695 z M 62.320312 243.7793 C 61.946779 243.84439 61.678912 244.0524 61.513672 244.40039 C 61.35881 244.74658 61.325094 245.18124 61.414062 245.70508 C 61.52845 246.37858 61.87073 246.66585 62.441406 246.56641 C 62.794188 246.50493 63.05351 246.29917 63.21875 245.95117 C 63.383989 245.60317 63.42309 245.1733 63.335938 244.66016 C 63.219734 243.97596 62.880613 243.68166 62.320312 243.7793 z M 102.56445 244.32422 C 103.08915 244.32359 103.54882 244.47115 103.94336 244.76562 C 104.47797 245.14576 104.80608 245.69388 104.92773 246.41016 C 105.41797 249.29661 102.98154 251.20777 97.617188 252.14258 L 96.855469 252.27539 C 97.023838 250.1217 97.583809 248.32841 98.537109 246.89648 C 99.498971 245.45206 100.66028 244.61186 102.01953 244.375 C 102.20889 244.342 102.38955 244.32443 102.56445 244.32422 z M 56.966797 244.71289 C 56.593264 244.77798 56.323444 244.98404 56.158203 245.33203 C 56.003341 245.67822 55.971578 246.11483 56.060547 246.63867 C 56.174935 247.31218 56.517215 247.5975 57.087891 247.49805 C 57.440672 247.43657 57.699994 247.23276 57.865234 246.88477 C 58.030474 246.53677 58.069575 246.1069 57.982422 245.59375 C 57.866219 244.90955 57.527098 244.61525 56.966797 244.71289 z M 50.445312 246.03125 L 48.763672 246.32422 C 45.872829 258.36329 44.330893 264.82404 44.138672 265.70508 C 43.956825 266.5843 43.787941 267.51074 43.632812 268.48438 L 43.541016 268.5 C 43.279557 266.96056 42.80902 264.7859 42.128906 261.97656 L 38.787109 248.0625 L 37.152344 248.34766 L 32.806641 263.70117 C 32.236984 265.69364 31.715749 267.97321 31.244141 270.54297 L 31.150391 270.56055 L 30.947266 269.17578 L 30.435547 266.54102 L 26.896484 250.13477 L 25.339844 250.40625 L 30.458984 273.65234 L 31.734375 273.42969 C 35.197457 260.60846 37.040323 253.7556 37.263672 252.86914 C 37.485207 251.97199 37.666436 251.09178 37.808594 250.23047 L 37.933594 250.20898 L 38.046875 250.96484 C 38.186684 251.78802 38.44249 252.94909 38.814453 254.44727 L 42.955078 271.47461 L 44.169922 271.26367 C 45.239978 267.05965 46.277219 262.85425 47.283203 258.65039 C 48.299564 254.44473 49.354505 250.23888 50.445312 246.03125 z M 65.970703 249.51758 L 64.726562 249.73438 L 64.357422 253.13281 L 64.265625 253.15039 C 63.380322 250.89414 61.733388 249.97504 59.326172 250.39453 C 57.749031 250.66936 56.395055 251.4452 55.265625 252.7207 C 54.144756 253.9837 53.357485 255.63828 52.904297 257.6875 C 52.45111 259.73673 52.40403 261.81584 52.761719 263.92188 C 53.440785 267.92015 55.238661 269.66434 58.154297 269.15625 C 59.544672 268.91396 60.704038 268.29364 61.634766 267.29492 C 62.565495 266.2962 63.339374 264.96096 63.953125 263.29102 L 64.044922 263.27539 L 64.091797 267.79102 L 65.367188 267.56836 L 65.970703 249.51758 z M 60.164062 251.70703 C 60.71945 251.68661 61.220705 251.79008 61.667969 252.01758 C 62.262506 252.31022 62.752557 252.76999 63.136719 253.39648 C 63.519065 254.01228 63.782341 254.74138 63.925781 255.58594 C 64.083715 256.51602 64.084822 257.68765 63.929688 259.10156 C 63.774554 260.51547 63.42286 261.84378 62.875 263.08398 C 62.337515 264.32237 61.6644 265.35203 60.853516 266.17578 C 60.053006 266.99771 59.191035 267.48946 58.267578 267.65039 C 57.219609 267.83301 56.370368 267.5905 55.722656 266.92188 C 55.073132 266.24257 54.611921 265.08981 54.335938 263.46484 C 54.041797 261.73297 54.077209 259.93836 54.445312 258.08008 C 54.8116 256.21111 55.439419 254.74885 56.328125 253.69141 C 57.216833 252.63397 58.305182 251.99179 59.591797 251.76758 C 59.78894 251.73322 59.978933 251.71384 60.164062 251.70703 z M 134.22461 263.61328 L 132.37305 263.9375 L 132.16992 281.88672 L 133.13477 281.71875 L 134.22461 263.61328 z M 83.853516 270.83984 L 82.359375 271.09961 L 81.429688 296.95312 L 82.955078 296.6875 L 83.244141 288.76172 C 83.318087 286.93269 83.592871 285.30924 84.068359 283.89453 C 84.554225 282.47802 85.245435 281.32315 86.140625 280.42969 C 87.046191 279.53441 88.07813 278.98572 89.240234 278.7832 C 90.184444 278.61866 90.921348 278.73925 91.449219 279.14258 C 91.987465 279.54409 92.329354 280.17209 92.474609 281.02734 C 92.590816 281.71154 92.623119 282.56443 92.572266 283.58594 L 92.138672 295.08594 L 93.664062 294.82031 L 94.130859 283.61133 C 94.176525 282.37059 94.136863 281.37529 94.009766 280.62695 C 93.795514 279.36546 93.276708 278.44888 92.453125 277.87695 C 91.629542 277.30502 90.573724 277.13126 89.287109 277.35547 C 88.031621 277.57426 86.895494 278.11964 85.878906 278.99023 C 84.870878 279.84833 84.065088 280.95171 83.460938 282.30078 L 83.367188 282.31641 C 83.45202 281.43208 83.541362 279.88174 83.634766 277.66406 L 83.853516 270.83984 z M 122.49414 271.63477 C 122.19181 271.64342 121.87237 271.67756 121.53516 271.73633 C 118.92042 272.19198 116.9785 273.84075 115.70898 276.68164 L 115.61523 276.69727 L 115.58984 273.05273 L 114.31445 273.27539 L 113.67773 291.33203 L 115.20312 291.06641 L 115.49219 283.14062 C 115.56431 281.3009 115.8391 279.67941 116.31641 278.27539 C 116.80227 276.85888 117.49349 275.70401 118.38867 274.81055 C 119.29424 273.91527 120.32813 273.36658 121.49023 273.16406 C 122.43444 272.99952 123.16939 273.11816 123.69727 273.52148 C 124.23551 273.923 124.5774 274.55295 124.72266 275.4082 C 124.83886 276.0924 124.87118 276.94529 124.82031 277.9668 L 124.38672 289.4668 L 125.91211 289.20117 L 126.37891 277.99219 C 126.42457 276.75145 126.38491 275.75615 126.25781 275.00781 C 126.03993 273.72494 125.53478 272.80104 124.74414 272.23438 C 124.15116 271.80937 123.40113 271.60879 122.49414 271.63477 z M 105.90625 274.52344 C 105.63344 274.52901 105.34845 274.55589 105.05273 274.60742 C 103.49634 274.87864 102.16007 275.65208 101.04102 276.92578 C 99.93234 278.19766 99.159897 279.78449 98.724609 281.6875 C 98.289321 283.59051 98.235815 285.51033 98.564453 287.44531 C 98.920328 289.54067 99.70201 291.08927 100.9082 292.08984 C 102.11258 293.07972 103.61122 293.41828 105.40625 293.10547 C 107.05602 292.81798 108.54569 292.17829 109.87305 291.1875 L 109.61523 289.67969 C 108.25365 290.72048 106.88915 291.36094 105.51953 291.59961 C 104.07728 291.85094 102.89468 291.58247 101.9707 290.79688 C 101.04492 290.0006 100.4324 288.72097 100.13281 286.95703 C 100.03476 286.37974 99.976618 285.85037 99.958984 285.36914 L 100.47266 285.2793 C 103.81371 284.69708 106.24293 283.75174 107.76172 282.44141 C 109.29088 281.12927 109.89114 279.50531 109.5625 277.57031 C 109.37185 276.44781 108.86905 275.62292 108.05273 275.09375 C 107.44049 274.69687 106.72467 274.50671 105.90625 274.52344 z M 105.64648 275.9707 C 106.17118 275.97008 106.63085 276.11568 107.02539 276.41016 C 107.56 276.79029 107.88811 277.33842 108.00977 278.05469 C 108.5 280.94115 106.06357 282.8523 100.69922 283.78711 L 99.9375 283.91992 C 100.10587 281.76624 100.66584 279.97294 101.61914 278.54102 C 102.581 277.09659 103.74232 276.2564 105.10156 276.01953 C 105.29092 275.98653 105.47158 275.97091 105.64648 275.9707 z M 73.658203 280.14258 C 73.385398 280.14815 73.100402 280.17698 72.804688 280.22852 C 71.248297 280.49974 69.91007 281.27123 68.791016 282.54492 C 67.682338 283.8168 66.91185 285.40558 66.476562 287.30859 C 66.041275 289.21161 65.987768 291.12947 66.316406 293.06445 C 66.672281 295.15981 67.452013 296.70841 68.658203 297.70898 C 69.862578 298.69886 71.363168 299.03742 73.158203 298.72461 C 74.807976 298.43712 76.295699 297.79743 77.623047 296.80664 L 77.367188 295.29883 C 76.005599 296.33962 74.641107 296.98008 73.271484 297.21875 C 71.82923 297.47008 70.644671 297.20356 69.720703 296.41797 C 68.79492 295.62169 68.1824 294.34011 67.882812 292.57617 C 67.784764 291.99888 67.728571 291.46951 67.710938 290.98828 L 68.222656 290.90039 C 71.563706 290.31817 73.994886 289.37088 75.513672 288.06055 C 77.042836 286.74841 77.643092 285.12445 77.314453 283.18945 C 77.123806 282.06694 76.621007 281.24206 75.804688 280.71289 C 75.192448 280.31601 74.476619 280.12585 73.658203 280.14258 z M 73.398438 281.58984 C 73.923135 281.58922 74.382803 281.73678 74.777344 282.03125 C 75.311959 282.41139 75.640068 282.95952 75.761719 283.67578 C 76.251954 286.56224 73.815527 288.47144 68.451172 289.40625 L 67.6875 289.53906 C 67.855869 287.38538 68.417793 285.59404 69.371094 284.16211 C 70.332953 282.71768 71.492316 281.87554 72.851562 281.63867 C 73.040923 281.60567 73.223538 281.59005 73.398438 281.58984 z M 63.777344 282.08203 L 58.158203 283.06055 C 57.310752 282.97705 56.530392 282.99829 55.814453 283.12305 C 54.652349 283.32556 53.625811 283.79678 52.736328 284.53516 C 51.857222 285.27172 51.221519 286.18548 50.830078 287.27734 C 50.449011 288.3674 50.359006 289.50475 50.560547 290.69141 C 50.720328 291.63217 51.067849 292.44131 51.599609 293.11914 C 52.139928 293.78447 52.809272 294.24547 53.611328 294.50195 C 51.772964 295.69186 50.966124 296.94483 51.189453 298.25977 C 51.336524 299.12571 51.852699 299.71352 52.738281 300.02148 C 49.710056 301.62788 48.411343 303.69188 48.839844 306.21484 C 49.077699 307.61532 49.805189 308.60569 51.025391 309.18555 C 52.255969 309.76361 53.837655 309.88319 55.767578 309.54688 C 57.52111 309.2413 58.98758 308.73384 60.169922 308.02148 C 61.352264 307.30912 62.202418 306.4334 62.720703 305.39648 C 63.240806 304.37025 63.400622 303.25984 63.197266 302.0625 C 62.774212 299.5716 60.738156 298.47142 57.091797 298.76562 L 55.179688 298.91797 C 54.314336 298.98071 53.694103 298.9185 53.320312 298.73047 C 52.955082 298.52996 52.736553 298.2098 52.662109 297.77148 C 52.587666 297.33317 52.741085 296.86069 53.125 296.35352 C 53.508913 295.84633 54.087266 295.3451 54.857422 294.84766 C 55.019026 294.91857 55.426394 294.89712 56.080078 294.7832 C 57.325189 294.56623 58.385863 294.11685 59.263672 293.43555 C 60.151857 292.75244 60.787696 291.84361 61.171875 290.70898 C 61.564614 289.56186 61.662753 288.4055 61.464844 287.24023 C 61.359534 286.62018 61.163446 286.02707 60.875 285.46094 C 60.596931 284.893 60.297175 284.48279 59.976562 284.23047 L 63.728516 283.39453 L 63.777344 282.08203 z M 56.738281 284.44141 C 57.456457 284.43595 58.073119 284.62847 58.587891 285.01758 C 59.272437 285.52568 59.707653 286.33545 59.896484 287.44727 C 60.063526 288.43079 60.025351 289.36774 59.78125 290.25781 C 59.547523 291.14608 59.121537 291.84643 58.503906 292.36133 C 57.886276 292.87621 57.122066 293.21393 56.208984 293.37305 C 55.109136 293.56471 54.199911 293.404 53.482422 292.89062 C 52.775309 292.37544 52.320545 291.51961 52.117188 290.32227 C 51.973749 289.47771 52.027933 288.63052 52.279297 287.7832 C 52.530662 286.93589 52.970168 286.22132 53.597656 285.63867 C 54.225145 285.05602 55.021367 284.68183 55.986328 284.51367 C 56.24832 284.46802 56.498889 284.44322 56.738281 284.44141 z M 132.98633 285.10352 C 132.84976 285.07778 132.69464 285.07954 132.52344 285.10938 C 132.0669 285.18894 131.7405 285.42819 131.54102 285.82617 C 131.33972 286.21347 131.28895 286.70601 131.39062 287.30469 C 131.52317 288.08509 131.93763 288.41606 132.63281 288.29492 C 133.07897 288.21717 133.39999 287.97313 133.59766 287.56445 C 133.79351 287.14508 133.84428 286.65254 133.74805 286.08594 C 133.65 285.50865 133.39605 285.18071 132.98633 285.10352 z M 57.896484 300.18164 C 58.955508 300.16632 59.757612 300.29923 60.302734 300.58398 C 61.038124 300.95114 61.482386 301.58935 61.636719 302.49805 C 61.872758 303.88783 61.466465 305.08285 60.417969 306.08008 C 59.37129 307.088 57.793814 307.77357 55.6875 308.14062 C 54.203742 308.39919 52.997778 308.34027 52.068359 307.96289 C 51.138941 307.58551 50.581822 306.85709 50.398438 305.77734 C 50.218685 304.71898 50.42483 303.75396 51.013672 302.88086 C 51.604328 302.01845 52.673387 301.2044 54.220703 300.43945 L 56.751953 300.24609 C 57.162061 300.20765 57.543476 300.18675 57.896484 300.18164 z "
     id="path4297" /><path
     style="font-style:italic;font-variant:normal;font-weight:300;font-stretch:normal;font-size:medium;line-height:125%;font-family:'Open Sans';-inkscape-font-specification:'Open Sans Light Italic';letter-spacing:0px;word-spacing:0px;fill:#88b04b;fill-opacity:1;stroke:none;stroke-width:1px;stroke-linecap:butt;stroke-linejoin:miter;stroke-opacity:1"
     d="M 379.25977 335.23438 L 377.40625 335.55859 L 377.20312 353.50781 L 378.16797 353.33984 L 379.25977 335.23438 z M 328.88672 342.46094 L 327.39258 342.7207 L 326.46484 368.57422 L 327.98828 368.30859 L 328.27734 360.38281 C 328.35129 358.55377 328.62608 356.93228 329.10156 355.51758 C 329.58744 354.10107 330.27864 352.94425 331.17383 352.05078 C 332.07939 351.15551 333.11328 350.60681 334.27539 350.4043 C 335.2196 350.23976 335.95455 350.36035 336.48242 350.76367 C 337.02067 351.16519 337.36256 351.7932 337.50781 352.64844 C 337.62401 353.33264 337.65634 354.18553 337.60547 355.20703 L 337.17188 366.70703 L 338.69727 366.44141 L 339.16406 355.23242 C 339.20974 353.99168 339.17007 352.99639 339.04297 352.24805 C 338.82872 350.98657 338.30991 350.06998 337.48633 349.49805 C 336.66274 348.92611 335.60693 348.75235 334.32031 348.97656 C 333.06483 349.19534 331.9287 349.74073 330.91211 350.61133 C 329.90408 351.46942 329.09829 352.57281 328.49414 353.92188 L 328.40039 353.9375 C 328.48522 353.05316 328.57456 351.50282 328.66797 349.28516 L 328.88672 342.46094 z M 367.5293 343.25586 C 367.22697 343.26452 366.90558 343.29866 366.56836 343.35742 C 363.95363 343.81307 362.01171 345.46184 360.74219 348.30273 L 360.64844 348.31836 L 360.62305 344.67383 L 359.34766 344.89648 L 358.71289 362.95508 L 360.23828 362.6875 L 360.52539 354.76172 C 360.59752 352.92199 360.8723 351.3005 361.34961 349.89648 C 361.83548 348.47998 362.52668 347.32511 363.42188 346.43164 C 364.32744 345.53637 365.36134 344.98766 366.52344 344.78516 C 367.46765 344.62061 368.2026 344.73925 368.73047 345.14258 C 369.26871 345.5441 369.61061 346.17406 369.75586 347.0293 C 369.87206 347.7135 369.90634 348.56639 369.85547 349.58789 L 369.41992 361.08789 L 370.94531 360.82227 L 371.41406 349.61328 C 371.45973 348.37253 371.41812 347.37725 371.29102 346.62891 C 371.07314 345.34605 370.56994 344.42214 369.7793 343.85547 C 369.18632 343.43046 368.43628 343.22989 367.5293 343.25586 z M 350.93945 346.14453 C 350.66665 346.15011 350.38361 346.17894 350.08789 346.23047 C 348.5315 346.50169 347.19327 347.27318 346.07422 348.54688 C 344.96555 349.81876 344.19311 351.40558 343.75781 353.30859 C 343.32253 355.2116 343.26902 357.13141 343.59766 359.06641 C 343.95353 361.16176 344.73521 362.71037 345.94141 363.71094 C 347.14578 364.70082 348.64442 365.03938 350.43945 364.72656 C 352.08923 364.43907 353.5789 363.79938 354.90625 362.80859 L 354.65039 361.30078 C 353.2888 362.34157 351.92236 362.98203 350.55273 363.2207 C 349.11049 363.47203 347.92788 363.20355 347.00391 362.41797 C 346.07813 361.62169 345.4656 360.34207 345.16602 358.57812 C 345.06794 358.00083 345.00979 357.47147 344.99219 356.99023 L 345.50586 356.90039 C 348.84691 356.31816 351.27614 355.37283 352.79492 354.0625 C 354.32408 352.75036 354.92434 351.1264 354.5957 349.19141 C 354.40506 348.0689 353.90226 347.24402 353.08594 346.71484 C 352.4737 346.31797 351.75787 346.1278 350.93945 346.14453 z M 350.68164 347.5918 C 351.20634 347.59117 351.666 347.73872 352.06055 348.0332 C 352.59516 348.41334 352.92327 348.96147 353.04492 349.67773 C 353.53516 352.56419 351.09678 354.4734 345.73242 355.4082 L 344.9707 355.54102 C 345.13908 353.38733 345.69904 351.59599 346.65234 350.16406 C 347.61421 348.71964 348.77553 347.87749 350.13477 347.64062 C 350.32413 347.60763 350.50674 347.59201 350.68164 347.5918 z M 320.79688 351.51172 C 320.15221 351.50574 319.4823 351.56245 318.78711 351.68359 C 317.07508 351.98194 315.65298 352.72096 314.51758 353.89844 C 313.38037 355.06522 312.58011 356.61809 312.11914 358.55859 C 311.66673 360.48661 311.61637 362.48164 311.9668 364.54492 C 312.32267 366.64028 313.12024 368.19143 314.35938 369.19727 C 315.60708 370.19061 317.13405 370.52946 318.93945 370.21484 C 320.56847 369.93096 321.93309 369.37965 323.0332 368.56055 L 322.78125 367.08594 C 322.10448 367.56711 321.46284 367.93237 320.85352 368.18164 C 320.25456 368.42911 319.5863 368.61576 318.84961 368.74414 C 317.44886 368.98824 316.28739 368.72411 315.36523 367.94922 C 314.45164 367.16182 313.85133 365.92348 313.56445 364.23438 C 313.24668 362.36352 313.26242 360.60017 313.61133 358.94336 C 313.96023 357.28655 314.59843 355.95278 315.52734 354.94336 C 316.46664 353.93215 317.60682 353.30943 318.94531 353.07617 C 320.09705 352.87547 321.26928 352.92929 322.46484 353.23828 L 322.65625 351.7207 C 322.0621 351.58759 321.44154 351.5177 320.79688 351.51172 z M 307.67578 353.90039 L 306.42969 354.11719 L 306.0625 357.51758 L 305.96875 357.5332 C 305.08344 355.27695 303.43651 354.35981 301.0293 354.7793 C 299.45216 355.05413 298.09818 355.82801 296.96875 357.10352 C 295.84788 358.36652 295.06256 360.02305 294.60938 362.07227 C 294.15619 364.12149 294.10716 366.19865 294.46484 368.30469 C 295.14391 372.30296 296.94179 374.0491 299.85742 373.54102 C 301.2478 373.29872 302.40912 372.67841 303.33984 371.67969 C 304.27057 370.68097 305.0425 369.34573 305.65625 367.67578 L 305.75 367.66016 L 305.79492 372.17578 L 307.07227 371.95312 L 307.67578 353.90039 z M 301.86914 356.08984 C 302.42453 356.06942 302.92578 356.17289 303.37305 356.40039 C 303.96758 356.69303 304.45568 357.1528 304.83984 357.7793 C 305.22219 358.3951 305.48547 359.12615 305.62891 359.9707 C 305.78671 360.90078 305.78795 362.07241 305.63281 363.48633 C 305.47769 364.90024 305.12599 366.2266 304.57812 367.4668 C 304.04064 368.70518 303.36753 369.73681 302.55664 370.56055 C 301.75613 371.38247 300.89416 371.87423 299.9707 372.03516 C 298.92273 372.21778 298.07544 371.97526 297.42773 371.30664 C 296.77821 370.62732 296.31504 369.47457 296.03906 367.84961 C 295.74492 366.11774 295.78228 364.32313 296.15039 362.46484 C 296.51668 360.59587 297.14254 359.13165 298.03125 358.07422 C 298.91996 357.01678 300.0083 356.37656 301.29492 356.15234 C 301.49206 356.11799 301.68401 356.09665 301.86914 356.08984 z M 378.01953 356.72461 C 377.88296 356.69888 377.7298 356.70063 377.55859 356.73047 C 377.10206 356.81002 376.77371 357.04927 376.57422 357.44727 C 376.37293 357.83457 376.32215 358.32711 376.42383 358.92578 C 376.55637 359.70619 376.97083 360.03716 377.66602 359.91602 C 378.11218 359.83827 378.4332 359.59423 378.63086 359.18555 C 378.82671 358.76618 378.87748 358.27364 378.78125 357.70703 C 378.6832 357.12974 378.42925 356.8018 378.01953 356.72461 z M 252.25195 356.95508 C 251.85767 357.02379 251.57655 357.25392 251.4082 357.64648 C 251.23985 358.03904 251.20483 358.5292 251.30469 359.11719 C 251.36824 359.49135 251.49751 359.7723 251.68945 359.95898 C 251.88997 360.13321 252.1405 360.19504 252.44141 360.14258 C 252.80456 360.0793 253.06993 359.85156 253.23828 359.45898 C 253.40664 359.06641 253.43943 358.56444 253.33594 357.95508 C 253.2052 357.18536 252.84338 356.85201 252.25195 356.95508 z M 285.94727 357.4707 C 285.67046 357.47629 285.37967 357.50571 285.07617 357.55859 C 283.85181 357.77195 282.76213 358.33006 281.80469 359.23438 C 280.84543 360.12799 280.0823 361.33521 279.51758 362.85352 L 279.42383 362.86914 C 279.16029 361.50617 278.67207 360.5175 277.95898 359.9043 C 277.2459 359.29108 276.34008 359.08177 275.24023 359.27344 C 274.08851 359.47414 273.03493 359.96988 272.08008 360.76367 C 271.1356 361.55566 270.35146 362.62778 269.72656 363.98047 L 269.63281 363.99805 L 269.57422 360.54102 L 268.33008 360.75781 L 267.69531 378.81445 L 269.2207 378.54883 L 269.48242 370.66016 C 269.54418 368.82224 269.80308 367.19819 270.25781 365.78711 C 270.71255 364.37602 271.36701 363.22804 272.2207 362.3418 C 273.07257 361.44488 274.04858 360.90065 275.14844 360.70898 C 276.74633 360.43053 277.71056 361.2633 278.04102 363.20898 C 278.10822 363.60454 278.12426 364.49347 278.0918 365.875 L 277.64062 377.08203 L 279.22852 376.80469 L 279.51367 368.20312 C 279.60319 365.71095 280.14622 363.62494 281.14258 361.94336 C 282.1475 360.24927 283.46473 359.25848 285.09375 358.97461 C 285.88232 358.83719 286.53827 358.95985 287.0625 359.3418 C 287.58493 359.71305 287.91488 360.3116 288.05469 361.13477 C 288.15635 361.73344 288.18802 362.69536 288.14648 364.02344 L 287.67969 375.33203 L 289.23438 375.06055 L 289.7207 363.58398 C 289.73004 362.56972 289.72163 361.91726 289.69336 361.625 C 289.67367 361.32023 289.63665 361.01315 289.58398 360.70312 C 289.37518 359.47371 288.87369 358.59139 288.07812 358.05859 C 287.48787 357.64963 286.7777 357.45394 285.94727 357.4707 z M 260.53516 357.88867 L 259.67969 358.03906 L 258.85938 362.35938 L 256.04102 363.13086 L 256.00586 364.24219 L 258.83789 363.74805 L 258.48438 373.83203 C 258.42496 375.30631 258.4612 376.43443 258.59375 377.21484 C 258.78258 378.32666 259.20703 379.12685 259.86719 379.61719 C 260.52553 380.09684 261.36731 380.24737 262.39453 380.06836 C 263.11047 379.9436 263.96772 379.64016 264.96484 379.1582 L 264.73047 377.7793 C 263.9061 378.20913 263.14111 378.48642 262.43555 378.60938 C 261.12817 378.8372 260.34808 378.20668 260.0957 376.7207 C 259.97767 376.02581 259.94365 375.1294 259.99219 374.03125 L 260.36328 363.48242 L 264.76758 362.71484 L 264.82812 361.36719 L 260.37695 362.14453 L 260.53516 357.88867 z M 245.39453 358.5625 L 243.06055 358.9707 L 235.07422 381.11523 L 234.98047 381.13086 L 228.36719 361.5293 L 226.14062 361.91797 L 225.31445 386.20117 L 226.80859 385.93945 L 227.34766 370.62305 C 227.45562 367.61034 227.47444 365.26258 227.40234 363.58008 L 227.49414 363.56445 L 234.62109 384.57812 L 235.41602 384.43945 L 243.88281 360.70898 L 243.97656 360.69141 C 243.9003 361.56323 243.78839 364.04319 243.63867 368.13086 L 243.11914 383.09766 L 244.69141 382.82422 L 245.39453 358.5625 z M 252.89062 363.44727 L 251.39648 363.70898 L 250.76172 381.76562 L 252.28711 381.5 L 252.89062 363.44727 z "
     id="path4355" /></svg>